{
.appVersion = "3236";
.formatVersion = 3;
DisplayStrings = (
q,
"binging on garbage struggling to begin to grasp figures ",
"ę",
g,
f,
"amaze sizing trapeze pizza figures confusing glaze fand kand z exam "
);
customParameters = (
{
name = vendorID;
value = ADBO;
},
{
name = panose;
value = (
2,
4,
8,
3,
5,
4,
5,
2,
2,
4
);
},
{
name = unicodeRanges;
value = (
0,
1,
2,
32
);
},
{
name = fsType;
value = (
);
},
{
name = "Family Alignment Zones";
value = (
{
pos = 729;
size = 20;
},
{
pos = 669;
size = 15;
},
{
pos = 646;
size = 13;
},
{
pos = 549;
size = 14;
},
{
pos = 527;
size = 13;
},
{
pos = 475;
size = 13;
},
{
pos = 0;
size = -15;
},
{
pos = -239;
size = -10;
}
);
},
{
name = blueScale;
value = 0.0375000014901;
},
{
name = glyphOrder;
value = (
.notdef,
space,
A,
B,
C,
D,
E,
F,
G,
H,
I,
J,
K,
L,
M,
N,
O,
P,
Q,
R,
S,
T,
U,
V,
W,
X,
Y,
Z,
a,
b,
c,
d,
e,
f,
g,
h,
i,
j,
k,
l,
m,
n,
o,
p,
q,
r,
s,
t,
u,
v,
w,
x,
y,
z,
Agrave,
Aacute,
Acircumflex,
Atilde,
Adieresis,
Amacron,
Abreve,
Aring,
Aogonek,
AE,
Ccedilla,
Cacute,
Ccaron,
Dcaron,
Dcroat,
Egrave,
Eacute,
Ecircumflex,
Ecaron,
Edieresis,
Emacron,
Edotaccent,
Eogonek,
Gbreve,
Gdotaccent,
uni0122,
Igrave,
Iacute,
Icircumflex,
Idieresis,
Imacron,
Idotaccent,
Iogonek,
uni0136,
Lacute,
Lcaron,
uni013B,
Ldot,
Lslash,
Nacute,
Ncaron,
Ntilde,
uni0145,
uni1E44,
Ograve,
Oacute,
Ocircumflex,
Otilde,
Odieresis,
Omacron,
Ohungarumlaut,
Oslash,
OE,
Racute,
Rcaron,
uni0156,
Sacute,
Scaron,
uni015E,
uni0218,
Tcaron,
uni0162,
uni021A,
Ugrave,
Uacute,
Ucircumflex,
Udieresis,
Umacron,
Uring,
Uhungarumlaut,
Uogonek,
Yacute,
Ydieresis,
Zacute,
Zcaron,
Zdotaccent,
Eth,
Thorn,
agrave,
aacute,
acircumflex,
atilde,
adieresis,
amacron,
abreve,
aring,
aogonek,
ae,
ccedilla,
cacute,
ccaron,
dcaron,
dcroat,
egrave,
eacute,
ecircumflex,
ecaron,
edieresis,
emacron,
edotaccent,
eogonek,
gbreve,
gdotaccent,
uni0123,
igrave,
iacute,
icircumflex,
idieresis,
imacron,
iogonek,
i.trk,
dotlessi,
uni0237,
uni0137,
lacute,
lcaron,
uni013C,
ldot,

glyphs = (
{
glyphname = .notdef;
layers = (
{
hints = (
{
horizontal = 1;
place = (593,64);
type = Stem;
},
{
horizontal = 1;
place = (0,64);
type = Stem;
},
{
place = (486,74);
type = Stem;
},
{
place = (80,74);
type = Stem;
}
);
layerId = m01;
shapes = (
{
closed = 1;
nodes = (
(80,0,l),
(560,0,l),
(560,657,l),
(80,657,l)
);
},
{
closed = 1;
nodes = (
(207,64,l),
(320,254,l),
(433,64,l)
);
},
{
closed = 1;
nodes = (
(154,533,l),
(276,329,l),
(154,124,l)
);
},
{
closed = 1;
nodes = (
(365,329,l),
(486,533,l),
(486,124,l)
);
},
{
closed = 1;
nodes = (
(207,593,l),
(433,593,l),
(320,403,l)
);
}
);
width = 640;
}
);
note = .notdef;
},
{
glyphname = A;
kernLeft = A;
kernRight = A;
layers = (
{
anchors = (
{
name = bottom;
pos = (265,-22);
},
{
name = ogonek;
pos = (531,0);
},
{
name = top;
pos = (429,685);
}
);
hints = (
{
horizontal = 1;
place = (657,-20);
target = down;
type = TopGhost;
},
{
horizontal = 1;
place = (198,58);
type = Stem;
},
{
horizontal = 1;
place = (0,58.5);
type = Stem;
},
{
horizontal = 1;
place = (0,58);
type = Stem;
},
{
place = (-29,682);
type = Stem;
}
);
layerId = m01;
shapes = (
{
closed = 1;
nodes = (
(-29,0,l),
(197,0,l),
(208,54,l),
(126,67,l),
(193,198,l),
(406,198,l),
(426,62,l),
(344,54,l),
(333,0,l),
(643,0,l),
(653,54,l),
(574,63,l),
(477,657,l),
(379,657,l),
(68,66,l),
(-18,54,l)
);
},
{
closed = 1;
nodes = (
(222,256,l),
(359,524,l),
(398,256,l)
);
}
);
width = 688;
}
);
note = A;
unicode = 65;
},
{
glyphname = B;
kernLeft = B;
kernRight = B;
layers = (
{
anchors = (
{
name = bottom;
pos = (294,-22);
},
{
name = top;
pos = (372,685);
}
);
hints = (
{
horizontal = 1;
place = (601,56);
type = Stem;
},
{
horizontal = 1;
place = (599,58);
type = Stem;
},
{
horizontal = 1;
place = (318,54);
type = Stem;
},
{
horizontal = 1;
place = (0,58);
type = Stem;
},
{
horizontal = 1;
place = (0,56);
type = Stem;
},
{
place = (465,148);
type = Stem;
},
{
place = (452,150);
type = Stem;
}
);
layerId = m01;
shapes = (
{
closed = 1;
nodes = (
(108,603,l),
(186,595,l),
(172,512,o),
(157,429,o),
(142,347,cs),
(88,62,l),
(9,54,l),
(-2,0,l),
(310,0,ls),
(530,0,o),
(602,93,o),
(602,182,cs),
(602,261,o),
(554,327,o),
(446,348,c),
(562,368,o),
(613,433,o),
(613,507,cs),
(613,584,o),
(559,657,o),
(394,657,cs),
(119,657,l)
);
},
{
closed = 1;
nodes = (
(286,318,l),
(336,318,ls),
(408,318,o),
(452,277,o),
(452,202,cs),
(452,114,o),
(394,56,o),
(289,56,cs),
(238,56,l),
(253,141,o),
(269,226,o),
(285,311,cs)
);
},
{
closed = 1;
nodes = (
(361,601,ls),
(432,601,o),
(465,563,o),
(465,503,cs),
(465,417,o),
(416,372,o),
(325,372,cs),
(296,372,l),
(339,601,l)
);
}
);
width = 635;
}
);
note = B;
unicode = 66;
},
{
glyphname = C;
kernLeft = C;
kernRight = C;
layers = (
{
anchors = (
{
name = bottom;
pos = (346,0);
},
{
name = bottom_;
pos = (334,-22);
},
{
name = top;
pos = (432,685);
}
);
hints = (
{
horizontal = 1;
place = (618,58);
type = Stem;
},
{
horizontal = 1;
place = (-19,58);
type = Stem;
},
{
place = (46,158);
type = Stem;
}
);
layerId = m01;
shapes = (
{
closed = 1;
nodes = (
(434,-19,o),
(499,3,o),
(548,31,c),
(574,185,l),
(497,185,l),
(447,50,l),
(425,43,o),
(404,39,o),
(382,39,cs),
(266,39,o),
(204,135,o),
(204,266,cs),
(204,453,o),
(303,618,o),
(449,618,cs),
(479,618,o),
(506,611,o),
(530,597,c),
(532,471,l),
(610,471,l),
(633,624,l),
(568,660,o),
(511,676,o),
(439,676,cs),
(204,676,o),
(46,496,o),
(46,274,cs),
(46,84,o),
(169,-19,o),
(347,-19,cs)
);
}
);
width = 602;
}
);
note = C;
unicode = 67;
},
{
glyphname = D;
kernLeft = B;
kernRight = D;
layers = (
{
anchors = (
{
name = bottom;
pos = (284,-22);
},
{
name = top;
pos = (401,685);
}
);
hints = (
{
horizontal = 1;
place = (601,56);
type = Stem;
},
{
horizontal = 1;
place = (599,58);
type = Stem;
},
{
horizontal = 1;
place = (0,58.5);
type = Stem;
},
{
horizontal = 1;
place = (0,56);
type = Stem;
},
{
place = (532,159);
type = Stem;
}
);
layerId = m01;
shapes = (
{
closed = 1;
nodes = (
(108,603,l),
(186,595,l),
(172,512,o),
(157,429,o),
(142,347,cs),
(88,63,l),
(9,54,l),
(-2,0,l),
(287,0,ls),
(511,0,o),
(690,146,o),
(691,378,cs),
(691,535,o),
(586,657,o),
(387,657,cs),
(119,657,l)
);
},
{
closed = 1;
nodes = (
(339,601,l),
(341,601,ls),
(469,601,o),
(532,524,o),
(532,390,cs),
(532,206,o),
(434,56,o),
(274,56,cs),
(238,56,l),
(253,141,o),
(269,226,o),
(285,311,cs)
);
}
);
width = 689;
}
);
note = D;
unicode = 68;
},
{
glyphname = E;
kernLeft = B;
kernRight = E;
layers = (
{
anchors = (
{
name = bottom;
pos = (283,-22);
},
{
name = ogonek;
pos = (425,0);
},
{
name = top;
pos = (386,685);
}
);
hints = (
{
horizontal = 1;
place = (601,56);
type = Stem;
},
{
horizontal = 1;
place = (599,58);
type = Stem;
},
{
horizontal = 1;
place = (485,172);
type = Stem;
},
{
horizontal = 1;
place = (308,58);
type = Stem;
},
{
horizontal = 1;
place = (0,172);
type = Stem;
},
{
horizontal = 1;
place = (0,58);
type = Stem;
},
{
horizontal = 1;
place = (0,56);
type = Stem;
},
{
place = (-2,607);
type = Stem;
}
);
layerId = m01;
shapes = (
{
closed = 1;
nodes = (
(108,603,l),
(186,595,l),
(172,512,o),
(157,429,o),
(142,347,cs),
(88,62,l),
(9,54,l),
(-2,0,l),
(519,0,l),
(558,172,l),
(479,172,l),
(438,56,l),
(238,56,l),
(253,140,o),
(268,224,o),
(284,308,c),
(397,308,l),
(394,232,l),
(449,232,l),
(490,447,l),
(435,447,l),
(407,366,l),
(295,366,l),
(339,601,l),
(503,601,l),
(501,485,l),
(580,485,l),
(605,657,l),
(119,657,l)
);
}
);
width = 587;
}
);
note = E;
unicode = 69;
},
{
glyphname = F;
kernLeft = B;
kernRight = F;
layers = (
{
anchors = (
{
name = bottom;
pos = (159,-22);
},
{
name = top;
pos = (384,685);
}
);
hints = (
{
horizontal = 1;
place = (601,56);
type = Stem;
},
{
horizontal = 1;
place = (599,58);
type = Stem;
},
{
horizontal = 1;
place = (485,172);
type = Stem;
},
{
horizontal = 1;
place = (308,58);
type = Stem;
},
{
horizontal = 1;
place = (0,59);
type = Stem;
},
{
horizontal = 1;
place = (0,58);
type = Stem;
},
{
place = (-2,617);
type = Stem;
}
);
layerId = m01;
shapes = (
{
closed = 1;
nodes = (
(108,603,l),
(186,595,l),
(172,512,o),
(157,429,o),
(142,347,cs),
(88,62,l),
(9,54,l),
(-2,0,l),
(320,0,l),
(331,54,l),
(240,64,l),
(254,145,o),
(269,226,o),
(284,308,c),
(396,308,l),
(393,222,l),
(448,222,l),
(490,447,l),
(435,447,l),
(407,366,l),
(295,366,l),
(339,601,l),
(511,601,l),
(509,485,l),
(588,485,l),
(615,657,l),
(119,657,l)
);
}
);
width = 557;
}
);
note = F;
unicode = 70;
},
{
glyphname = G;
kernLeft = C;
kernRight = G;
layers = (
{
anchors = (
{
name = bottom;
pos = (356,-22);
},
{
name = top;
pos = (437,685);
}
);
hints = (
{
horizontal = 1;
place = (618,58);
type = Stem;
},
{
horizontal = 1;
place = (272.5,57.5);
type = Stem;
},
{
horizontal = 1;
place = (-17,54);
type = Stem;
},
{
place = (46,158);
type = Stem;
}
);
layerId = m01;
shapes = (
{
closed = 1;
nodes = (
(46,86,o),
(163,-17,o),
(360,-17,cs),
(439,-17,o),
(492,-2,o),
(550,24,c),
(597,268,l),
(662,277,l),
(672,330,l),
(365,330,l),
(355,277,l),
(445,263,l),
(436,204,o),
(426,144,o),
(416,85,cs),
(409,38,l),
(402,37,o),
(395,37,o),
(387,37,cs),
(272,37,o),
(204,125,o),
(204,266,cs),
(204,446,o),
(303,618,o),
(458,618,cs),
(483,618,o),
(507,614,o),
(531,606,c),
(538,465,l),
(614,465,l),
(637,620,l),
(578,658,o),
(510,676,o),
(441,676,cs),
(211,676,o),
(46,501,o),
(46,273,cs)
);
}
);
width = 660;
}
);
note = G;
unicode = 71;
},
{
glyphname = H;
kernLeft = B;
kernRight = H;
layers = (
{
anchors = (
{
name = bottom;
pos = (341,-22);
},
{
name = top;
pos = (458,685);
}
);
hints = (
{
horizontal = 1;
place = (599,58);
type = Stem;
},
{
horizontal = 1;
place = (598.5,58.5);
type = Stem;
},
{
horizontal = 1;
place = (308,59);
type = Stem;
},
{
horizontal = 1;
place = (0,58.5);
type = Stem;
},
{
horizontal = 1;
place = (0,58);
type = Stem;
},
{
place = (-2,807);
type = Stem;
}
);
layerId = m01;
shapes = (
{
closed = 1;
nodes = (
(485,603,l),
(562,595,l),
(550,519,o),
(536,443,o),
(522,367,c),
(296,367,l),
(338,594,l),
(418,603,l),
(429,657,l),
(119,657,l),
(108,603,l),
(186,595,l),
(172,512,o),
(157,429,o),
(142,347,cs),
(88,62,l),
(9,54,l),
(-2,0,l),
(308,0,l),
(319,54,l),
(240,63,l),
(254,144,o),
(269,226,o),
(284,308,c),
(511,308,l),
(464,62,l),
(386,54,l),
(375,0,l),
(684,0,l),
(695,54,l),
(616,63,l),
(630,145,o),
(645,228,o),
(661,311,cs),
(715,594,l),
(794,603,l),
(805,657,l),
(496,657,l)
);
}
);
width = 753;
}
);
note = H;
unicode = 72;
},
{
glyphname = I;
kernLeft = B;
kernRight = H;
layers = (
{
anchors = (
{
name = bottom;
pos = (152,-22);
},
{
name = ogonek;
pos = (202,0);
},
{
name = top;
pos = (273,685);
}
);
hints = (
{
horizontal = 1;
place = (599,58);
type = Stem;
},
{
horizontal = 1;
place = (598.5,58.5);
type = Stem;
},
{
horizontal = 1;
place = (0,58.5);
type = Stem;
},
{
horizontal = 1;
place = (0,58);
type = Stem;
},
{
place = (-2,431);
type = Stem;
}
);
layerId = m01;
shapes = (
{
closed = 1;
nodes = (
(108,603,l),
(186,595,l),
(172,512,o),
(157,429,o),
(142,347,cs),
(88,62,l),
(9,54,l),
(-2,0,l),
(307,0,l),
(318,54,l),
(240,63,l),
(254,145,o),
(269,228,o),
(285,311,cs),
(338,594,l),
(418,603,l),
(429,657,l),
(119,657,l)
);
}
);
width = 376;
}
);
note = I;
unicode = 73;
},
{
glyphname = J;
kernLeft = J;
kernRight = J;
layers = (
{
anchors = (
{
name = bottom;
pos = (94,-60);
},
{
name = top;
pos = (326,685);
}
);
hints = (
{
horizontal = 1;
place = (599,58);
type = Stem;
},
{
horizontal = 1;
place = (598,59);
type = Stem;
},
{
horizontal = 1;
place = (-54,130);
type = Stem;
},
{
place = (-46,522);
type = Stem;
}
);
layerId = m01;
shapes = (
{
closed = 1;
nodes = (
(148,603,l),
(236,593,l),
(219,494,o),
(205,416,o),
(195,349,cs),
(182,271,o),
(175,214,o),
(164,146,cs),
(156,94,o),
(142,51,o),
(126,20,c),
(81,62,o),
(59,76,o),
(30,76,cs),
(-11,76,o),
(-40,49,o),
(-46,10,c),
(-34,-34,o),
(7,-54,o),
(59,-54,cs),
(138,-54,o),
(211,-5,o),
(262,80,cs),
(297,134,o),
(319,215,o),
(345,356,cs),
(389,595,l),
(466,603,l),
(476,657,l),
(158,657,l)
);
}
);
width = 408;
}
);
note = J;
unicode = 74;
},
{
glyphname = K;
kernLeft = B;
kernRight = K;
layers = (
{
anchors = (
{
name = bottom;
pos = (334,-22);
},
{
name = top;
pos = (456,685);
}
);
hints = (
{
horizontal = 1;
place = (599,58);
type = Stem;
},
{
horizontal = 1;
place = (0,58);
type = Stem;
},
{
horizontal = 1;
place = (0,57);
type = Stem;
},
{
place = (-4,738);
type = Stem;
}
);
layerId = m01;
shapes = (
{
closed = 1;
nodes = (
(501,603,l),
(559,592,l),
(281,321,l),
(333,595,l),
(407,603,l),
(418,657,l),
(117,657,l),
(106,603,l),
(180,595,l),
(167,512,o),
(152,429,o),
(136,347,cs),
(82,62,l),
(7,54,l),
(-4,0,l),
(286,0,l),
(297,54,l),
(234,62,l),
(244,124,o),
(255,186,o),
(267,248,c),
(323,302,l),
(441,60,l),
(392,54,l),
(382,0,l),
(660,0,l),
(670,54,l),
(607,62,l),
(431,404,l),
(628,590,l),
(723,603,l),
(734,657,l),
(512,657,l)
);
}
);
width = 681;
}
);
note = K;
unicode = 75;
},
{
glyphname = L;
kernLeft = B;
kernRight = L;
layers = (
{
anchors = (
{
name = bottom;
pos = (266,-22);
},
{
name = top;
pos = (277,685);
}
);
hints = (
{
horizontal = 1;
place = (599,58);
type = Stem;
},
{
horizontal = 1;
place = (598.5,58.5);
type = Stem;
},
{
horizontal = 1;
place = (0,196);
type = Stem;
},
{
horizontal = 1;
place = (0,58.5);
type = Stem;
},
{
horizontal = 1;
place = (0,57);
type = Stem;
},
{
place = (-2,549);
type = Stem;
}
);
layerId = m01;
shapes = (
{
closed = 1;
nodes = (
(108,603,l),
(186,595,l),
(172,512,o),
(157,429,o),
(142,347,cs),
(88,63,l),
(9,54,l),
(-2,0,l),
(503,0,l),
(547,196,l),
(471,196,l),
(419,57,l),
(239,57,l),
(253,141,o),
(269,226,o),
(285,311,cs),
(338,594,l),
(426,603,l),
(437,657,l),
(119,657,l)
);
}
);
width = 565;
}
);
note = L;
unicode = 76;
},
{
glyphname = M;
kernLeft = M;
kernRight = H;
layers = (
{
anchors = (
{
name = bottom;
pos = (368,-22);
},
{
name = top;
pos = (533,676);
}
);
hints = (
{
horizontal = 1;
place = (599,58);
type = Stem;
},
{
horizontal = 1;
place = (598.5,58.5);
type = Stem;
},
{
horizontal = 1;
place = (0,58);
type = Stem;
},
{
place = (-16,955);
type = Stem;
}
);
layerId = m01;
shapes = (
{
closed = 1;
nodes = (
(-16,0,l),
(225,0,l),
(236,54,l),
(147,67,l),
(245,495,l),
(349,0,l),
(399,0,l),
(684,495,l),
(619,62,l),
(542,54,l),
(532,0,l),
(838,0,l),
(848,54,l),
(772,62,l),
(782,145,o),
(794,229,o),
(806,311,cs),
(849,594,l),
(930,603,l),
(939,657,l),
(716,657,l),
(455,205,l),
(365,657,l),
(149,657,l),
(139,603,l),
(215,595,l),
(93,68,l),
(-5,54,l)
);
}
);
width = 907;
}
);
note = M;
unicode = 77;
},
{
glyphname = N;
kernLeft = M;
kernRight = N;
layers = (
{
anchors = (
{
name = bottom;
pos = (333,-22);
},
{
name = top;
pos = (421,685);
}
);
hints = (
{
horizontal = 1;
place = (599.5,57.5);
type = Stem;
},
{
horizontal = 1;
place = (0,54);
type = Stem;
},
{
horizontal = 1;
place = (-3,21);
target = up;
type = BottomGhost;
},
{
place = (-9,775);
type = Stem;
}
);
layerId = m01;
shapes = (
{
closed = 1;
nodes = (
(501,603,l),
(612,590,l),
(541,209,l),
(308,657,l),
(108,657,l),
(97,603,l),
(172,596,l),
(181,579,l),
(84,66,l),
(1,54,l),
(-9,0,l),
(244,0,l),
(254,54,l),
(146,67,l),
(226,492,l),
(481,-3,l),
(562,-3,l),
(673,590,l),
(755,603,l),
(766,657,l),
(512,657,l)
);
}
);
width = 701;
}
);
note = N;
unicode = 78;
},
{
glyphname = O;
kernLeft = C;
kernRight = O;
layers = (
{
anchors = (
{
name = bottom;
pos = (300,-22);
},
{
name = ogonek;
pos = (407,0);
},
{
name = top;
pos = (423,684);
}
);
hints = (
{
horizontal = 1;
place = (618,57);
type = Stem;
},
{
horizontal = 1;
place = (-18,57);
type = Stem;
},
{
place = (520,155);
type = Stem;
},
{
place = (46,154);
type = Stem;
}
);
layerId = m01;
shapes = (
{
closed = 1;
nodes = (
(532,-18,o),
(675,178,o),
(675,402,cs),
(675,570,o),
(573,675,o),
(422,675,cs),
(189,675,o),
(46,474,o),
(46,258,cs),
(46,72,o),
(154,-18,o),
(298,-18,cs)
);
},
{
closed = 1;
nodes = (
(233,39,o),
(200,104,o),
(200,228,cs),
(200,442,o),
(299,618,o),
(412,618,cs),
(491,618,o),
(520,555,o),
(520,434,cs),
(520,221,o),
(423,39,o),
(310,39,cs)
);
}
);
width = 669;
}
);
note = O;
unicode = 79;
},
{
glyphname = P;
kernLeft = B;
kernRight = P;
layers = (
{
anchors = (
{
name = bottom;
pos = (158,-22);
},
{
name = top;
pos = (372,685);
}
);
hints = (
{
horizontal = 1;
place = (599,58);
type = Stem;
},
{
horizontal = 1;
place = (250,56);
type = Stem;
},
{
horizontal = 1;
place = (0,59);
type = Stem;
},
{
horizontal = 1;
place = (0,58);
type = Stem;
},
{
place = (473,149);
type = Stem;
}
);
layerId = m01;
shapes = (
{
closed = 1;
nodes = (
(108,603,l),
(186,595,l),
(172,512,o),
(157,429,o),
(142,347,cs),
(88,62,l),
(9,54,l),
(-2,0,l),
(320,0,l),
(331,54,l),
(240,64,l),
(250,126,o),
(262,188,o),
(273,250,c),
(309,250,ls),
(523,250,o),
(622,359,o),
(622,476,cs),
(622,585,o),
(549,657,o),
(372,657,cs),
(119,657,l)
);
},
{
closed = 1;
nodes = (
(339,599,l),
(362,599,ls),
(433,599,o),
(473,558,o),
(473,485,cs),
(473,373,o),
(406,306,o),
(314,306,cs),
(284,306,l),
(284,308,o),
(285,309,o),
(285,311,c)
);
}
);
width = 594;
}
);
note = P;
unicode = 80;
},
{
glyphname = Q;
kernLeft = C;
kernRight = O;
layers = (
{
anchors = (
{
name = top;
pos = (412,685);
}
);
hints = (
{
horizontal = 1;
place = (618,57);
type = Stem;
},
{
horizontal = 1;
place = (-13,52);
type = Stem;
},
{
horizontal = 1;
place = (-230,78);
type = Stem;
},
{
horizontal = 1;
place = (-9,21);
target = up;
type = BottomGhost;
},
{
place = (520,155);
type = Stem;
},
{
place = (46,154);
type = Stem;
}
);
layerId = m01;
shapes = (
{
closed = 1;
nodes = (
(233,39,o),
(200,104,o),
(200,228,cs),
(200,442,o),
(299,618,o),
(412,618,cs),
(491,618,o),
(520,555,o),
(520,434,cs),
(520,221,o),
(423,39,o),
(310,39,cs)
);
},
{
closed = 1;
nodes = (
(540,-230,o),
(598,-208,o),
(641,-175,c),
(622,-132,l),
(588,-146,o),
(557,-152,o),
(511,-152,cs),
(425,-152,o),
(374,-101,o),
(363,-13,c),
(558,20,o),
(675,200,o),
(675,402,cs),
(675,570,o),
(573,675,o),
(422,675,cs),
(189,675,o),
(46,474,o),
(46,258,cs),
(46,105,o),
(119,17,o),
(225,-9,c),
(238,-147,o),
(321,-230,o),
(454,-230,cs)
);
}
);
width = 669;
}
);
note = Q;
unicode = 81;
},
{
glyphname = R;
kernLeft = B;
kernRight = R;
layers = (
{
anchors = (
{
name = bottom;
pos = (373,-22);
},
{
name = top;
pos = (380,685);
}
);
hints = (
{
horizontal = 1;
place = (599,58);
type = Stem;
},
{
horizontal = 1;
place = (302,57.5);
type = Stem;
},
{
horizontal = 1;
place = (0,58.5);
type = Stem;
},
{
horizontal = 1;
place = (0,58);
type = Stem;
},
{
horizontal = 1;
place = (-14,21);
target = up;
type = BottomGhost;
},
{
place = (484,147);
type = Stem;
}
);
layerId = m01;
shapes = (
{
closed = 1;
nodes = (
(382,599,ls),
(447,599,o),
(484,567,o),
(484,509,cs),
(484,432,o),
(443,362,o),
(332,360,cs),
(294,359,l),
(339,599,l)
);
},
{
closed = 1;
nodes = (
(108,603,l),
(186,595,l),
(172,512,o),
(157,429,o),
(142,347,cs),
(88,62,l),
(9,54,l),
(-2,0,l),
(307,0,l),
(318,54,l),
(240,63,l),
(253,142,o),
(268,222,o),
(283,302,c),
(301,302,ls),
(358,302,o),
(377,275,o),
(391,206,cs),
(416,90,l),
(429,12,o),
(469,-14,o),
(550,-14,cs),
(586,-14,o),
(604,-11,o),
(647,0,c),
(657,54,l),
(579,63,l),
(553,163,ls),
(532,252,o),
(521,303,o),
(434,328,c),
(578,354,o),
(631,432,o),
(631,505,cs),
(631,597,o),
(564,657,o),
(432,657,cs),
(119,657,l)
);
}
);
width = 667;
}
);
note = R;
unicode = 82;
},
{
glyphname = S;
kernLeft = S;
kernRight = S;
layers = (
{
anchors = (
{
name = bottom;
pos = (221,0);
},
{
name = bottom_;
pos = (221,-22);
},
{
name = top;
pos = (348,685);
}
);
hints = (
{
horizontal = 1;
place = (616,60);
type = Stem;
},
{
horizontal = 1;
place = (-19,60);
type = Stem;
},
{
place = (326,147);
type = Stem;
},
{
place = (97,138);
type = Stem;
}
);
layerId = m01;
shapes = (
{
closed = 1;
nodes = (
(23,32,l),
(72,0,o),
(143,-19,o),
(215,-19,cs),
(365,-19,o),
(473,60,o),
(473,189,cs),
(473,265,o),
(437,324,o),
(332,396,cs),
(256,448,o),
(235,481,o),
(235,521,cs),
(235,580,o),
(286,616,o),
(356,616,cs),
(376,616,o),
(394,613,o),
(412,607,c),
(420,484,l),
(507,484,l),
(524,625,l),
(478,657,o),
(406,676,o),
(338,676,cs),
(197,676,o),
(97,596,o),
(97,475,cs),
(97,406,o),
(126,340,o),
(233,265,cs),
(312,209,o),
(326,174,o),
(326,137,cs),
(326,75,o),
(281,41,o),
(207,41,cs),
(186,41,o),
(160,45,o),
(136,51,c),
(124,181,l),
(39,181,l)
);
}
);
width = 500;
}
);
note = S;
unicode = 83;
},
{
glyphname = T;
kernLeft = T;
kernRight = T;
layers = (
{
anchors = (
{
name = bottom;
pos = (272,0);
},
{
name = bottom_;
pos = (270,-22);
},
{
name = top;
pos = (393,685);
}
);
hints = (
{
horizontal = 1;
place = (601,56);
type = Stem;
},
{
horizontal = 1;
place = (471,186);
type = Stem;
},
{
horizontal = 1;
place = (0,58.5);
type = Stem;
},
{
place = (72,601);
type = Stem;
}
);
layerId = m01;
shapes = (
{
closed = 1;
nodes = (
(72,471,l),
(151,471,l),
(194,601,l),
(305,601,l),
(290,516,o),
(275,431,o),
(259,347,cs),
(205,63,l),
(117,54,l),
(106,0,l),
(434,0,l),
(445,54,l),
(358,63,l),
(372,145,o),
(387,228,o),
(402,311,cs),
(457,601,l),
(568,601,l),
(561,471,l),
(639,471,l),
(673,657,l),
(110,657,l)
);
}
);
width = 608;
}
);
note = T;
unicode = 84;
},
{
glyphname = U;
kernLeft = U;
kernRight = U;
layers = (
{
anchors = (
{
name = bottom;
pos = (318,-22);
},
{
name = ogonek;
pos = (425,0);
},
{
name = top;
pos = (473,685);
}
);
hints = (
{
horizontal = 1;
place = (599.5,57.5);
type = Stem;
},
{
horizontal = 1;
place = (599,58);
type = Stem;
},
{
horizontal = 1;
place = (-19,86);
type = Stem;
},
{
place = (97,160);
type = Stem;
}
);
layerId = m01;
shapes = (
{
closed = 1;
nodes = (
(521,603,l),
(608,596,l),
(546,268,ls),
(518,121,o),
(464,67,o),
(376,67,cs),
(298,67,o),
(257,112,o),
(257,188,cs),
(257,220,o),
(261,249,o),
(268,281,cs),
(327,595,l),
(404,603,l),
(414,657,l),
(102,657,l),
(92,603,l),
(164,595,l),
(151,516,o),
(136,436,o),
(122,357,cs),
(107,271,ls),
(101,239,o),
(97,209,o),
(97,182,cs),
(97,47,o),
(184,-19,o),
(327,-19,cs),
(474,-19,o),
(574,65,o),
(611,264,cs),
(673,596,l),
(753,603,l),
(763,657,l),
(531,657,l)
);
}
);
width = 687;
}
);
note = U;
unicode = 85;
},
{
glyphname = V;
kernLeft = V;
kernRight = V;
layers = (
{
anchors = (
{
name = bottom;
pos = (278,-22);
},
{
name = top;
pos = (432,685);
}
);
hints = (
{
horizontal = 1;
place = (599.5,57.5);
type = Stem;
},
{
horizontal = 1;
place = (-3,21);
target = up;
type = BottomGhost;
},
{
place = (61,645);
type = Stem;
}
);
layerId = m01;
shapes = (
{
closed = 1;
nodes = (
(482,607,l),
(556,593,l),
(344,172,l),
(283,595,l),
(368,607,l),
(378,657,l),
(71,657,l),
(61,603,l),
(119,596,l),
(220,-3,l),
(310,-3,l),
(618,591,l),
(695,603,l),
(706,657,l),
(492,657,l)
);
}
);
width = 603;
}
);
note = V;
unicode = 86;
},
{
glyphname = W;
kernLeft = W;
kernRight = W;
layers = (
{
anchors = (
{
name = bottom;
pos = (439,-16);
},
{
name = top;
pos = (560,685);
}
);
hints = (
{
horizontal = 1;
place = (603,54);
type = Stem;
},
{
horizontal = 1;
place = (600,57);
type = Stem;
},
{
horizontal = 1;
place = (598.5,58.5);
type = Stem;
},
{
horizontal = 1;
place = (598,59);
type = Stem;
},
{
horizontal = 1;
place = (597.5,59.5);
type = Stem;
},
{
horizontal = 1;
place = (-3,21);
target = up;
type = BottomGhost;
},
{
place = (61,931);
type = Stem;
}
);
layerId = m01;
shapes = (
{
closed = 1;
nodes = (
(768,603,l),
(845,591,l),
(663,176,l),
(617,592,l),
(703,603,l),
(714,657,l),
(426,657,l),
(415,603,l),
(491,593,l),
(303,181,l),
(276,594,l),
(356,603,l),
(367,657,l),
(71,657,l),
(61,603,l),
(118,597,l),
(177,-3,l),
(271,-3,l),
(485,457,l),
(541,-3,l),
(635,-3,l),
(906,590,l),
(981,603,l),
(992,657,l),
(779,657,l)
);
}
);
width = 889;
}
);
note = W;
unicode = 87;
},
{
glyphname = X;
kernLeft = X;
kernRight = X;
layers = (
{
anchors = (
{
name = bottom;
pos = (260,-22);
},
{
name = top;
pos = (441,685);
}
);
hints = (
{
horizontal = 1;
place = (599,58);
type = Stem;
},
{
horizontal = 1;
place = (0,58);
type = Stem;
},
{
horizontal = 1;
place = (0,57.5);
type = Stem;
},
{
place = (-11,721);
type = Stem;
}
);
layerId = m01;
shapes = (
{
closed = 1;
nodes = (
(483,603,l),
(549,592,l),
(403,410,l),
(329,595,l),
(400,603,l),
(411,657,l),
(105,657,l),
(94,603,l),
(165,595,l),
(281,304,l),
(77,65,l),
(-1,54,l),
(-11,0,l),
(203,0,l),
(214,54,l),
(148,65,l),
(301,253,l),
(378,61,l),
(306,54,l),
(295,0,l),
(606,0,l),
(617,54,l),
(542,62,l),
(423,359,l),
(620,592,l),
(699,603,l),
(710,657,l),
(493,657,l)
);
}
);
width = 649;
}
);
note = X;
unicode = 88;
},
{
glyphname = Y;
kernLeft = Y;
kernRight = Y;
layers = (
{
anchors = (
{
name = bottom;
pos = (256,-22);
},
{
name = top;
pos = (423,685);
}
);
hints = (
{
horizontal = 1;
place = (599.5,57.5);
type = Stem;
},
{
horizontal = 1;
place = (598.5,58.5);
type = Stem;
},
{
horizontal = 1;
place = (0,58.5);
type = Stem;
},
{
place = (61,617);
type = Stem;
}
);
layerId = m01;
shapes = (
{
closed = 1;
nodes = (
(463,603,l),
(532,592,l),
(367,336,l),
(293,594,l),
(369,603,l),
(380,657,l),
(71,657,l),
(61,603,l),
(125,596,l),
(235,264,l),
(197,63,l),
(108,54,l),
(98,0,l),
(426,0,l),
(436,54,l),
(349,63,l),
(361,135,o),
(374,207,o),
(388,279,c),
(595,591,l),
(667,603,l),
(678,657,l),
(474,657,l)
);
}
);
width = 575;
}
);
note = Y;
unicode = 89;
},
{
glyphname = Z;
kernLeft = Z;
kernRight = Z;
layers = (
{
anchors = (
{
name = bottom;
pos = (249,-22);
},
{
name = top;
pos = (362,685);
}
);
hints = (
{
horizontal = 1;
place = (600,57);
type = Stem;
},
{
horizontal = 1;
place = (471,186);
type = Stem;
},
{
horizontal = 1;
place = (0,186);
type = Stem;
},
{
horizontal = 1;
place = (0,57);
type = Stem;
},
{
place = (-6,604);
type = Stem;
}
);
layerId = m01;
shapes = (
{
closed = 1;
nodes = (
(71,471,l),
(149,471,l),
(198,600,l),
(413,600,l),
(3,46,l),
(-6,0,l),
(493,0,l),
(534,186,l),
(454,186,l),
(405,57,l),
(179,57,l),
(589,611,l),
(598,657,l),
(112,657,l)
);
}
);
width = 544;
}
);
note = Z;
unicode = 90;
},
{
glyphname = a;
kernLeft = a;
kernRight = a;
layers = (
{
anchors = (
{
name = bottom;
pos = (273,-22);
},
{
name = ogonek;
pos = (456,0);
},
{
name = top;
pos = (384,516);
}
);
hints = (
{
horizontal = 1;
place = (489,-20);
target = down;
type = TopGhost;
},
{
horizontal = 1;
place = (425,74);
type = Stem;
},
{
horizontal = 1;
place = (-15,102);
type = Stem;
},
{
horizontal = 1;
place = (-15,91);
type = Stem;
},
{
horizontal = 1;
place = (-15,21);
target = up;
type = BottomGhost;
},
{
place = (326,140);
type = Stem;
},
{
place = (46,145);
type = Stem;
}
);
layerId = m01;
shapes = (
{
closed = 1;
nodes = (
(191,247,o),
(223,348,o),
(270,391,cs),
(295,414,o),
(318,425,o),
(340,425,cs),
(358,425,o),
(376,420,o),
(392,411,c),
(336,154,ls),
(335,148,o),
(334,143,o),
(333,137,c),
(301,106,o),
(272,87,o),
(246,87,cs),
(212,87,o),
(191,113,o),
(191,176,cs)
);
},
{
closed = 1;
nodes = (
(484,-15,o),
(551,55,o),
(587,118,c),
(556,139,l),
(525,99,o),
(503,76,o),
(484,76,cs),
(473,76,o),
(466,83,o),
(466,96,cs),
(466,107,o),
(469,121,o),
(474,139,cs),
(554,489,l),
(537,501,l),
(464,467,l),
(441,487,o),
(414,499,o),
(384,499,cs),
(237,499,o),
(46,303,o),
(46,124,cs),
(46,21,o),
(97,-15,o),
(152,-15,cs),
(208,-15,o),
(272,27,o),
(326,87,c),
(326,84,o),
(326,80,o),
(326,76,cs),
(326,14,o),
(360,-15,o),
(409,-15,cs)
);
}
);
width = 569;
}
);
note = a;
unicode = 97;
},
{
glyphname = b;
kernLeft = b;
kernRight = b;
layers = (
{
anchors = (
{
name = bottom;
pos = (221,-22);
},
{
name = top;
pos = (253,718);
}
);
hints = (
{
horizontal = 1;
place = (719,-20);
target = down;
type = TopGhost;
},
{
horizontal = 1;
place = (499,-20);
target = down;
type = TopGhost;
},
{
horizontal = 1;
place = (396,103);
type = Stem;
},
{
horizontal = 1;
place = (-15,72);
type = Stem;
},
{
place = (404,142);
type = Stem;
},
{
place = (70,137);
type = Stem;
}
);
layerId = m01;
shapes = (
{
closed = 1;
nodes = (
(207,133,o),
(216,169,o),
(228,226,cs),
(254,344,l),
(289,376,o),
(320,396,o),
(351,396,cs),
(384,396,o),
(404,369,o),
(404,315,cs),
(404,248,o),
(376,161,o),
(344,118,cs),
(313,74,o),
(284,57,o),
(255,57,cs),
(223,57,o),
(207,77,o),
(207,108,cs)
);
},
{
closed = 1;
nodes = (
(360,-15,o),
(546,167,o),
(546,360,cs),
(546,460,o),
(504,499,o),
(442,499,cs),
(383,499,o),
(314,456,o),
(260,390,c),
(329,707,l),
(314,719,l),
(101,656,l),
(96,618,l),
(166,611,l),
(97,269,ls),
(85,212,o),
(70,149,o),
(70,99,cs),
(70,21,o),
(116,-15,o),
(187,-15,cs)
);
}
);
width = 538;
}
);
note = b;
unicode = 98;
},
{
glyphname = c;
kernLeft = c;
kernRight = c;
layers = (
{
anchors = (
{
name = bottom;
pos = (204,0);
},
{
name = bottom_;
pos = (216,-22);
},
{
name = top;
pos = (358,516);
}
);
hints = (
{
horizontal = 1;
place = (446,53);
type = Stem;
},
{
horizontal = 1;
place = (340,159);
type = Stem;
},
{
horizontal = 1;
place = (-15,103);
type = Stem;
},
{
place = (50,143);
type = Stem;
}
);
layerId = m01;
shapes = (
{
closed = 1;
nodes = (
(327,-15,o),
(412,61,o),
(454,141,c),
(427,161,l),
(389,115,o),
(341,88,o),
(299,88,cs),
(235,88,o),
(193,124,o),
(193,204,cs),
(193,294,o),
(232,394,o),
(313,446,c),
(344,394,ls),
(360,366,o),
(379,340,o),
(413,340,cs),
(451,340,o),
(482,368,o),
(483,405,c),
(467,463,o),
(416,499,o),
(343,499,cs),
(177,499,o),
(50,346,o),
(50,175,cs),
(50,57,o),
(121,-15,o),
(223,-15,cs)
);
}
);
width = 468;
}
);
note = c;
unicode = 99;
},
{
glyphname = d;
kernLeft = a;
kernRight = d;
layers = (
{
anchors = (
{
name = bottom;
pos = (285,-22);
},
{
name = top;
pos = (519,718);
}
);
hints = (
{
horizontal = 1;
place = (719,-20);
target = down;
type = TopGhost;
},
{
horizontal = 1;
place = (495,-20);
target = down;
type = TopGhost;
},
{
horizontal = 1;
place = (425,74);
type = Stem;
},
{
horizontal = 1;
place = (-15,102);
type = Stem;
},
{
horizontal = 1;
place = (-15,91);
type = Stem;
},
{
horizontal = 1;
place = (-15,21);
target = up;
type = BottomGhost;
},
{
place = (329,140);
type = Stem;
},
{
place = (47,144);
type = Stem;
}
);
layerId = m01;
shapes = (
{
closed = 1;
nodes = (
(191,244,o),
(222,348,o),
(268,393,cs),
(285,410,o),
(313,425,o),
(338,425,cs),
(361,425,o),
(377,420,o),
(393,411,c),
(339,152,ls),
(338,148,o),
(337,143,o),
(336,139,c),
(304,107,o),
(275,87,o),
(247,87,cs),
(213,87,o),
(191,113,o),
(191,177,cs)
);
},
{
closed = 1;
nodes = (
(597,707,l),
(581,719,l),
(369,656,l),
(363,618,l),
(439,610,l),
(416,495,l),
(405,498,o),
(394,499,o),
(383,499,cs),
(233,499,o),
(47,303,o),
(47,127,cs),
(47,21,o),
(96,-15,o),
(151,-15,cs),
(208,-15,o),
(276,27,o),
(330,89,c),
(329,82,o),
(329,74,o),
(329,68,cs),
(329,21,o),
(357,-15,o),
(405,-15,cs),
(480,-15,o),
(550,47,o),
(589,118,c),
(559,138,l),
(528,97,o),
(502,76,o),
(486,76,cs),
(476,76,o),
(469,83,o),
(469,96,cs),
(469,107,o),
(471,119,o),
(476,140,cs)
);
}
);
width = 572;
}
);
note = d;
unicode = 100;
},
{
glyphname = e;
kernLeft = c;
kernRight = e;
layers = (
{
anchors = (
{
name = bottom;
pos = (228,-22);
},
{
name = ogonek;
pos = (288,0);
},
{
name = top;
pos = (358,516);
}
);
hints = (
{
horizontal = 1;
place = (444,55);
type = Stem;
},
{
horizontal = 1;
place = (-15,103);
type = Stem;
},
{
place = (369,116);
type = Stem;
},
{
place = (50,143);
type = Stem;
},
{
place = (50,141);
type = Stem;
}
);
layerId = m01;
shapes = (
{
closed = 1;
nodes = (
(352,444,o),
(369,428,o),
(369,395,cs),
(369,340,o),
(327,270,o),
(191,223,c),
(197,341,o),
(277,444,o),
(332,444,cs)
);
},
{
closed = 1;
nodes = (
(333,-15,o),
(413,64,o),
(454,141,c),
(426,161,l),
(395,122,o),
(349,88,o),
(291,88,cs),
(236,88,o),
(200,118,o),
(193,182,c),
(391,231,o),
(485,307,o),
(485,391,cs),
(485,455,o),
(436,499,o),
(346,499,cs),
(177,499,o),
(50,346,o),
(50,173,cs),
(50,56,o),
(121,-15,o),
(225,-15,cs)
);
}
);
width = 471;
}
);
note = e;
unicode = 101;
},
{
glyphname = f;
kernLeft = f;
kernRight = f;
lastChange = "2024-07-22 17:49:09 +0000";
layers = (
{
anchors = (
{
name = bottom;
pos = (-9,-241);
},
{
name = top;
pos = (375,743);
}
);
hints = (
{
horizontal = 1;
place = (693,43);
type = Stem;
},
{
horizontal = 1;
place = (427,52);
type = Stem;
},
{
horizontal = 1;
place = (422.5,60.5);
type = Stem;
},
{
horizontal = 1;
place = (-237,136);
type = Stem;
},
{
place = (-156,673);
type = Stem;
}
);
layerId = m01;
shapes = (
{
closed = 1;
nodes = (
(272,736,o),
(177,653,o),
(144,484,c),
(68,474,l),
(59,427,l),
(135,427,l),
(117,298,o),
(97,124,o),
(77,0,c),
(211,0,l),
(233,117,o),
(255,293,o),
(273,424,c),
(389,421,l),
(401,483,l),
(282,483,l),
(283,490,o),
(284,498,o),
(285,505,cs),
(301,609,o),
(319,663,o),
(350,693,c),
(374,653,ls),
(396,620,o),
(419,600,o),
(450,600,cs),
(480,600,o),
(513,625,o),
(517,660,c),
(506,705,o),
(448,736,o),
(387,736,cs)
);
}
);
width = 377;
}
);
note = f;
unicode = 102;
},
{
glyphname = g;
kernLeft = g;
kernRight = g;
lastChange = "2024-07-22 17:49:44 +0000";
layers = (
{
anchors = (
{
name = bottom;
pos = (848,-234);
},
{
name = top;
pos = (851,516);
}
);
hints = (
{
horizontal = 1;
place = (456,43);
type = Stem;
},
{
horizontal = 1;
place = (151,41);
type = Stem;
},
{
horizontal = 1;
place = (-24,107.5);
type = Stem;
},
{
horizontal = 1;
place = (-235,59);
type = Stem;
},
{
horizontal = 1;
place = (-13,21);
target = up;
type = BottomGhost;
},
{
place = (359,127);
type = Stem;
},
{
place = (79,131);
type = Stem;
},
{
place = (39,112);
type = Stem;
},
{
place = (-29,113);
type = Stem;
}
);
layerId = m01;
shapes = (
{
closed = 1;
nodes = (
(191,244,o),
(219,340,o),
(265,386,cs),
(284,406,o),
(313,425,o),
(344,425,cs),
(362,425,o),
(381,420,o),
(399,410,c),
(341,135,l),
(309,105,o),
(275,87,o),
(247,87,cs),
(211,87,o),
(191,115,o),
(191,176,cs)
);
},
{
closed = 1;
nodes = (
(557,495,l),
(540,507,l),
(465,473,l),
(441,490,o),
(415,499,o),
(386,499,cs),
(235,499,o),
(47,303,o),
(47,127,cs),
(47,21,o),
(96,-15,o),
(151,-15,cs),
(207,-15,o),
(277,23,o),
(332,81,c),
(324,43,ls),
(310,-19,o),
(300,-73,o),
(275,-107,cs),
(235,-162,o),
(193,-186,o),
(145,-186,cs),
(135,-186,o),
(125,-185,o),
(113,-183,c),
(112,-146,ls),
(110,-76,o),
(97,-49,o),
(58,-49,cs),
(24,-49,o),
(-1,-62,o),
(-21,-99,c),
(-33,-184,o),
(34,-237,o),
(154,-237,cs),
(250,-237,o),
(298,-210,o),
(357,-157,cs),
(423,-98,o),
(447,-25,o),
(475,111,cs)
);
}
);
width = 547;
}
);
note = g;
unicode = 103;
},
{
glyphname = h;
kernLeft = b;
kernRight = h;
layers = (
{
anchors = (
{
name = bottom;
pos = (252,-19);
},
{
name = top;
pos = (259,719);
}
);
hints = (
{
horizontal = 1;
place = (719,-20);
target = down;
type = TopGhost;
},
{
horizontal = 1;
place = (499,-20);
target = down;
type = TopGhost;
},
{
horizontal = 1;
place = (-15,91);
type = Stem;
},
{
horizontal = 1;
place = (-8,21);
target = up;
type = BottomGhost;
},
{
horizontal = 1;
place = (-15,21);
target = up;
type = BottomGhost;
},
{
place = (393,149);
type = Stem;
},
{
place = (38,556);
type = Stem;
}
);
layerId = m01;
shapes = (
{
closed = 1;
nodes = (
(53,-8,l),
(183,0,l),
(194,72,o),
(206,129,o),
(224,215,cs),
(250,334,l),
(297,377,o),
(337,396,o),
(366,396,cs),
(382,396,o),
(393,387,o),
(393,365,cs),
(393,349,o),
(388,322,o),
(380,291,cs),
(342,141,ls),
(334,111,o),
(326,78,o),
(326,48,cs),
(326,8,o),
(352,-15,o),
(400,-15,cs),
(485,-15,o),
(555,51,o),
(594,118,c),
(563,138,l),
(532,97,o),
(507,76,o),
(489,76,cs),
(480,76,o),
(474,83,o),
(474,96,cs),
(474,106,o),
(478,120,o),
(482,139,cs),
(530,328,ls),
(538,359,o),
(542,388,o),
(542,415,cs),
(542,471,o),
(510,499,o),
(466,499,cs),
(402,499,o),
(329,458,o),
(259,388,c),
(327,707,l),
(313,719,l),
(102,656,l),
(96,618,l),
(164,611,l),
(154,549,o),
(141,487,o),
(128,425,cs),
(38,4,l)
);
}
);
width = 579;
}
);
note = h;
unicode = 104;
},
{
glyphname = i;
kernLeft = i;
kernRight = i;
layers = (
{
anchors = (
{
name = bottom;
pos = (149,-22);
},
{
name = ogonek;
pos = (196,0);
},
{
name = top;
pos = (263,737);
}
);
hints = (
{
horizontal = 1;
place = (500,-20);
target = down;
type = TopGhost;
},
{
horizontal = 1;
place = (593,156);
type = Stem;
},
{
horizontal = 1;
place = (-15,91);
type = Stem;
},
{
horizontal = 1;
place = (-15,21);
target = up;
type = BottomGhost;
},
{
place = (176,159);
type = Stem;
},
{
place = (68,147);
type = Stem;
}
);
layerId = m01;
shapes = (
{
closed = 1;
nodes = (
(68,8,o),
(98,-15,o),
(145,-15,cs),
(231,-15,o),
(294,50,o),
(334,118,c),
(304,138,l),
(271,96,o),
(249,76,o),
(232,76,cs),
(222,76,o),
(215,83,o),
(215,96,cs),
(215,107,o),
(217,121,o),
(222,139,cs),
(297,486,l),
(281,500,l),
(68,436,l),
(62,398,l),
(133,391,l),
(82,150,ls),
(76,120,o),
(68,78,o),
(68,51,cs)
);
},
{
closed = 1;
nodes = (
(294,593,o),
(335,630,o),
(335,679,cs),
(335,720,o),
(304,749,o),
(262,749,cs),
(217,749,o),
(176,714,o),
(176,664,cs),
(176,620,o),
(211,593,o),
(249,593,cs)
);
}
);
width = 319;
}
);
note = i;
unicode = 105;
},
{
glyphname = j;
kernLeft = j;
kernRight = j;
layers = (
{
anchors = (
{
name = bottom;
pos = (17,-242);
},
{
name = top;
pos = (263,737);
}
);
hints = (
{
horizontal = 1;
place = (500,-20);
target = down;
type = TopGhost;
},
{
horizontal = 1;
place = (593,156);
type = Stem;
},
{
place = (176,159);
type = Stem;
}
);
layerId = m01;
shapes = (
{
closed = 1;
nodes = (
(294,593,o),
(335,630,o),
(335,679,cs),
(335,720,o),
(304,749,o),
(262,749,cs),
(217,749,o),
(176,714,o),
(176,664,cs),
(176,620,o),
(211,593,o),
(249,593,cs)
);
},
{
closed = 1;
nodes = (
(-58,-236,l),
(20,-232,o),
(79,-200,o),
(118,-154,cs),
(161,-107,o),
(188,-41,o),
(210,63,cs),
(293,485,l),
(276,500,l),
(68,436,l),
(62,398,l),
(133,391,l),
(69,51,ls),
(49,-56,o),
(33,-113,o),
(10,-147,cs),
(-10,-177,o),
(-33,-191,o),
(-64,-203,c)
);
}
);
width = 291;
}
);
note = j;
unicode = 106;
},
{
glyphname = k;
kernLeft = b;
kernRight = k;
layers = (
{
anchors = (
{
name = bottom;
pos = (259,-22);
},
{
name = top;
pos = (256,719);
}
);
hints = (
{
horizontal = 1;
place = (719,-20);
target = down;
type = TopGhost;
},
{
horizontal = 1;
place = (493,-20);
target = down;
type = TopGhost;
},
{
horizontal = 1;
place = (243,22.5);
type = Stem;
},
{
horizontal = 1;
place = (-15,51);
type = Stem;
},
{
horizontal = 1;
place = (-8,21);
target = up;
type = BottomGhost;
},
{
horizontal = 1;
place = (-15,21);
target = up;
type = BottomGhost;
},
{
place = (38,509);
type = Stem;
}
);
layerId = m01;
shapes = (
{
closed = 1;
nodes = (
(38,4,l),
(52,-8,l),
(182,0,l),
(194,72,o),
(205,129,o),
(224,215,cs),
(230,243,l),
(248,233,o),
(256,216,o),
(271,171,cs),
(301,83,ls),
(327,5,o),
(370,-15,o),
(434,-15,cs),
(469,-15,o),
(500,-10,o),
(529,0,c),
(534,34,l),
(505,38,ls),
(481,42,o),
(467,55,o),
(451,91,cs),
(421,164,ls),
(395,224,o),
(350,257,o),
(285,264,cs),
(243,267,l),
(453,339,l),
(519,358,o),
(547,381,o),
(547,420,cs),
(547,458,o),
(520,487,o),
(480,493,c),
(240,290,l),
(328,707,l),
(315,719,l),
(101,656,l),
(96,618,l),
(164,611,l),
(154,549,o),
(140,487,o),
(127,425,cs)
);
}
);
width = 528;
}
);
note = k;
unicode = 107;
},
{
glyphname = l;
kernLeft = b;
kernRight = d;
layers = (
{
anchors = (
{
name = bottom;
pos = (134,-22);
},
{
name = top;
pos = (255,719);
}
);
hints = (
{
horizontal = 1;
place = (719,-20);
target = down;
type = TopGhost;
},
{
horizontal = 1;
place = (-15,91);
type = Stem;
},
{
horizontal = 1;
place = (-15,21);
target = up;
type = BottomGhost;
},
{
place = (59,146);
type = Stem;
}
);
layerId = m01;
shapes = (
{
closed = 1;
nodes = (
(222,-15,o),
(285,51,o),
(324,118,c),
(294,138,l),
(261,96,o),
(239,76,o),
(223,76,cs),
(213,76,o),
(205,83,o),
(205,97,cs),
(205,107,o),
(207,121,o),
(212,140,cs),
(332,707,l),
(317,719,l),
(104,656,l),
(99,618,l),
(166,611,l),
(156,549,o),
(143,486,o),
(130,425,cs),
(78,174,ls),
(65,115,o),
(59,80,o),
(59,53,cs),
(59,9,o),
(88,-15,o),
(136,-15,cs)
);
}
);
width = 307;
}
);
note = l;
unicode = 108;
},
{
glyphname = m;
kernLeft = m;
kernRight = h;
layers = (
{
anchors = (
{
name = bottom;
pos = (408,-22);
},
{
name = top;
pos = (499,516);
}
);
hints = (
{
horizontal = 1;
place = (500,-20);
target = down;
type = TopGhost;
},
{
horizontal = 1;
place = (499,-20);
target = down;
type = TopGhost;
},
{
horizontal = 1;
place = (396,103);
type = Stem;
},
{
horizontal = 1;
place = (-15,91);
type = Stem;
},
{
horizontal = 1;
place = (-8,21);
target = up;
type = BottomGhost;
},
{
horizontal = 1;
place = (-15,21);
target = up;
type = BottomGhost;
},
{
place = (676,150);
type = Stem;
},
{
place = (402,150);
type = Stem;
},
{
place = (51,826);
type = Stem;
}
);
layerId = m01;
shapes = (
{
closed = 1;
nodes = (
(195,0,l),
(209,72,o),
(222,143,o),
(237,214,cs),
(264,339,l),
(309,378,o),
(347,396,o),
(376,396,cs),
(390,396,o),
(402,387,o),
(402,367,cs),
(402,351,o),
(397,328,o),
(391,302,cs),
(329,4,l),
(343,-8,l),
(473,0,l),
(486,72,o),
(500,143,o),
(515,214,cs),
(541,338,l),
(585,378,o),
(622,396,o),
(650,396,cs),
(665,396,o),
(676,387,o),
(676,365,cs),
(676,349,o),
(671,322,o),
(663,291,cs),
(626,141,ls),
(618,111,o),
(609,78,o),
(609,48,cs),
(609,8,o),
(636,-15,o),
(683,-15,cs),
(770,-15,o),
(837,50,o),
(877,118,c),
(847,138,l),
(814,96,o),
(790,76,o),
(773,76,cs),
(763,76,o),
(757,83,o),
(757,96,cs),
(757,106,o),
(761,120,o),
(766,139,cs),
(813,328,ls),
(821,359,o),
(826,388,o),
(826,415,cs),
(826,471,o),
(793,499,o),
(750,499,cs),
(688,499,o),
(618,460,o),
(551,394,c),
(552,401,o),
(552,408,o),
(552,415,cs),
(552,471,o),
(519,499,o),
(475,499,cs),
(413,499,o),
(343,460,o),
(276,396,c),
(293,484,l),
(274,500,l),
(68,436,l),
(62,398,l),
(132,391,l),
(51,4,l),
(65,-8,l)
);
}
);
width = 862;
}
);
note = m;
unicode = 109;
},
{
glyphname = n;
kernLeft = m;
kernRight = h;
layers = (
{
anchors = (
{
name = bottom;
pos = (262,-19);
},
{
name = top;
pos = (357,516);
}
);
hints = (
{
horizontal = 1;
place = (500,-20);
target = down;
type = TopGhost;
},
{
horizontal = 1;
place = (499,-20);
target = down;
type = TopGhost;
},
{
horizontal = 1;
place = (-15,91);
type = Stem;
},
{
horizontal = 1;
place = (-8,21);
target = up;
type = BottomGhost;
},
{
horizontal = 1;
place = (-15,21);
target = up;
type = BottomGhost;
},
{
place = (405,150);
type = Stem;
},
{
place = (51,555);
type = Stem;
}
);
layerId = m01;
shapes = (
{
closed = 1;
nodes = (
(195,0,l),
(209,72,o),
(222,143,o),
(237,214,cs),
(263,335,l),
(310,377,o),
(350,396,o),
(379,396,cs),
(394,396,o),
(405,387,o),
(405,365,cs),
(405,349,o),
(400,322,o),
(392,291,cs),
(355,141,ls),
(347,111,o),
(338,78,o),
(338,48,cs),
(338,8,o),
(365,-15,o),
(413,-15,cs),
(498,-15,o),
(567,51,o),
(606,118,c),
(576,138,l),
(544,97,o),
(519,76,o),
(502,76,cs),
(492,76,o),
(486,83,o),
(486,96,cs),
(486,106,o),
(490,120,o),
(495,139,cs),
(542,328,ls),
(550,359,o),
(555,388,o),
(555,415,cs),
(555,471,o),
(522,499,o),
(479,499,cs),
(415,499,o),
(344,459,o),
(275,392,c),
(293,484,l),
(274,500,l),
(68,436,l),
(62,398,l),
(132,391,l),
(51,4,l),
(65,-8,l)
);
}
);
width = 592;
}
);
note = n;
unicode = 110;
},
{
glyphname = o;
kernLeft = c;
kernRight = o;
layers = (
{
anchors = (
{
name = bottom;
pos = (234,-22);
},
{
name = ogonek;
pos = (315,0);
},
{
name = top;
pos = (343,516);
}
);
hints = (
{
horizontal = 1;
place = (444,55);
type = Stem;
},
{
horizontal = 1;
place = (-15,54);
type = Stem;
},
{
place = (386,145);
type = Stem;
},
{
place = (47,145);
type = Stem;
}
);
layerId = m01;
shapes = (
{
closed = 1;
nodes = (
(407,-15,o),
(531,141,o),
(531,308,cs),
(531,439,o),
(448,499,o),
(339,499,cs),
(172,499,o),
(47,343,o),
(47,176,cs),
(47,45,o),
(132,-15,o),
(241,-15,cs)
);
},
{
closed = 1;
nodes = (
(218,39,o),
(192,64,o),
(192,149,cs),
(192,285,o),
(247,444,o),
(326,444,cs),
(362,444,o),
(386,419,o),
(386,338,cs),
(386,198,o),
(331,39,o),
(253,39,cs)
);
}
);
width = 533;
}
);
note = o;
unicode = 111;
},
{
glyphname = p;
kernLeft = p;
kernRight = b;
layers = (
{
anchors = (
{
name = bottom;
pos = (78,-243);
},
{
name = top;
pos = (345,516);
}
);
hints = (
{
horizontal = 1;
place = (500,-20);
target = down;
type = TopGhost;
},
{
horizontal = 1;
place = (499,-20);
target = down;
type = TopGhost;
},
{
horizontal = 1;
place = (396,103);
type = Stem;
},
{
horizontal = 1;
place = (-15,74);
type = Stem;
},
{
horizontal = 1;
place = (-227,39);
type = Stem;
},
{
horizontal = 1;
place = (-8,21);
target = up;
type = BottomGhost;
},
{
place = (415,143);
type = Stem;
}
);
layerId = m01;
shapes = (
{
closed = 1;
nodes = (
(-54,-227,l),
(223,-227,l),
(231,-188,l),
(158,-177,l),
(167,-127,o),
(177,-74,o),
(190,-8,c),
(204,-13,o),
(218,-15,o),
(234,-15,cs),
(387,-15,o),
(558,174,o),
(558,361,cs),
(558,466,o),
(511,499,o),
(454,499,cs),
(398,499,o),
(329,460,o),
(276,398,c),
(293,484,l),
(274,500,l),
(68,436,l),
(63,398,l),
(133,391,l),
(14,-178,l),
(-46,-188,l)
);
},
{
closed = 1;
nodes = (
(396,396,o),
(415,372,o),
(415,313,cs),
(415,253,o),
(393,175,o),
(364,129,cs),
(333,79,o),
(303,59,o),
(265,59,cs),
(245,59,o),
(228,67,o),
(211,82,c),
(265,347,l),
(296,375,o),
(329,396,o),
(358,396,cs)
);
}
);
width = 553;
}
);
note = p;
unicode = 112;
},
{
glyphname = q;
kernLeft = a;
kernRight = q;
layers = (
{
anchors = (
{
name = bottom;
pos = (330,-243);
},
{
name = top;
pos = (397,516);
}
);
hints = (
{
horizontal = 1;
place = (495,-20);
target = down;
type = TopGhost;
},
{
horizontal = 1;
place = (425,74);
type = Stem;
},
{
horizontal = 1;
place = (-15,102);
type = Stem;
},
{
horizontal = 1;
place = (-227,39);
type = Stem;
},
{
horizontal = 1;
place = (-15,21);
target = up;
type = BottomGhost;
},
{
place = (47,144);
type = Stem;
}
);
layerId = m01;
shapes = (
{
closed = 1;
nodes = (
(191,244,o),
(219,340,o),
(265,386,cs),
(284,406,o),
(313,425,o),
(344,425,cs),
(362,425,o),
(381,420,o),
(399,410,c),
(341,135,l),
(309,105,o),
(275,87,o),
(247,87,cs),
(211,87,o),
(191,115,o),
(191,176,cs)
);
},
{
closed = 1;
nodes = (
(557,495,l),
(540,507,l),
(465,473,l),
(441,490,o),
(415,499,o),
(386,499,cs),
(235,499,o),
(47,303,o),
(47,127,cs),
(47,21,o),
(96,-15,o),
(151,-15,cs),
(207,-15,o),
(277,23,o),
(332,81,c),
(279,-177,l),
(208,-188,l),
(201,-227,l),
(481,-227,l),
(489,-188,l),
(421,-177,l),
(430,-125,o),
(440,-72,o),
(451,-15,cs)
);
}
);
width = 554;
}
);
note = q;
unicode = 113;
},
{
glyphname = r;
kernLeft = m;
kernRight = r;
layers = (
{
anchors = (
{
name = bottom;
pos = (123,-22);
},
{
name = top;
pos = (324,516);
}
);
hints = (
{
horizontal = 1;
place = (500,-20);
target = down;
type = TopGhost;
},
{
horizontal = 1;
place = (365,134);
type = Stem;
},
{
horizontal = 1;
place = (-8,21);
target = up;
type = BottomGhost;
},
{
place = (51,448);
type = Stem;
}
);
layerId = m01;
shapes = (
{
closed = 1;
nodes = (
(51,4,l),
(65,-8,l),
(195,0,l),
(209,72,o),
(223,143,o),
(237,214,cs),
(239,224,l),
(267,289,o),
(301,349,o),
(356,407,c),
(381,380,o),
(402,365,o),
(431,365,cs),
(475,365,o),
(498,402,o),
(499,449,c),
(487,482,o),
(455,499,o),
(420,499,cs),
(362,499,o),
(301,429,o),
(255,335,c),
(281,484,l),
(262,500,l),
(68,436,l),
(62,398,l),
(132,391,l)
);
}
);
width = 458;
}
);
note = r;
unicode = 114;
},
{
glyphname = s;
kernLeft = s;
kernRight = s;
layers = (
{
anchors = (
{
name = bottom;
pos = (156,0);
},
{
name = bottom_;
pos = (171,-22);
},
{
name = top;
pos = (287,516);
}
);
hints = (
{
horizontal = 1;
place = (457,42);
type = Stem;
},
{
horizontal = 1;
place = (-15,41);
type = Stem;
},
{
place = (256,136);
type = Stem;
},
{
place = (95,131);
type = Stem;
}
);
layerId = m01;
shapes = (
{
closed = 1;
nodes = (
(392,194,o),
(367,229,o),
(306,277,cs),
(253,318,o),
(226,346,o),
(226,387,cs),
(226,420,o),
(244,452,o),
(289,457,c),
(305,412,ls),
(321,369,o),
(349,351,o),
(375,351,cs),
(408,351,o),
(427,371,o),
(431,399,c),
(418,460,o),
(375,499,o),
(283,499,cs),
(162,499,o),
(95,425,o),
(95,340,cs),
(95,274,o),
(131,236,o),
(187,190,cs),
(236,151,o),
(256,125,o),
(256,94,cs),
(256,54,o),
(228,26,o),
(177,26,cs),
(173,26,l),
(160,80,ls),
(151,126,o),
(124,143,o),
(90,143,cs),
(56,143,o),
(37,123,o),
(32,91,c),
(42,22,o),
(96,-15,o),
(181,-15,cs),
(322,-15,o),
(392,55,o),
(392,136,cs)
);
}
);
width = 421;
}
);
note = s;
unicode = 115;
},
{
glyphname = t;
kernLeft = t;
kernRight = t;
layers = (
{
anchors = (
{
name = bottom;
pos = (143,0);
},
{
name = bottom_;
pos = (143,-22);
},
{
name = top;
pos = (275,639);
}
);
hints = (
{
horizontal = 1;
place = (426,53.5);
type = Stem;
},
{
horizontal = 1;
place = (422.5,60.5);
type = Stem;
},
{
horizontal = 1;
place = (-15,91);
type = Stem;
},
{
horizontal = 1;
place = (-15,21);
target = up;
type = BottomGhost;
},
{
place = (67,147);
type = Stem;
}
);
layerId = m01;
shapes = (
{
closed = 1;
nodes = (
(81,153,ls),
(74,120,o),
(67,82,o),
(67,53,cs),
(67,8,o),
(98,-15,o),
(144,-15,cs),
(230,-15,o),
(295,50,o),
(334,118,c),
(304,138,l),
(271,96,o),
(249,76,o),
(232,76,cs),
(222,76,o),
(214,83,o),
(214,97,cs),
(214,107,o),
(216,121,o),
(220,140,cs),
(279,424,l),
(384,421,l),
(395,483,l),
(291,483,l),
(320,621,l),
(228,621,l),
(162,485,l),
(74,474,l),
(66,426,l),
(141,426,l)
);
}
);
width = 346;
}
);
note = t;
unicode = 116;
},
{
glyphname = u;
kernLeft = u;
kernRight = u;
layers = (
{
anchors = (
{
name = bottom;
pos = (292,-22);
},
{
name = ogonek;
pos = (463,0);
},
{
name = top;
pos = (362,516);
}
);
hints = (
{
horizontal = 1;
place = (500,-20);
target = down;
type = TopGhost;
},
{
horizontal = 1;
place = (-15,102);
type = Stem;
},
{
horizontal = 1;
place = (-15,91);
type = Stem;
},
{
horizontal = 1;
place = (-15,21);
target = up;
type = BottomGhost;
},
{
place = (347,142);
type = Stem;
},
{
place = (69,149);
type = Stem;
}
);
layerId = m01;
shapes = (
{
closed = 1;
nodes = (
(507,-15,o),
(568,52,o),
(608,118,c),
(577,138,l),
(544,96,o),
(524,76,o),
(506,76,cs),
(496,76,o),
(489,83,o),
(489,96,cs),
(489,107,o),
(491,121,o),
(496,139,cs),
(572,484,l),
(553,500,l),
(419,458,l),
(410,407,o),
(401,358,o),
(391,309,cs),
(357,150,ls),
(356,146,o),
(355,143,o),
(355,139,c),
(313,103,o),
(282,87,o),
(254,87,cs),
(234,87,o),
(218,98,o),
(218,128,cs),
(218,147,o),
(224,170,o),
(230,195,cs),
(298,484,l),
(281,500,l),
(69,436,l),
(62,398,l),
(135,391,l),
(83,165,ls),
(76,131,o),
(69,98,o),
(69,69,cs),
(69,14,o),
(109,-15,o),
(156,-15,cs),
(216,-15,o),
(283,21,o),
(347,87,c),
(347,84,o),
(347,80,o),
(347,76,cs),
(347,18,o),
(380,-15,o),
(424,-15,cs)
);
}
);
width = 591;
}
);
note = u;
unicode = 117;
},
{
glyphname = v;
kernLeft = v;
kernRight = v;
layers = (
{
anchors = (
{
name = bottom;
pos = (221,-22);
},
{
name = top;
pos = (338,513);
}
);
hints = (
{
horizontal = 1;
place = (502,-20);
target = down;
type = TopGhost;
},
{
horizontal = 1;
place = (499,-20);
target = down;
type = TopGhost;
},
{
horizontal = 1;
place = (-1,21);
target = up;
type = BottomGhost;
},
{
horizontal = 1;
place = (-9,21);
target = up;
type = BottomGhost;
},
{
place = (399,143);
type = Stem;
}
);
layerId = m01;
shapes = (
{
closed = 1;
nodes = (
(187,-9,l),
(259,-1,l),
(361,102,o),
(450,215,o),
(499,303,cs),
(535,368,o),
(542,399,o),
(542,427,cs),
(542,458,o),
(539,472,o),
(528,488,c),
(518,495,o),
(501,502,o),
(482,502,cs),
(434,502,o),
(399,475,o),
(399,418,cs),
(399,393,o),
(410,364,o),
(419,338,cs),
(429,305,l),
(390,234,o),
(350,173,o),
(300,108,c),
(293,208,o),
(285,308,o),
(275,402,cs),
(267,467,o),
(244,499,o),
(193,499,cs),
(142,499,o),
(94,460,o),
(40,385,c),
(63,358,l),
(83,383,o),
(98,393,o),
(110,393,cs),
(121,393,o),
(130,389,o),
(134,360,cs),
(150,245,o),
(163,129,o),
(177,-1,c)
);
}
);
width = 522;
}
);
note = v;
unicode = 118;
},
{
glyphname = w;
kernLeft = v;
kernRight = v;
layers = (
{
anchors = (
{
name = bottom;
pos = (365,-22);
},
{
name = top;
pos = (500,516);
}
);
hints = (
{
horizontal = 1;
place = (502,-20);
target = down;
type = TopGhost;
},
{
horizontal = 1;
place = (499,-20);
target = down;
type = TopGhost;
},
{
horizontal = 1;
place = (-1,21);
target = up;
type = BottomGhost;
},
{
horizontal = 1;
place = (-9,21);
target = up;
type = BottomGhost;
},
{
place = (671,144);
type = Stem;
}
);
layerId = m01;
shapes = (
{
closed = 1;
nodes = (
(188,-9,l),
(269,-1,l),
(324,89,o),
(378,193,o),
(423,282,c),
(434,200,o),
(448,74,o),
(458,-1,c),
(468,-9,l),
(541,-1,l),
(641,103,o),
(722,214,o),
(772,303,cs),
(807,367,o),
(815,398,o),
(815,427,cs),
(815,458,o),
(812,472,o),
(801,488,c),
(791,495,o),
(775,502,o),
(756,502,cs),
(709,502,o),
(671,475,o),
(671,418,cs),
(671,393,o),
(683,363,o),
(692,337,cs),
(704,302,l),
(666,235,o),
(629,177,o),
(584,116,c),
(571,219,o),
(556,387,o),
(543,476,c),
(456,476,l),
(404,361,o),
(350,252,o),
(295,147,c),
(290,235,o),
(283,325,o),
(274,405,cs),
(267,469,o),
(244,499,o),
(192,499,cs),
(142,499,o),
(94,460,o),
(40,385,c),
(63,358,l),
(82,382,o),
(98,393,o),
(110,393,cs),
(122,393,o),
(130,389,o),
(134,361,cs),
(149,247,o),
(165,130,o),
(177,-1,c)
);
}
);
width = 796;
}
);
note = w;
unicode = 119;
},
{
glyphname = x;
kernLeft = x;
kernRight = x;
layers = (
{
anchors = (
{
name = bottom;
pos = (246,-22);
},
{
name = top;
pos = (380,516);
}
);
hints = (
{
horizontal = 1;
place = (499,-20);
target = down;
type = TopGhost;
},
{
horizontal = 1;
place = (394,105);
type = Stem;
},
{
horizontal = 1;
place = (362,137);
type = Stem;
},
{
horizontal = 1;
place = (-15,139);
type = Stem;
},
{
horizontal = 1;
place = (-18,94);
type = Stem;
},
{
horizontal = 1;
place = (-15,21);
target = up;
type = BottomGhost;
},
{
horizontal = 1;
place = (-18,21);
target = up;
type = BottomGhost;
},
{
place = (9,612);
type = Stem;
}
);
layerId = m01;
shapes = (
{
closed = 1;
nodes = (
(14,9,o),
(59,-15,o),
(101,-15,cs),
(138,-15,o),
(164,2,o),
(186,30,cs),
(216,66,o),
(243,106,o),
(273,156,c),
(304,64,ls),
(326,2,o),
(358,-18,o),
(404,-18,cs),
(472,-18,o),
(530,42,o),
(573,118,c),
(541,138,l),
(512,99,o),
(487,76,o),
(467,76,cs),
(450,76,o),
(440,84,o),
(429,118,cs),
(374,276,l),
(409,322,o),
(445,368,o),
(480,413,c),
(483,409,ls),
(503,378,o),
(525,362,o),
(556,362,cs),
(592,362,o),
(619,392,o),
(621,437,c),
(611,479,o),
(577,499,o),
(542,499,cs),
(506,499,o),
(476,485,o),
(446,447,cs),
(425,419,o),
(394,375,o),
(359,320,c),
(329,406,ls),
(308,467,o),
(288,499,o),
(232,499,cs),
(182,499,o),
(134,461,o),
(81,385,c),
(104,358,l),
(125,384,o),
(148,394,o),
(165,394,cs),
(186,394,o),
(196,383,o),
(208,348,cs),
(258,200,l),
(223,154,o),
(189,110,o),
(153,65,c),
(131,107,o),
(111,124,o),
(79,124,cs),
(46,124,o),
(21,106,o),
(9,67,c)
);
}
);
width = 578;
}
);
note = x;
unicode = 120;
},
{
glyphname = y;
kernLeft = y;
kernRight = v;
layers = (
{
anchors = (
{
name = bottom;
pos = (44,-242);
},
{
name = top;
pos = (350,513);
}
);
hints = (
{
horizontal = 1;
place = (500,-20);
target = down;
type = TopGhost;
},
{
horizontal = 1;
place = (499,-20);
target = down;
type = TopGhost;
},
{
horizontal = 1;
place = (-227,136);
type = Stem;
},
{
place = (-57,616);
type = Stem;
}
);
layerId = m01;
shapes = (
{
closed = 1;
nodes = (
(-56,-199,o),
(-18,-227,o),
(30,-227,cs),
(87,-227,o),
(139,-191,o),
(190,-138,cs),
(242,-82,o),
(276,-39,o),
(307,4,cs),
(364,79,o),
(402,145,o),
(440,202,cs),
(474,254,o),
(499,300,o),
(521,339,cs),
(544,382,o),
(559,411,o),
(559,446,cs),
(559,480,o),
(530,500,o),
(500,500,cs),
(449,500,o),
(430,467,o),
(401,355,cs),
(375,254,o),
(347,164,o),
(306,60,c),
(296,165,o),
(285,273,o),
(272,386,cs),
(263,468,o),
(244,499,o),
(193,499,cs),
(144,499,o),
(95,462,o),
(40,385,c),
(63,358,l),
(83,383,o),
(98,393,o),
(109,393,cs),
(123,393,o),
(129,387,o),
(136,333,cs),
(159,193,o),
(180,70,o),
(200,-65,c),
(200,-65,o),
(199,-66,o),
(198,-67,cs),
(169,-99,o),
(137,-126,o),
(102,-151,c),
(73,-110,o),
(50,-91,o),
(14,-91,cs),
(-22,-91,o),
(-49,-111,o),
(-57,-147,c)
);
}
);
width = 535;
}
);
note = y;
unicode = 121;
},
{
glyphname = z;
kernLeft = z;
kernRight = z;
lastChange = "2024-07-22 17:49:25 +0000";
layers = (
{
anchors = (
{
name = bottom;
pos = (191,-22);
},
{
name = top;
pos = (317,516);
}
);
hints = (
{
horizontal = 1;
place = (499,-20);
target = down;
type = TopGhost;
},
{
horizontal = 1;
place = (492,-20);
target = down;
type = TopGhost;
},
{
horizontal = 1;
place = (-28,126);
type = Stem;
},
{
horizontal = 1;
place = (0,21);
target = up;
type = BottomGhost;
},
{
horizontal = 1;
place = (-8,21);
target = up;
type = BottomGhost;
},
{
place = (378,110);
type = Stem;
}
);
layerId = m01;
shapes = (
{
closed = 1;
nodes = (
(110,483,l),
(72,331,l),
(152,327,l),
(201,438,l),
(327,438,l),
(9,39,l),
(2,0,l),
(414,0,l),
(456,167,l),
(375,167,l),
(323,46,l),
(191,46,l),
(500,445,l),
(508,483,l)
);
}
);
width = 507;
}
);
note = z;
unicode = 122;
},
{
glyphname = Agrave;
kernLeft = A;
kernRight = A;
layers = (
{
hints = (
{
horizontal = 1;
place = (657,-20);
target = down;
type = TopGhost;
},
{
horizontal = 1;
place = (198,58);
type = Stem;
},
{
horizontal = 1;
place = (0,58.5);
type = Stem;
},
{
horizontal = 1;
place = (0,58);
type = Stem;
},
{
place = (-29,682);
type = Stem;
}
);
layerId = m01;
shapes = (
{
closed = 1;
nodes = (
(222,256,l),
(359,524,l),
(398,256,l)
);
},
{
closed = 1;
nodes = (
(-29,0,l),
(197,0,l),
(208,54,l),
(126,67,l),
(193,198,l),
(406,198,l),
(426,62,l),
(344,54,l),
(333,0,l),
(643,0,l),
(653,54,l),
(574,63,l),
(477,657,l),
(379,657,l),
(68,66,l),
(-18,54,l)
);
},
{
closed = 1;
nodes = (
(484,734,l),
(448,771,o),
(410,808,o),
(375,840,cs),
(342,870,o),
(324,880,o),
(300,880,cs),
(268,880,o),
(246,855,o),
(246,829,cs),
(246,810,o),
(255,784,o),
(304,762,cs),
(356,739,o),
(410,719,o),
(461,700,c)
);
}
);
width = 688;
}
);
note = Agrave;
unicode = 192;
},
{
glyphname = Aacute;
kernLeft = A;
kernRight = A;
layers = (
{
hints = (
{
horizontal = 1;
place = (657,-20);
target = down;
type = TopGhost;
},
{
horizontal = 1;
place = (198,58);
type = Stem;
},
{
horizontal = 1;
place = (0,58.5);
type = Stem;
},
{
horizontal = 1;
place = (0,58);
type = Stem;
},
{
place = (-29,682);
type = Stem;
}
);
layerId = m01;
shapes = (
{
closed = 1;
nodes = (
(222,256,l),
(359,524,l),
(398,256,l)
);
},
{
closed = 1;
nodes = (
(-29,0,l),
(197,0,l),
(208,54,l),
(126,67,l),
(193,198,l),
(406,198,l),
(426,62,l),
(344,54,l),
(333,0,l),
(643,0,l),
(653,54,l),
(574,63,l),
(477,657,l),
(379,657,l),
(68,66,l),
(-18,54,l)
);
},
{
closed = 1;
nodes = (
(398,698,l),
(453,717,o),
(508,738,o),
(563,758,cs),
(614,777,o),
(624,803,o),
(624,826,cs),
(624,851,o),
(605,876,o),
(573,876,cs),
(545,876,o),
(527,868,o),
(493,839,cs),
(454,804,o),
(415,767,o),
(377,731,c)
);
}
);
width = 688;
}
);
note = Aacute;
unicode = 193;
},
{
glyphname = Acircumflex;
kernLeft = A;
kernRight = A;
layers = (
{
hints = (
{
horizontal = 1;
place = (657,-20);
target = down;
type = TopGhost;
},
{
horizontal = 1;
place = (198,58);
type = Stem;
},
{
horizontal = 1;
place = (0,58.5);
type = Stem;
},
{
horizontal = 1;
place = (0,58);
type = Stem;
},
{
place = (-29,682);
type = Stem;
}
);
layerId = m01;
shapes = (
{
closed = 1;
nodes = (
(-29,0,l),
(197,0,l),
(208,54,l),
(126,67,l),
(193,198,l),
(406,198,l),
(426,62,l),
(344,54,l),
(333,0,l),
(643,0,l),
(653,54,l),
(574,63,l),
(477,657,l),
(379,657,l),
(68,66,l),
(-18,54,l)
);
},
{
closed = 1;
nodes = (
(222,256,l),
(359,524,l),
(398,256,l)
);
},
{
closed = 1;
nodes = (
(486,873,l),
(423,873,l),
(261,720,l),
(280,691,l),
(441,785,l),
(573,691,l),
(600,718,l)
);
}
);
width = 688;
}
);
note = Acircumflex;
unicode = 194;
},
{
glyphname = Atilde;
kernLeft = A;
kernRight = A;
layers = (
{
hints = (
{
horizontal = 1;
place = (657,-20);
target = down;
type = TopGhost;
},
{
horizontal = 1;
place = (774,83);
type = Stem;
},
{
horizontal = 1;
place = (705,83);
type = Stem;
},
{
horizontal = 1;
place = (198,58);
type = Stem;
},
{
horizontal = 1;
place = (0,58.5);
type = Stem;
},
{
horizontal = 1;
place = (0,58);
type = Stem;
},
{
place = (-29,682);
type = Stem;
}
);
layerId = m01;
shapes = (
{
closed = 1;
nodes = (
(-29,0,l),
(197,0,l),
(208,54,l),
(126,67,l),
(193,198,l),
(406,198,l),
(426,62,l),
(344,54,l),
(333,0,l),
(643,0,l),
(653,54,l),
(574,63,l),
(477,657,l),
(379,657,l),
(68,66,l),
(-18,54,l)
);
},
{
closed = 1;
nodes = (
(222,256,l),
(359,524,l),
(398,256,l)
);
},
{
closed = 1;
nodes = (
(289,704,l),
(311,754,o),
(332,774,o),
(362,774,cs),
(390,774,o),
(408,753,o),
(427,737,cs),
(448,721,o),
(471,705,o),
(505,705,cs),
(564,705,o),
(610,743,o),
(638,841,c),
(599,858,l),
(576,806,o),
(555,788,o),
(528,788,cs),
(501,788,o),
(484,807,o),
(465,823,cs),
(444,841,o),
(424,857,o),
(384,857,cs),
(329,857,o),
(277,813,o),
(250,721,c)
);
}
);
width = 688;
}
);
note = Atilde;
unicode = 195;
},
{
glyphname = Adieresis;
kernLeft = A;
kernRight = A;
layers = (
{
hints = (
{
horizontal = 1;
place = (657,-20);
target = down;
type = TopGhost;
},
{
horizontal = 1;
place = (716,131);
type = Stem;
},
{
horizontal = 1;
place = (198,58);
type = Stem;
},
{
horizontal = 1;
place = (0,58.5);
type = Stem;
},
{
horizontal = 1;
place = (0,58);
type = Stem;
},
{
place = (488,133);
type = Stem;
},
{
place = (256,133);
type = Stem;
}
);
layerId = m01;
shapes = (
{
closed = 1;
nodes = (
(-29,0,l),
(197,0,l),
(208,54,l),
(126,67,l),
(193,198,l),
(406,198,l),
(426,62,l),
(344,54,l),
(333,0,l),
(643,0,l),
(653,54,l),
(574,63,l),
(477,657,l),
(379,657,l),
(68,66,l),
(-18,54,l)
);
},
{
closed = 1;
nodes = (
(222,256,l),
(359,524,l),
(398,256,l)
);
},
{
closed = 1;
nodes = (
(354,716,o),
(389,743,o),
(389,790,cs),
(389,825,o),
(363,847,o),
(329,847,cs),
(294,847,o),
(256,822,o),
(256,774,cs),
(256,737,o),
(287,716,o),
(317,716,cs)
);
},
{
closed = 1;
nodes = (
(586,716,o),
(621,743,o),
(621,790,cs),
(621,825,o),
(595,847,o),
(561,847,cs),
(526,847,o),
(488,822,o),
(488,774,cs),
(488,737,o),
(519,716,o),
(549,716,cs)
);
}
);
width = 688;
}
);
note = Adieresis;
unicode = 196;
},
{
glyphname = Amacron;
kernLeft = A;
kernRight = A;
layers = (
{
hints = (
{
horizontal = 1;
place = (657,-20);
target = down;
type = TopGhost;
},
{
horizontal = 1;
place = (732,81);
type = Stem;
},
{
horizontal = 1;
place = (198,58);
type = Stem;
},
{
horizontal = 1;
place = (0,58.5);
type = Stem;
},
{
horizontal = 1;
place = (0,58);
type = Stem;
},
{
place = (-29,682);
type = Stem;
}
);
layerId = m01;
shapes = (
{
closed = 1;
nodes = (
(-29,0,l),
(197,0,l),
(208,54,l),
(126,67,l),
(193,198,l),
(406,198,l),
(426,62,l),
(344,54,l),
(333,0,l),
(643,0,l),
(653,54,l),
(574,63,l),
(477,657,l),
(379,657,l),
(68,66,l),
(-18,54,l)
);
},
{
closed = 1;
nodes = (
(277,732,l),
(598,732,l),
(614,813,l),
(293,813,l)
);
},
{
closed = 1;
nodes = (
(222,256,l),
(359,524,l),
(398,256,l)
);
}
);
width = 688;
}
);
note = Amacron;
unicode = 256;
},
{
glyphname = Abreve;
kernLeft = A;
kernRight = A;
layers = (
{
hints = (
{
horizontal = 1;
place = (657,-20);
target = down;
type = TopGhost;
},
{
horizontal = 1;
place = (707,87);
type = Stem;
},
{
horizontal = 1;
place = (198,58);
type = Stem;
},
{
horizontal = 1;
place = (0,58.5);
type = Stem;
},
{
horizontal = 1;
place = (0,58);
type = Stem;
},
{
place = (-29,682);
type = Stem;
}
);
layerId = m01;
shapes = (
{
closed = 1;
nodes = (
(-29,0,l),
(197,0,l),
(208,54,l),
(126,67,l),
(193,198,l),
(406,198,l),
(426,62,l),
(344,54,l),
(333,0,l),
(643,0,l),
(653,54,l),
(574,63,l),
(477,657,l),
(379,657,l),
(68,66,l),
(-18,54,l)
);
},
{
closed = 1;
nodes = (
(222,256,l),
(359,524,l),
(398,256,l)
);
},
{
closed = 1;
nodes = (
(537,707,o),
(587,771,o),
(613,839,c),
(579,858,l),
(544,818,o),
(502,794,o),
(446,794,cs),
(391,794,o),
(343,821,o),
(320,857,c),
(285,841,l),
(298,762,o),
(353,707,o),
(434,707,cs)
);
}
);
width = 688;
}
);
note = Abreve;
unicode = 258;
},
{
glyphname = Aring;
kernLeft = A;
kernRight = A;
layers = (
{
hints = (
{
horizontal = 1;
place = (657,-20);
target = down;
type = TopGhost;
},
{
horizontal = 1;
place = (851,45);
type = Stem;
},
{
horizontal = 1;
place = (698,45);
type = Stem;
},
{
horizontal = 1;
place = (198,58);
type = Stem;
},
{
horizontal = 1;
place = (0,58.5);
type = Stem;
},
{
horizontal = 1;
place = (0,58);
type = Stem;
},
{
place = (491,52);
type = Stem;
},
{
place = (335,53);
type = Stem;
}
);
layerId = m01;
shapes = (
{
closed = 1;
nodes = (
(-29,0,l),
(197,0,l),
(208,54,l),
(126,67,l),
(193,198,l),
(406,198,l),
(426,62,l),
(344,54,l),
(333,0,l),
(643,0,l),
(653,54,l),
(574,63,l),
(477,657,l),
(379,657,l),
(68,66,l),
(-18,54,l)
);
},
{
closed = 1;
nodes = (
(222,256,l),
(359,524,l),
(398,256,l)
);
},
{
closed = 1;
nodes = (
(404,743,o),
(388,764,o),
(388,790,cs),
(388,825,o),
(412,851,o),
(444,851,cs),
(474,851,o),
(491,831,o),
(491,804,cs),
(491,767,o),
(467,743,o),
(435,743,cs)
);
},
{
closed = 1;
nodes = (
(491,698,o),
(543,737,o),
(543,809,cs),
(543,862,o),
(503,896,o),
(447,896,cs),
(389,896,o),
(335,855,o),
(335,786,cs),
(335,729,o),
(382,698,o),
(432,698,cs)
);
}
);
width = 688;
}
);
note = Aring;
unicode = 197;
},
{
glyphname = Aogonek;
kernLeft = A;
kernRight = A;
layers = (
{
anchors = (
{
name = top;
pos = (429,685);
}
);
hints = (
{
horizontal = 1;
place = (657,-20);
target = down;
type = TopGhost;
},
{
horizontal = 1;
place = (198,58);
type = Stem;
},
{
horizontal = 1;
place = (0,58.5);
type = Stem;
},
{
horizontal = 1;
place = (0,58);
type = Stem;
},
{
horizontal = 1;
place = (-234,64);
type = Stem;
},
{
place = (397,94);
type = Stem;
}
);
layerId = m01;
shapes = (
{
closed = 1;
nodes = (
(-29,0,l),
(197,0,l),
(208,54,l),
(126,67,l),
(193,198,l),
(406,198,l),
(426,62,l),
(344,54,l),
(333,0,l),
(507,0,l),
(445,-55,o),
(397,-104,o),
(397,-158,cs),
(397,-204,o),
(429,-234,o),
(486,-234,cs),
(542,-234,o),
(581,-207,o),
(609,-179,c),
(593,-152,l),
(575,-163,o),
(555,-170,o),
(536,-170,cs),
(510,-170,o),
(491,-154,o),
(491,-121,cs),
(491,-83,o),
(512,-47,o),
(549,0,c),
(643,0,l),
(653,54,l),
(574,63,l),
(477,657,l),
(379,657,l),
(68,66,l),
(-18,54,l)
);
},
{
closed = 1;
nodes = (
(222,256,l),
(359,524,l),
(398,256,l)
);
}
);
width = 688;
}
);
note = Aogonek;
unicode = 260;
},
{
glyphname = AE;
kernLeft = AE;
kernRight = E;
layers = (
{
anchors = (
{
name = top;
pos = (651,685);
}
);
hints = (
{
horizontal = 1;
place = (601,56);
type = Stem;
},
{
horizontal = 1;
place = (597.5,59.5);
type = Stem;
},
{
horizontal = 1;
place = (588,69);
type = Stem;
},
{
horizontal = 1;
place = (485,172);
type = Stem;
},
{
horizontal = 1;
place = (308,58);
type = Stem;
},
{
horizontal = 1;
place = (212,59);
type = Stem;
},
{
horizontal = 1;
place = (0,172);
type = Stem;
},
{
horizontal = 1;
place = (0,58);
type = Stem;
},
{
horizontal = 1;
place = (0,56);
type = Stem;
},
{
place = (-32,951);
type = Stem;
}
);
layerId = m01;
shapes = (
{
closed = 1;
nodes = (
(439,271,l),
(272,271,l),
(487,588,l),
(495,588,l),
(482,508,o),
(468,427,o),
(453,347,cs)
);
},
{
closed = 1;
nodes = (
(-32,0,l),
(198,0,l),
(208,54,l),
(132,65,l),
(232,212,l),
(427,212,l),
(399,62,l),
(320,54,l),
(309,0,l),
(830,0,l),
(869,172,l),
(791,172,l),
(749,56,l),
(549,56,l),
(564,140,o),
(579,224,o),
(595,308,c),
(708,308,l),
(705,232,l),
(760,232,l),
(801,447,l),
(746,447,l),
(718,366,l),
(606,366,l),
(650,601,l),
(817,601,l),
(815,485,l),
(893,485,l),
(919,657,l),
(338,657,l),
(327,603,l),
(428,592,l),
(63,67,l),
(-21,54,l)
);
}
);
width = 898;
}
);
note = AE;
unicode = 198;
},
{
glyphname = Ccedilla;
kernLeft = C;
kernRight = C;
layers = (
{
hints = (
{
horizontal = 1;
place = (618,58);
type = Stem;
},
{
horizontal = 1;
place = (-18,57);
type = Stem;
},
{
horizontal = 1;
place = (-19,58);
type = Stem;
},
{
horizontal = 1;
place = (-232,48);
type = Stem;
},
{
place = (355,78);
type = Stem;
},
{
place = (46,158);
type = Stem;
}
);
layerId = m01;
shapes = (
{
closed = 1;
nodes = (
(287,-90,l),
(328,-98,o),
(355,-114,o),
(355,-143,cs),
(355,-168,o),
(333,-184,o),
(302,-184,cs),
(283,-184,o),
(263,-179,o),
(244,-170,c),
(226,-208,l),
(246,-222,o),
(280,-232,o),
(318,-232,cs),
(394,-232,o),
(433,-193,o),
(433,-150,cs),
(433,-107,o),
(406,-82,o),
(343,-62,c),
(364,-19,l),
(442,-16,o),
(502,5,o),
(548,31,c),
(574,185,l),
(497,185,l),
(447,50,l),
(425,43,o),
(404,39,o),
(382,39,cs),
(266,39,o),
(204,135,o),
(204,266,cs),
(204,453,o),
(303,618,o),
(449,618,cs),
(479,618,o),
(506,611,o),
(530,597,c),
(532,471,l),
(610,471,l),
(633,624,l),
(568,660,o),
(511,676,o),
(439,676,cs),
(204,676,o),
(46,496,o),
(46,274,cs),
(46,93,o),
(158,-9,o),
(322,-18,c)
);
}
);
width = 602;
}
);
note = Ccedilla;
unicode = 199;
},
{
glyphname = Cacute;
kernLeft = C;
kernRight = C;
layers = (
{
hints = (
{
horizontal = 1;
place = (618,58);
type = Stem;
},
{
horizontal = 1;
place = (-19,58);
type = Stem;
},
{
place = (46,158);
type = Stem;
}
);
layerId = m01;
shapes = (
{
closed = 1;
nodes = (
(434,-19,o),
(499,3,o),
(548,31,c),
(574,185,l),
(497,185,l),
(447,50,l),
(425,43,o),
(404,39,o),
(382,39,cs),
(266,39,o),
(204,135,o),
(204,266,cs),
(204,453,o),
(303,618,o),
(449,618,cs),
(479,618,o),
(506,611,o),
(530,597,c),
(532,471,l),
(610,471,l),
(633,624,l),
(568,660,o),
(511,676,o),
(439,676,cs),
(204,676,o),
(46,496,o),
(46,274,cs),
(46,84,o),
(169,-19,o),
(347,-19,cs)
);
},
{
closed = 1;
nodes = (
(426,705,l),
(481,724,o),
(536,745,o),
(591,765,cs),
(642,784,o),
(652,810,o),
(652,833,cs),
(652,858,o),
(633,883,o),
(601,883,cs),
(573,883,o),
(555,875,o),
(521,846,cs),
(482,811,o),
(443,774,o),
(405,738,c)
);
}
);
width = 602;
}
);
note = Cacute;
unicode = 262;
},
{
glyphname = Ccaron;
kernLeft = C;
kernRight = C;
layers = (
{
hints = (
{
horizontal = 1;
place = (618,58);
type = Stem;
},
{
horizontal = 1;
place = (-19,58);
type = Stem;
},
{
place = (46,158);
type = Stem;
}
);
layerId = m01;
shapes = (
{
closed = 1;
nodes = (
(434,-19,o),
(499,3,o),
(548,31,c),
(574,185,l),
(497,185,l),
(447,50,l),
(425,43,o),
(404,39,o),
(382,39,cs),
(266,39,o),
(204,135,o),
(204,266,cs),
(204,453,o),
(303,618,o),
(449,618,cs),
(479,618,o),
(506,611,o),
(530,597,c),
(532,471,l),
(610,471,l),
(633,624,l),
(568,660,o),
(511,676,o),
(439,676,cs),
(204,676,o),
(46,496,o),
(46,274,cs),
(46,84,o),
(169,-19,o),
(347,-19,cs)
);
},
{
closed = 1;
nodes = (
(330,893,l),
(297,868,l),
(408,712,l),
(488,712,l),
(637,867,l),
(613,896,l),
(460,793,l)
);
}
);
width = 602;
}
);
note = Ccaron;
unicode = 268;
},
{
glyphname = Dcaron;
kernLeft = B;
kernRight = D;
layers = (
{
hints = (
{
horizontal = 1;
place = (601,56);
type = Stem;
},
{
horizontal = 1;
place = (599,58);
type = Stem;
},
{
horizontal = 1;
place = (0,58.5);
type = Stem;
},
{
horizontal = 1;
place = (0,56);
type = Stem;
},
{
place = (532,159);
type = Stem;
}
);
layerId = m01;
shapes = (
{
closed = 1;
nodes = (
(108,603,l),
(186,595,l),
(172,512,o),
(157,429,o),
(142,347,cs),
(88,63,l),
(9,54,l),
(-2,0,l),
(287,0,ls),
(511,0,o),
(690,146,o),
(691,378,cs),
(691,535,o),
(586,657,o),
(387,657,cs),
(119,657,l)
);
},
{
closed = 1;
nodes = (
(339,601,l),
(341,601,ls),
(469,601,o),
(532,524,o),
(532,390,cs),
(532,206,o),
(434,56,o),
(274,56,cs),
(238,56,l),
(253,141,o),
(269,226,o),
(285,311,cs)
);
},
{
closed = 1;
nodes = (
(269,886,l),
(236,861,l),
(347,705,l),
(427,705,l),
(576,860,l),
(552,889,l),
(399,786,l)
);
}
);
width = 689;
}
);
note = Dcaron;
unicode = 270;
},
{
glyphname = Dcroat;
kernLeft = B;
kernRight = D;
layers = (
{
hints = (
{
horizontal = 1;
place = (601,56);
type = Stem;
},
{
horizontal = 1;
place = (599,58);
type = Stem;
},
{
horizontal = 1;
place = (308,58);
type = Stem;
},
{
horizontal = 1;
place = (0,58.5);
type = Stem;
},
{
horizontal = 1;
place = (0,56);
type = Stem;
},
{
place = (532,159);
type = Stem;
}
);
layerId = m01;
shapes = (
{
closed = 1;
nodes = (
(108,603,l),
(186,595,l),
(173,519,o),
(159,442,o),
(145,366,c),
(57,366,l),
(46,308,l),
(135,308,l),
(88,63,l),
(9,54,l),
(-2,0,l),
(287,0,ls),
(511,0,o),
(690,146,o),
(691,378,cs),
(691,535,o),
(586,657,o),
(387,657,cs),
(119,657,l)
);
},
{
closed = 1;
nodes = (
(408,308,l),
(419,366,l),
(295,366,l),
(339,601,l),
(341,601,ls),
(469,601,o),
(532,524,o),
(532,390,cs),
(532,206,o),
(434,56,o),
(274,56,cs),
(238,56,l),
(253,140,o),
(268,224,o),
(284,308,c)
);
}
);
width = 689;
}
);
note = Dcroat;
unicode = 272;
},
{
glyphname = Egrave;
kernLeft = B;
kernRight = E;
layers = (
{
hints = (
{
horizontal = 1;
place = (601,56);
type = Stem;
},
{
horizontal = 1;
place = (599,58);
type = Stem;
},
{
horizontal = 1;
place = (485,172);
type = Stem;
},
{
horizontal = 1;
place = (308,58);
type = Stem;
},
{
horizontal = 1;
place = (0,172);
type = Stem;
},
{
horizontal = 1;
place = (0,58);
type = Stem;
},
{
horizontal = 1;
place = (0,56);
type = Stem;
},
{
place = (-2,607);
type = Stem;
}
);
layerId = m01;
shapes = (
{
closed = 1;
nodes = (
(108,603,l),
(186,595,l),
(172,512,o),
(157,429,o),
(142,347,cs),
(88,62,l),
(9,54,l),
(-2,0,l),
(519,0,l),
(558,172,l),
(479,172,l),
(438,56,l),
(238,56,l),
(253,140,o),
(268,224,o),
(284,308,c),
(397,308,l),
(394,232,l),
(449,232,l),
(490,447,l),
(435,447,l),
(407,366,l),
(295,366,l),
(339,601,l),
(503,601,l),
(501,485,l),
(580,485,l),
(605,657,l),
(119,657,l)
);
},
{
closed = 1;
nodes = (
(464,734,l),
(428,771,o),
(390,808,o),
(355,840,cs),
(322,870,o),
(304,880,o),
(280,880,cs),
(248,880,o),
(226,855,o),
(226,829,cs),
(226,810,o),
(235,784,o),
(284,762,cs),
(336,739,o),
(390,719,o),
(441,700,c)
);
}
);
width = 587;
}
);
note = Egrave;
unicode = 200;
},
{
glyphname = Eacute;
kernLeft = B;
kernRight = E;
layers = (
{
hints = (
{
horizontal = 1;
place = (601,56);
type = Stem;
},
{
horizontal = 1;
place = (599,58);
type = Stem;
},
{
horizontal = 1;
place = (485,172);
type = Stem;
},
{
horizontal = 1;
place = (308,58);
type = Stem;
},
{
horizontal = 1;
place = (0,172);
type = Stem;
},
{
horizontal = 1;
place = (0,58);
type = Stem;
},
{
horizontal = 1;
place = (0,56);
type = Stem;
},
{
place = (-2,607);
type = Stem;
}
);
layerId = m01;
shapes = (
{
closed = 1;
nodes = (
(108,603,l),
(186,595,l),
(172,512,o),
(157,429,o),
(142,347,cs),
(88,62,l),
(9,54,l),
(-2,0,l),
(519,0,l),
(558,172,l),
(479,172,l),
(438,56,l),
(238,56,l),
(253,140,o),
(268,224,o),
(284,308,c),
(397,308,l),
(394,232,l),
(449,232,l),
(490,447,l),
(435,447,l),
(407,366,l),
(295,366,l),
(339,601,l),
(503,601,l),
(501,485,l),
(580,485,l),
(605,657,l),
(119,657,l)
);
},
{
closed = 1;
nodes = (
(361,698,l),
(416,717,o),
(471,738,o),
(526,758,cs),
(577,777,o),
(587,803,o),
(587,826,cs),
(587,851,o),
(568,876,o),
(536,876,cs),
(508,876,o),
(490,868,o),
(456,839,cs),
(417,804,o),
(378,767,o),
(340,731,c)
);
}
);
width = 587;
}
);
note = Eacute;
unicode = 201;
},
{
glyphname = Ecircumflex;
kernLeft = B;
kernRight = E;
layers = (
{
hints = (
{
horizontal = 1;
place = (601,56);
type = Stem;
},
{
horizontal = 1;
place = (599,58);
type = Stem;
},
{
horizontal = 1;
place = (485,172);
type = Stem;
},
{
horizontal = 1;
place = (308,58);
type = Stem;
},
{
horizontal = 1;
place = (0,172);
type = Stem;
},
{
horizontal = 1;
place = (0,58);
type = Stem;
},
{
horizontal = 1;
place = (0,56);
type = Stem;
},
{
place = (-2,607);
type = Stem;
}
);
layerId = m01;
shapes = (
{
closed = 1;
nodes = (
(108,603,l),
(186,595,l),
(172,512,o),
(157,429,o),
(142,347,cs),
(88,62,l),
(9,54,l),
(-2,0,l),
(519,0,l),
(558,172,l),
(479,172,l),
(438,56,l),
(238,56,l),
(253,140,o),
(268,224,o),
(284,308,c),
(397,308,l),
(394,232,l),
(449,232,l),
(490,447,l),
(435,447,l),
(407,366,l),
(295,366,l),
(339,601,l),
(503,601,l),
(501,485,l),
(580,485,l),
(605,657,l),
(119,657,l)
);
},
{
closed = 1;
nodes = (
(442,873,l),
(379,873,l),
(217,720,l),
(236,691,l),
(397,785,l),
(529,691,l),
(556,718,l)
);
}
);
width = 587;
}
);
note = Ecircumflex;
unicode = 202;
},
{
glyphname = Ecaron;
kernLeft = B;
kernRight = E;
layers = (
{
hints = (
{
horizontal = 1;
place = (601,56);
type = Stem;
},
{
horizontal = 1;
place = (599,58);
type = Stem;
},
{
horizontal = 1;
place = (485,172);
type = Stem;
},
{
horizontal = 1;
place = (308,58);
type = Stem;
},
{
horizontal = 1;
place = (0,172);
type = Stem;
},
{
horizontal = 1;
place = (0,58);
type = Stem;
},
{
horizontal = 1;
place = (0,56);
type = Stem;
},
{
place = (-2,607);
type = Stem;
}
);
layerId = m01;
shapes = (
{
closed = 1;
nodes = (
(108,603,l),
(186,595,l),
(172,512,o),
(157,429,o),
(142,347,cs),
(88,62,l),
(9,54,l),
(-2,0,l),
(519,0,l),
(558,172,l),
(479,172,l),
(438,56,l),
(238,56,l),
(253,140,o),
(268,224,o),
(284,308,c),
(397,308,l),
(394,232,l),
(449,232,l),
(490,447,l),
(435,447,l),
(407,366,l),
(295,366,l),
(339,601,l),
(503,601,l),
(501,485,l),
(580,485,l),
(605,657,l),
(119,657,l)
);
},
{
closed = 1;
nodes = (
(276,886,l),
(243,861,l),
(354,705,l),
(434,705,l),
(583,860,l),
(559,889,l),
(406,786,l)
);
}
);
width = 587;
}
);
note = Ecaron;
unicode = 282;
},
{
glyphname = Edieresis;
kernLeft = B;
kernRight = E;
layers = (
{
hints = (
{
horizontal = 1;
place = (716,131);
type = Stem;
},
{
horizontal = 1;
place = (601,56);
type = Stem;
},
{
horizontal = 1;
place = (599,58);
type = Stem;
},
{
horizontal = 1;
place = (485,172);
type = Stem;
},
{
horizontal = 1;
place = (308,58);
type = Stem;
},
{
horizontal = 1;
place = (0,172);
type = Stem;
},
{
horizontal = 1;
place = (0,58);
type = Stem;
},
{
horizontal = 1;
place = (0,56);
type = Stem;
},
{
place = (459,133);
type = Stem;
},
{
place = (227,133);
type = Stem;
}
);
layerId = m01;
shapes = (
{
closed = 1;
nodes = (
(108,603,l),
(186,595,l),
(172,512,o),
(157,429,o),
(142,347,cs),
(88,62,l),
(9,54,l),
(-2,0,l),
(519,0,l),
(558,172,l),
(479,172,l),
(438,56,l),
(238,56,l),
(253,140,o),
(268,224,o),
(284,308,c),
(397,308,l),
(394,232,l),
(449,232,l),
(490,447,l),
(435,447,l),
(407,366,l),
(295,366,l),
(339,601,l),
(503,601,l),
(501,485,l),
(580,485,l),
(605,657,l),
(119,657,l)
);
},
{
closed = 1;
nodes = (
(325,716,o),
(360,743,o),
(360,790,cs),
(360,825,o),
(334,847,o),
(300,847,cs),
(265,847,o),
(227,822,o),
(227,774,cs),
(227,737,o),
(258,716,o),
(288,716,cs)
);
},
{
closed = 1;
nodes = (
(557,716,o),
(592,743,o),
(592,790,cs),
(592,825,o),
(566,847,o),
(532,847,cs),
(497,847,o),
(459,822,o),
(459,774,cs),
(459,737,o),
(490,716,o),
(520,716,cs)
);
}
);
width = 587;
}
);
note = Edieresis;
unicode = 203;
},
{
glyphname = Emacron;
kernLeft = B;
kernRight = E;
layers = (
{
hints = (
{
horizontal = 1;
place = (732,81);
type = Stem;
},
{
horizontal = 1;
place = (601,56);
type = Stem;
},
{
horizontal = 1;
place = (599,58);
type = Stem;
},
{
horizontal = 1;
place = (485,172);
type = Stem;
},
{
horizontal = 1;
place = (308,58);
type = Stem;
},
{
horizontal = 1;
place = (0,172);
type = Stem;
},
{
horizontal = 1;
place = (0,58);
type = Stem;
},
{
horizontal = 1;
place = (0,56);
type = Stem;
},
{
place = (-2,607);
type = Stem;
}
);
layerId = m01;
shapes = (
{
closed = 1;
nodes = (
(108,603,l),
(186,595,l),
(172,512,o),
(157,429,o),
(142,347,cs),
(88,62,l),
(9,54,l),
(-2,0,l),
(519,0,l),
(558,172,l),
(479,172,l),
(438,56,l),
(238,56,l),
(253,140,o),
(268,224,o),
(284,308,c),
(397,308,l),
(394,232,l),
(449,232,l),
(490,447,l),
(435,447,l),
(407,366,l),
(295,366,l),
(339,601,l),
(503,601,l),
(501,485,l),
(580,485,l),
(605,657,l),
(119,657,l)
);
},
{
closed = 1;
nodes = (
(250,732,l),
(571,732,l),
(587,813,l),
(266,813,l)
);
}
);
width = 587;
}
);
note = Emacron;
unicode = 274;
},
{
glyphname = Edotaccent;
kernLeft = B;
kernRight = E;
layers = (
{
hints = (
{
horizontal = 1;
place = (714,148);
type = Stem;
},
{
horizontal = 1;
place = (601,56);
type = Stem;
},
{
horizontal = 1;
place = (599,58);
type = Stem;
},
{
horizontal = 1;
place = (485,172);
type = Stem;
},
{
horizontal = 1;
place = (308,58);
type = Stem;
},
{
horizontal = 1;
place = (0,172);
type = Stem;
},
{
horizontal = 1;
place = (0,58);
type = Stem;
},
{
horizontal = 1;
place = (0,56);
type = Stem;
},
{
place = (326,141);
type = Stem;
}
);
layerId = m01;
shapes = (
{
closed = 1;
nodes = (
(108,603,l),
(186,595,l),
(172,512,o),
(157,429,o),
(142,347,cs),
(88,62,l),
(9,54,l),
(-2,0,l),
(519,0,l),
(558,172,l),
(479,172,l),
(438,56,l),
(238,56,l),
(253,140,o),
(268,224,o),
(284,308,c),
(397,308,l),
(394,232,l),
(449,232,l),
(490,447,l),
(435,447,l),
(407,366,l),
(295,366,l),
(339,601,l),
(503,601,l),
(501,485,l),
(580,485,l),
(605,657,l),
(119,657,l)
);
},
{
closed = 1;
nodes = (
(429,714,o),
(467,749,o),
(467,795,cs),
(467,834,o),
(442,862,o),
(404,862,cs),
(363,862,o),
(326,827,o),
(326,780,cs),
(326,738,o),
(352,714,o),
(389,714,cs)
);
}
);
width = 587;
}
);
note = Edotaccent;
unicode = 278;
},
{
glyphname = Eogonek;
kernLeft = B;
kernRight = E;
layers = (
{
anchors = (
{
name = top;
pos = (386,685);
}
);
hints = (
{
horizontal = 1;
place = (601,56);
type = Stem;
},
{
horizontal = 1;
place = (599,58);
type = Stem;
},
{
horizontal = 1;
place = (485,172);
type = Stem;
},
{
horizontal = 1;
place = (308,58);
type = Stem;
},
{
horizontal = 1;
place = (0,172);
type = Stem;
},
{
horizontal = 1;
place = (0,58);
type = Stem;
},
{
horizontal = 1;
place = (0,56);
type = Stem;
},
{
horizontal = 1;
place = (-234,64);
type = Stem;
},
{
place = (280,94);
type = Stem;
}
);
layerId = m01;
shapes = (
{
closed = 1;
nodes = (
(108,603,l),
(186,595,l),
(172,512,o),
(157,429,o),
(142,347,cs),
(88,62,l),
(9,54,l),
(-2,0,l),
(390,0,l),
(328,-55,o),
(280,-104,o),
(280,-158,cs),
(280,-204,o),
(312,-234,o),
(369,-234,cs),
(425,-234,o),
(464,-207,o),
(492,-179,c),
(476,-152,l),
(458,-163,o),
(438,-170,o),
(419,-170,cs),
(393,-170,o),
(374,-154,o),
(374,-121,cs),
(374,-83,o),
(395,-47,o),
(432,0,c),
(519,0,l),
(558,172,l),
(479,172,l),
(438,56,l),
(238,56,l),
(253,140,o),
(268,224,o),
(284,308,c),
(397,308,l),
(394,232,l),
(449,232,l),
(490,447,l),
(435,447,l),
(407,366,l),
(295,366,l),
(339,601,l),
(503,601,l),
(501,485,l),
(580,485,l),
(605,657,l),
(119,657,l)
);
}
);
width = 587;
}
);
note = Eogonek;
unicode = 280;
},
{
glyphname = Gbreve;
kernLeft = C;
kernRight = G;
layers = (
{
hints = (
{
horizontal = 1;
place = (714,87);
type = Stem;
},
{
horizontal = 1;
place = (618,58);
type = Stem;
},
{
horizontal = 1;
place = (272.5,57.5);
type = Stem;
},
{
horizontal = 1;
place = (-17,54);
type = Stem;
},
{
place = (46,158);
type = Stem;
}
);
layerId = m01;
shapes = (
{
closed = 1;
nodes = (
(46,86,o),
(163,-17,o),
(360,-17,cs),
(439,-17,o),
(492,-2,o),
(550,24,c),
(597,268,l),
(662,277,l),
(672,330,l),
(365,330,l),
(355,277,l),
(445,263,l),
(436,204,o),
(426,144,o),
(416,85,cs),
(409,38,l),
(402,37,o),
(395,37,o),
(387,37,cs),
(272,37,o),
(204,125,o),
(204,266,cs),
(204,446,o),
(303,618,o),
(458,618,cs),
(483,618,o),
(507,614,o),
(531,606,c),
(538,465,l),
(614,465,l),
(637,620,l),
(578,658,o),
(510,676,o),
(441,676,cs),
(211,676,o),
(46,501,o),
(46,273,cs)
);
},
{
closed = 1;
nodes = (
(575,714,o),
(625,778,o),
(651,846,c),
(617,865,l),
(582,825,o),
(540,801,o),
(484,801,cs),
(429,801,o),
(381,828,o),
(358,864,c),
(323,848,l),
(336,769,o),
(391,714,o),
(472,714,cs)
);
}
);
width = 660;
}
);
note = Gbreve;
unicode = 286;
},
{
glyphname = Gdotaccent;
kernLeft = C;
kernRight = G;
layers = (
{
hints = (
{
horizontal = 1;
place = (718,148);
type = Stem;
},
{
horizontal = 1;
place = (618,58);
type = Stem;
},
{
horizontal = 1;
place = (272.5,57.5);
type = Stem;
},
{
horizontal = 1;
place = (-17,54);
type = Stem;
},
{
place = (393,141);
type = Stem;
},
{
place = (46,158);
type = Stem;
}
);
layerId = m01;
shapes = (
{
closed = 1;
nodes = (
(46,86,o),
(163,-17,o),
(360,-17,cs),
(439,-17,o),
(492,-2,o),
(550,24,c),
(597,268,l),
(662,277,l),
(672,330,l),
(365,330,l),
(355,277,l),
(445,263,l),
(436,204,o),
(426,144,o),
(416,85,cs),
(409,38,l),
(402,37,o),
(395,37,o),
(387,37,cs),
(272,37,o),
(204,125,o),
(204,266,cs),
(204,446,o),
(303,618,o),
(458,618,cs),
(483,618,o),
(507,614,o),
(531,606,c),
(538,465,l),
(614,465,l),
(637,620,l),
(578,658,o),
(510,676,o),
(441,676,cs),
(211,676,o),
(46,501,o),
(46,273,cs)
);
},
{
closed = 1;
nodes = (
(496,718,o),
(534,753,o),
(534,799,cs),
(534,838,o),
(509,866,o),
(471,866,cs),
(430,866,o),
(393,831,o),
(393,784,cs),
(393,742,o),
(419,718,o),
(456,718,cs)
);
}
);
width = 660;
}
);
note = Gdotaccent;
unicode = 288;
},
{
glyphname = uni0122;
kernLeft = C;
kernRight = G;
layers = (
{
hints = (
{
horizontal = 1;
place = (618,58);
type = Stem;
},
{
horizontal = 1;
place = (272.5,57.5);
type = Stem;
},
{
horizontal = 1;
place = (-17,54);
type = Stem;
},
{
place = (259,132);
type = Stem;
},
{
place = (46,158);
type = Stem;
}
);
layerId = m01;
shapes = (
{
closed = 1;
nodes = (
(46,86,o),
(163,-17,o),
(360,-17,cs),
(439,-17,o),
(492,-2,o),
(550,24,c),
(597,268,l),
(662,277,l),
(672,330,l),
(365,330,l),
(355,277,l),
(445,263,l),
(436,204,o),
(426,144,o),
(416,85,cs),
(409,38,l),
(402,37,o),
(395,37,o),
(387,37,cs),
(272,37,o),
(204,125,o),
(204,266,cs),
(204,446,o),
(303,618,o),
(458,618,cs),
(483,618,o),
(507,614,o),
(531,606,c),
(538,465,l),
(614,465,l),
(637,620,l),
(578,658,o),
(510,676,o),
(441,676,cs),
(211,676,o),
(46,501,o),
(46,273,cs)
);
},
{
closed = 1;
nodes = (
(264,-266,l),
(342,-227,o),
(391,-182,o),
(391,-121,cs),
(391,-99,o),
(388,-88,o),
(380,-72,c),
(360,-56,o),
(343,-51,o),
(324,-51,cs),
(288,-51,o),
(259,-78,o),
(259,-117,cs),
(259,-143,o),
(275,-163,o),
(302,-187,c),
(287,-203,o),
(268,-216,o),
(243,-231,c)
);
}
);
width = 660;
}
);
note = uni0122;
unicode = 290;
},
{
glyphname = Igrave;
kernLeft = B;
kernRight = H;
layers = (
{
hints = (
{
horizontal = 1;
place = (599,58);
type = Stem;
},
{
horizontal = 1;
place = (598.5,58.5);
type = Stem;
},
{
horizontal = 1;
place = (0,58.5);
type = Stem;
},
{
horizontal = 1;
place = (0,58);
type = Stem;
},
{
place = (-2,431);
type = Stem;
}
);
layerId = m01;
shapes = (
{
closed = 1;
nodes = (
(108,603,l),
(186,595,l),
(172,512,o),
(157,429,o),
(142,347,cs),
(88,62,l),
(9,54,l),
(-2,0,l),
(307,0,l),
(318,54,l),
(240,63,l),
(254,145,o),
(269,228,o),
(285,311,cs),
(338,594,l),
(418,603,l),
(429,657,l),
(119,657,l)
);
},
{
closed = 1;
nodes = (
(349,734,l),
(313,771,o),
(275,808,o),
(240,840,cs),
(207,870,o),
(189,880,o),
(165,880,cs),
(133,880,o),
(111,855,o),
(111,829,cs),
(111,810,o),
(120,784,o),
(169,762,cs),
(221,739,o),
(275,719,o),
(326,700,c)
);
}
);
width = 376;
}
);
note = Igrave;
unicode = 204;
},
{
glyphname = Iacute;
kernLeft = B;
kernRight = H;
layers = (
{
hints = (
{
horizontal = 1;
place = (599,58);
type = Stem;
},
{
horizontal = 1;
place = (598.5,58.5);
type = Stem;
},
{
horizontal = 1;
place = (0,58.5);
type = Stem;
},
{
horizontal = 1;
place = (0,58);
type = Stem;
},
{
place = (-2,468);
type = Stem;
}
);
layerId = m01;
shapes = (
{
closed = 1;
nodes = (
(108,603,l),
(186,595,l),
(172,512,o),
(157,429,o),
(142,347,cs),
(88,62,l),
(9,54,l),
(-2,0,l),
(307,0,l),
(318,54,l),
(240,63,l),
(254,145,o),
(269,228,o),
(285,311,cs),
(338,594,l),
(418,603,l),
(429,657,l),
(119,657,l)
);
},
{
closed = 1;
nodes = (
(240,698,l),
(295,717,o),
(350,738,o),
(405,758,cs),
(456,777,o),
(466,803,o),
(466,826,cs),
(466,851,o),
(447,876,o),
(415,876,cs),
(387,876,o),
(369,868,o),
(335,839,cs),
(296,804,o),
(257,767,o),
(219,731,c)
);
}
);
width = 376;
}
);
note = Iacute;
unicode = 205;
},
{
glyphname = Icircumflex;
kernLeft = B;
kernRight = H;
layers = (
{
hints = (
{
horizontal = 1;
place = (599,58);
type = Stem;
},
{
horizontal = 1;
place = (598.5,58.5);
type = Stem;
},
{
horizontal = 1;
place = (0,58.5);
type = Stem;
},
{
horizontal = 1;
place = (0,58);
type = Stem;
},
{
place = (-2,450);
type = Stem;
}
);
layerId = m01;
shapes = (
{
closed = 1;
nodes = (
(108,603,l),
(186,595,l),
(172,512,o),
(157,429,o),
(142,347,cs),
(88,62,l),
(9,54,l),
(-2,0,l),
(307,0,l),
(318,54,l),
(240,63,l),
(254,145,o),
(269,228,o),
(285,311,cs),
(338,594,l),
(418,603,l),
(429,657,l),
(119,657,l)
);
},
{
closed = 1;
nodes = (
(334,873,l),
(271,873,l),
(109,720,l),
(128,691,l),
(289,785,l),
(421,691,l),
(448,718,l)
);
}
);
width = 376;
}
);
note = Icircumflex;
unicode = 206;
},
{
glyphname = Idieresis;
kernLeft = B;
kernRight = H;
layers = (
{
hints = (
{
horizontal = 1;
place = (716,131);
type = Stem;
},
{
horizontal = 1;
place = (599,58);
type = Stem;
},
{
horizontal = 1;
place = (598.5,58.5);
type = Stem;
},
{
horizontal = 1;
place = (0,58.5);
type = Stem;
},
{
horizontal = 1;
place = (0,58);
type = Stem;
},
{
place = (340,133);
type = Stem;
},
{
place = (108,133);
type = Stem;
}
);
layerId = m01;
shapes = (
{
closed = 1;
nodes = (
(108,603,l),
(186,595,l),
(172,512,o),
(157,429,o),
(142,347,cs),
(88,62,l),
(9,54,l),
(-2,0,l),
(307,0,l),
(318,54,l),
(240,63,l),
(254,145,o),
(269,228,o),
(285,311,cs),
(338,594,l),
(418,603,l),
(429,657,l),
(119,657,l)
);
},
{
closed = 1;
nodes = (
(206,716,o),
(241,743,o),
(241,790,cs),
(241,825,o),
(215,847,o),
(181,847,cs),
(146,847,o),
(108,822,o),
(108,774,cs),
(108,737,o),
(139,716,o),
(169,716,cs)
);
},
{
closed = 1;
nodes = (
(438,716,o),
(473,743,o),
(473,790,cs),
(473,825,o),
(447,847,o),
(413,847,cs),
(378,847,o),
(340,822,o),
(340,774,cs),
(340,737,o),
(371,716,o),
(401,716,cs)
);
}
);
width = 376;
}
);
note = Idieresis;
unicode = 207;
},
{
glyphname = Imacron;
kernLeft = B;
kernRight = H;
layers = (
{
hints = (
{
horizontal = 1;
place = (732,81);
type = Stem;
},
{
horizontal = 1;
place = (599,58);
type = Stem;
},
{
horizontal = 1;
place = (598.5,58.5);
type = Stem;
},
{
horizontal = 1;
place = (0,58.5);
type = Stem;
},
{
horizontal = 1;
place = (0,58);
type = Stem;
},
{
place = (-2,464);
type = Stem;
}
);
layerId = m01;
shapes = (
{
closed = 1;
nodes = (
(108,603,l),
(186,595,l),
(172,512,o),
(157,429,o),
(142,347,cs),
(88,62,l),
(9,54,l),
(-2,0,l),
(307,0,l),
(318,54,l),
(240,63,l),
(254,145,o),
(269,228,o),
(285,311,cs),
(338,594,l),
(418,603,l),
(429,657,l),
(119,657,l)
);
},
{
closed = 1;
nodes = (
(125,732,l),
(446,732,l),
(462,813,l),
(141,813,l)
);
}
);
width = 376;
}
);
note = Imacron;
unicode = 298;
},
{
glyphname = Idotaccent;
kernLeft = B;
kernRight = H;
layers = (
{
hints = (
{
horizontal = 1;
place = (707,148);
type = Stem;
},
{
horizontal = 1;
place = (599,58);
type = Stem;
},
{
horizontal = 1;
place = (598.5,58.5);
type = Stem;
},
{
horizontal = 1;
place = (0,58.5);
type = Stem;
},
{
horizontal = 1;
place = (0,58);
type = Stem;
},
{
place = (223,141);
type = Stem;
}
);
layerId = m01;
shapes = (
{
closed = 1;
nodes = (
(108,603,l),
(186,595,l),
(172,512,o),
(157,429,o),
(142,347,cs),
(88,62,l),
(9,54,l),
(-2,0,l),
(307,0,l),
(318,54,l),
(240,63,l),
(254,145,o),
(269,228,o),
(285,311,cs),
(338,594,l),
(418,603,l),
(429,657,l),
(119,657,l)
);
},
{
closed = 1;
nodes = (
(326,707,o),
(364,742,o),
(364,788,cs),
(364,827,o),
(339,855,o),
(301,855,cs),
(260,855,o),
(223,820,o),
(223,773,cs),
(223,731,o),
(249,707,o),
(286,707,cs)
);
}
);
width = 376;
}
);
note = Idotaccent;
unicode = 304;
},
{
glyphname = Iogonek;
kernLeft = B;
kernRight = H;
layers = (
{
anchors = (
{
name = top;
pos = (273,685);
}
);
hints = (
{
horizontal = 1;
place = (599,58);
type = Stem;
},
{
horizontal = 1;
place = (598.5,58.5);
type = Stem;
},
{
horizontal = 1;
place = (0,58.5);
type = Stem;
},
{
horizontal = 1;
place = (0,58);
type = Stem;
},
{
horizontal = 1;
place = (-234,64);
type = Stem;
},
{
place = (37,94);
type = Stem;
}
);
layerId = m01;
shapes = (
{
closed = 1;
nodes = (
(108,603,l),
(186,595,l),
(172,512,o),
(157,429,o),
(142,347,cs),
(88,62,l),
(9,54,l),
(-2,0,l),
(147,0,l),
(85,-55,o),
(37,-104,o),
(37,-158,cs),
(37,-204,o),
(69,-234,o),
(126,-234,cs),
(182,-234,o),
(221,-207,o),
(249,-179,c),
(233,-152,l),
(215,-163,o),
(195,-170,o),
(176,-170,cs),
(150,-170,o),
(131,-154,o),
(131,-121,cs),
(131,-83,o),
(152,-47,o),
(189,0,c),
(307,0,l),
(318,54,l),
(240,63,l),
(254,145,o),
(269,228,o),
(285,311,cs),
(338,594,l),
(418,603,l),
(429,657,l),
(119,657,l)
);
}
);
width = 376;
}
);
note = Iogonek;
unicode = 302;
},
{
glyphname = uni0136;
kernLeft = B;
kernRight = K;
layers = (
{
hints = (
{
horizontal = 1;
place = (599,58);
type = Stem;
},
{
horizontal = 1;
place = (0,58);
type = Stem;
},
{
horizontal = 1;
place = (0,57);
type = Stem;
},
{
place = (252,132);
type = Stem;
}
);
layerId = m01;
shapes = (
{
closed = 1;
nodes = (
(501,603,l),
(559,592,l),
(281,321,l),
(333,595,l),
(407,603,l),
(418,657,l),
(117,657,l),
(106,603,l),
(180,595,l),
(167,512,o),
(152,429,o),
(136,347,cs),
(82,62,l),
(7,54,l),
(-4,0,l),
(286,0,l),
(297,54,l),
(234,62,l),
(244,124,o),
(255,186,o),
(267,248,c),
(323,302,l),
(441,60,l),
(392,54,l),
(382,0,l),
(660,0,l),
(670,54,l),
(607,62,l),
(431,404,l),
(628,590,l),
(723,603,l),
(734,657,l),
(512,657,l)
);
},
{
closed = 1;
nodes = (
(257,-266,l),
(335,-227,o),
(384,-182,o),
(384,-121,cs),
(384,-99,o),
(381,-88,o),
(373,-72,c),
(353,-56,o),
(336,-51,o),
(317,-51,cs),
(281,-51,o),
(252,-78,o),
(252,-117,cs),
(252,-143,o),
(268,-163,o),
(295,-187,c),
(280,-203,o),
(261,-216,o),
(236,-231,c)
);
}
);
width = 681;
}
);
note = uni0136;
unicode = 310;
},
{
glyphname = Lacute;
kernLeft = B;
kernRight = L;
layers = (
{
hints = (
{
horizontal = 1;
place = (599,58);
type = Stem;
},
{
horizontal = 1;
place = (598.5,58.5);
type = Stem;
},
{
horizontal = 1;
place = (0,196);
type = Stem;
},
{
horizontal = 1;
place = (0,58.5);
type = Stem;
},
{
horizontal = 1;
place = (0,57);
type = Stem;
},
{
place = (-2,549);
type = Stem;
}
);
layerId = m01;
shapes = (
{
closed = 1;
nodes = (
(108,603,l),
(186,595,l),
(172,512,o),
(157,429,o),
(142,347,cs),
(88,63,l),
(9,54,l),
(-2,0,l),
(503,0,l),
(547,196,l),
(471,196,l),
(419,57,l),
(239,57,l),
(253,141,o),
(269,226,o),
(285,311,cs),
(338,594,l),
(426,603,l),
(437,657,l),
(119,657,l)
);
},
{
closed = 1;
nodes = (
(291,698,l),
(346,717,o),
(401,738,o),
(456,758,cs),
(507,777,o),
(517,803,o),
(517,826,cs),
(517,851,o),
(498,876,o),
(466,876,cs),
(438,876,o),
(420,868,o),
(386,839,cs),
(347,804,o),
(308,767,o),
(270,731,c)
);
}
);
width = 565;
}
);
note = Lacute;
unicode = 313;
},
{
glyphname = Lcaron;
kernLeft = B;
kernRight = L;
layers = (
{
hints = (
{
horizontal = 1;
place = (599,58);
type = Stem;
},
{
horizontal = 1;
place = (598.5,58.5);
type = Stem;
},
{
horizontal = 1;
place = (0,196);
type = Stem;
},
{
horizontal = 1;
place = (0,58.5);
type = Stem;
},
{
horizontal = 1;
place = (0,57);
type = Stem;
},
{
place = (-2,635);
type = Stem;
}
);
layerId = m01;
shapes = (
{
closed = 1;
nodes = (
(568,719,o),
(555,716,o),
(535,707,c),
(489,482,l),
(536,478,l),
(581,557,ls),
(608,604,o),
(633,648,o),
(633,682,cs),
(633,700,o),
(620,719,o),
(586,719,cs)
);
},
{
closed = 1;
nodes = (
(108,603,l),
(186,595,l),
(172,512,o),
(157,429,o),
(142,347,cs),
(88,63,l),
(9,54,l),
(-2,0,l),
(503,0,l),
(547,196,l),
(471,196,l),
(419,57,l),
(239,57,l),
(253,141,o),
(269,226,o),
(285,311,cs),
(338,594,l),
(426,603,l),
(437,657,l),
(119,657,l)
);
}
);
width = 565;
}
);
note = Lcaron;
unicode = 317;
},
{
glyphname = uni013B;
kernLeft = B;
kernRight = L;
layers = (
{
hints = (
{
horizontal = 1;
place = (599,58);
type = Stem;
},
{
horizontal = 1;
place = (598.5,58.5);
type = Stem;
},
{
horizontal = 1;
place = (0,196);
type = Stem;
},
{
horizontal = 1;
place = (0,58.5);
type = Stem;
},
{
horizontal = 1;
place = (0,57);
type = Stem;
},
{
place = (184,132);
type = Stem;
}
);
layerId = m01;
shapes = (
{
closed = 1;
nodes = (
(189,-266,l),
(267,-227,o),
(316,-182,o),
(316,-121,cs),
(316,-99,o),
(313,-88,o),
(305,-72,c),
(285,-56,o),
(268,-51,o),
(249,-51,cs),
(213,-51,o),
(184,-78,o),
(184,-117,cs),
(184,-143,o),
(200,-163,o),
(227,-187,c),
(212,-203,o),
(193,-216,o),
(168,-231,c)
);
},
{
closed = 1;
nodes = (
(-2,0,l),
(503,0,l),
(547,196,l),
(471,196,l),
(419,57,l),
(239,57,l),
(253,141,o),
(269,226,o),
(285,311,cs),
(338,594,l),
(426,603,l),
(437,657,l),
(119,657,l),
(108,603,l),
(186,595,l),
(172,512,o),
(157,429,o),
(142,347,cs),
(88,63,l),
(9,54,l)
);
}
);
width = 565;
}
);
note = uni013B;
unicode = 315;
},
{
glyphname = Ldot;
kernLeft = B;
layers = (
{
hints = (
{
horizontal = 1;
place = (599,58);
type = Stem;
},
{
horizontal = 1;
place = (598.5,58.5);
type = Stem;
},
{
horizontal = 1;
place = (292,174);
type = Stem;
},
{
horizontal = 1;
place = (0,196);
type = Stem;
},
{
horizontal = 1;
place = (0,58.5);
type = Stem;
},
{
horizontal = 1;
place = (0,57);
type = Stem;
},
{
place = (405,179);
type = Stem;
}
);
layerId = m01;
shapes = (
{
closed = 1;
nodes = (
(108,603,l),
(186,595,l),
(172,512,o),
(157,429,o),
(142,347,cs),
(88,63,l),
(9,54,l),
(-2,0,l),
(503,0,l),
(547,196,l),
(471,196,l),
(419,57,l),
(239,57,l),
(253,141,o),
(269,226,o),
(285,311,cs),
(338,594,l),
(426,603,l),
(437,657,l),
(119,657,l)
);
},
{
closed = 1;
nodes = (
(539,292,o),
(584,332,o),
(584,386,cs),
(584,430,o),
(551,466,o),
(503,466,cs),
(451,466,o),
(405,424,o),
(405,370,cs),
(405,328,o),
(439,292,o),
(487,292,cs)
);
}
);
width = 565;
}
);
note = Ldot;
unicode = 319;
},
{
glyphname = Lslash;
kernLeft = B;
kernRight = L;
layers = (
{
hints = (
{
horizontal = 1;
place = (599,58);
type = Stem;
},
{
horizontal = 1;
place = (598.5,58.5);
type = Stem;
},
{
horizontal = 1;
place = (0,196);
type = Stem;
},
{
horizontal = 1;
place = (0,58.5);
type = Stem;
},
{
horizontal = 1;
place = (0,57);
type = Stem;
},
{
place = (-2,549);
type = Stem;
}
);
layerId = m01;
shapes = (
{
closed = 1;
nodes = (
(108,603,l),
(186,595,l),
(172,512,o),
(157,429,o),
(142,347,cs),
(138,328,l),
(39,281,l),
(24,200,l),
(123,247,l),
(88,63,l),
(9,54,l),
(-2,0,l),
(503,0,l),
(547,196,l),
(471,196,l),
(419,57,l),
(239,57,l),
(253,141,o),
(269,226,o),
(285,311,cs),
(286,318,l),
(438,391,l),
(453,472,l),
(301,398,l),
(338,594,l),
(426,603,l),
(437,657,l),
(119,657,l)
);
}
);
width = 565;
}
);
note = Lslash;
unicode = 321;
},
{
glyphname = Nacute;
kernLeft = M;
kernRight = N;
layers = (
{
hints = (
{
horizontal = 1;
place = (599.5,57.5);
type = Stem;
},
{
horizontal = 1;
place = (0,54);
type = Stem;
},
{
horizontal = 1;
place = (-3,21);
target = up;
type = BottomGhost;
},
{
place = (-9,775);
type = Stem;
}
);
layerId = m01;
shapes = (
{
closed = 1;
nodes = (
(501,603,l),
(612,590,l),
(541,209,l),
(308,657,l),
(108,657,l),
(97,603,l),
(172,596,l),
(181,579,l),
(84,66,l),
(1,54,l),
(-9,0,l),
(244,0,l),
(254,54,l),
(146,67,l),
(226,492,l),
(481,-3,l),
(562,-3,l),
(673,590,l),
(755,603,l),
(766,657,l),
(512,657,l)
);
},
{
closed = 1;
nodes = (
(394,695,l),
(449,714,o),
(504,735,o),
(559,755,cs),
(610,774,o),
(620,800,o),
(620,823,cs),
(620,848,o),
(601,873,o),
(569,873,cs),
(541,873,o),
(523,865,o),
(489,836,cs),
(450,801,o),
(411,764,o),
(373,728,c)
);
}
);
width = 701;
}
);
note = Nacute;
unicode = 323;
},
{
glyphname = Ncaron;
kernLeft = M;
kernRight = N;
layers = (
{
hints = (
{
horizontal = 1;
place = (599.5,57.5);
type = Stem;
},
{
horizontal = 1;
place = (0,54);
type = Stem;
},
{
horizontal = 1;
place = (-3,21);
target = up;
type = BottomGhost;
},
{
place = (-9,775);
type = Stem;
}
);
layerId = m01;
shapes = (
{
closed = 1;
nodes = (
(501,603,l),
(612,590,l),
(541,209,l),
(308,657,l),
(108,657,l),
(97,603,l),
(172,596,l),
(181,579,l),
(84,66,l),
(1,54,l),
(-9,0,l),
(244,0,l),
(254,54,l),
(146,67,l),
(226,492,l),
(481,-3,l),
(562,-3,l),
(673,590,l),
(755,603,l),
(766,657,l),
(512,657,l)
);
},
{
closed = 1;
nodes = (
(316,883,l),
(283,858,l),
(394,702,l),
(474,702,l),
(623,857,l),
(599,886,l),
(446,783,l)
);
}
);
width = 701;
}
);
note = Ncaron;
unicode = 327;
},
{
glyphname = Ntilde;
kernLeft = M;
kernRight = N;
layers = (
{
hints = (
{
horizontal = 1;
place = (774,83);
type = Stem;
},
{
horizontal = 1;
place = (705,83);
type = Stem;
},
{
horizontal = 1;
place = (599.5,57.5);
type = Stem;
},
{
horizontal = 1;
place = (0,54);
type = Stem;
},
{
horizontal = 1;
place = (-3,21);
target = up;
type = BottomGhost;
},
{
place = (-9,775);
type = Stem;
}
);
layerId = m01;
shapes = (
{
closed = 1;
nodes = (
(501,603,l),
(612,590,l),
(541,209,l),
(308,657,l),
(108,657,l),
(97,603,l),
(172,596,l),
(181,579,l),
(84,66,l),
(1,54,l),
(-9,0,l),
(244,0,l),
(254,54,l),
(146,67,l),
(226,492,l),
(481,-3,l),
(562,-3,l),
(673,590,l),
(755,603,l),
(766,657,l),
(512,657,l)
);
},
{
closed = 1;
nodes = (
(312,704,l),
(334,754,o),
(355,774,o),
(385,774,cs),
(413,774,o),
(431,753,o),
(450,737,cs),
(471,721,o),
(494,705,o),
(528,705,cs),
(587,705,o),
(633,743,o),
(661,841,c),
(622,858,l),
(599,806,o),
(578,788,o),
(551,788,cs),
(524,788,o),
(507,807,o),
(488,823,cs),
(467,841,o),
(447,857,o),
(407,857,cs),
(352,857,o),
(300,813,o),
(273,721,c)
);
}
);
width = 701;
}
);
note = Ntilde;
unicode = 209;
},
{
glyphname = uni0145;
kernLeft = M;
kernRight = N;
layers = (
{
hints = (
{
horizontal = 1;
place = (599.5,57.5);
type = Stem;
},
{
horizontal = 1;
place = (0,54);
type = Stem;
},
{
horizontal = 1;
place = (-3,21);
target = up;
type = BottomGhost;
},
{
place = (247,132);
type = Stem;
}
);
layerId = m01;
shapes = (
{
closed = 1;
nodes = (
(501,603,l),
(612,590,l),
(541,209,l),
(308,657,l),
(108,657,l),
(97,603,l),
(172,596,l),
(181,579,l),
(84,66,l),
(1,54,l),
(-9,0,l),
(244,0,l),
(254,54,l),
(146,67,l),
(226,492,l),
(481,-3,l),
(562,-3,l),
(673,590,l),
(755,603,l),
(766,657,l),
(512,657,l)
);
},
{
closed = 1;
nodes = (
(252,-266,l),
(330,-227,o),
(379,-182,o),
(379,-121,cs),
(379,-99,o),
(376,-88,o),
(368,-72,c),
(348,-56,o),
(331,-51,o),
(312,-51,cs),
(276,-51,o),
(247,-78,o),
(247,-117,cs),
(247,-143,o),
(263,-163,o),
(290,-187,c),
(275,-203,o),
(256,-216,o),
(231,-231,c)
);
}
);
width = 701;
}
);
note = uni0145;
unicode = 325;
},
{
glyphname = uni1E44;
kernLeft = M;
kernRight = N;
layers = (
{
hints = (
{
horizontal = 1;
place = (707,148);
type = Stem;
},
{
horizontal = 1;
place = (599.5,57.5);
type = Stem;
},
{
horizontal = 1;
place = (0,54);
type = Stem;
},
{
horizontal = 1;
place = (-3,21);
target = up;
type = BottomGhost;
},
{
place = (379,141);
type = Stem;
}
);
layerId = m01;
shapes = (
{
closed = 1;
nodes = (
(501,603,l),
(612,590,l),
(541,209,l),
(308,657,l),
(108,657,l),
(97,603,l),
(172,596,l),
(181,579,l),
(84,66,l),
(1,54,l),
(-9,0,l),
(244,0,l),
(254,54,l),
(146,67,l),
(226,492,l),
(481,-3,l),
(562,-3,l),
(673,590,l),
(755,603,l),
(766,657,l),
(512,657,l)
);
},
{
closed = 1;
nodes = (
(482,707,o),
(520,742,o),
(520,788,cs),
(520,827,o),
(495,855,o),
(457,855,cs),
(416,855,o),
(379,820,o),
(379,773,cs),
(379,731,o),
(405,707,o),
(442,707,cs)
);
}
);
width = 701;
}
);
note = uni1E44;
unicode = 7748;
},
{
glyphname = Ograve;
kernLeft = C;
kernRight = O;
layers = (
{
hints = (
{
horizontal = 1;
place = (618,57);
type = Stem;
},
{
horizontal = 1;
place = (-18,57);
type = Stem;
},
{
place = (520,155);
type = Stem;
},
{
place = (46,154);
type = Stem;
}
);
layerId = m01;
shapes = (
{
closed = 1;
nodes = (
(532,-18,o),
(675,178,o),
(675,402,cs),
(675,570,o),
(573,675,o),
(422,675,cs),
(189,675,o),
(46,474,o),
(46,258,cs),
(46,72,o),
(154,-18,o),
(298,-18,cs)
);
},
{
closed = 1;
nodes = (
(233,39,o),
(200,104,o),
(200,228,cs),
(200,442,o),
(299,618,o),
(412,618,cs),
(491,618,o),
(520,555,o),
(520,434,cs),
(520,221,o),
(423,39,o),
(310,39,cs)
);
},
{
closed = 1;
nodes = (
(488,734,l),
(452,771,o),
(414,808,o),
(379,840,cs),
(346,870,o),
(328,880,o),
(304,880,cs),
(272,880,o),
(250,855,o),
(250,829,cs),
(250,810,o),
(259,784,o),
(308,762,cs),
(360,739,o),
(414,719,o),
(465,700,c)
);
}
);
width = 669;
}
);
note = Ograve;
unicode = 210;
},
{
glyphname = Oacute;
kernLeft = C;
kernRight = O;
layers = (
{
hints = (
{
horizontal = 1;
place = (618,57);
type = Stem;
},
{
horizontal = 1;
place = (-18,57);
type = Stem;
},
{
place = (520,155);
type = Stem;
},
{
place = (46,154);
type = Stem;
}
);
layerId = m01;
shapes = (
{
closed = 1;
nodes = (
(532,-18,o),
(675,178,o),
(675,402,cs),
(675,570,o),
(573,675,o),
(422,675,cs),
(189,675,o),
(46,474,o),
(46,258,cs),
(46,72,o),
(154,-18,o),
(298,-18,cs)
);
},
{
closed = 1;
nodes = (
(233,39,o),
(200,104,o),
(200,228,cs),
(200,442,o),
(299,618,o),
(412,618,cs),
(491,618,o),
(520,555,o),
(520,434,cs),
(520,221,o),
(423,39,o),
(310,39,cs)
);
},
{
closed = 1;
nodes = (
(393,705,l),
(448,724,o),
(503,745,o),
(558,765,cs),
(609,784,o),
(619,810,o),
(619,833,cs),
(619,858,o),
(600,883,o),
(568,883,cs),
(540,883,o),
(522,875,o),
(488,846,cs),
(449,811,o),
(410,774,o),
(372,738,c)
);
}
);
width = 669;
}
);
note = Oacute;
unicode = 211;
},
{
glyphname = Ocircumflex;
kernLeft = C;
kernRight = O;
layers = (
{
hints = (
{
horizontal = 1;
place = (618,57);
type = Stem;
},
{
horizontal = 1;
place = (-18,57);
type = Stem;
},
{
place = (520,155);
type = Stem;
},
{
place = (46,154);
type = Stem;
}
);
layerId = m01;
shapes = (
{
closed = 1;
nodes = (
(233,39,o),
(200,104,o),
(200,228,cs),
(200,442,o),
(299,618,o),
(412,618,cs),
(491,618,o),
(520,555,o),
(520,434,cs),
(520,221,o),
(423,39,o),
(310,39,cs)
);
},
{
closed = 1;
nodes = (
(532,-18,o),
(675,178,o),
(675,402,cs),
(675,570,o),
(573,675,o),
(422,675,cs),
(189,675,o),
(46,474,o),
(46,258,cs),
(46,72,o),
(154,-18,o),
(298,-18,cs)
);
},
{
closed = 1;
nodes = (
(484,873,l),
(421,873,l),
(259,720,l),
(278,691,l),
(439,785,l),
(571,691,l),
(598,718,l)
);
}
);
width = 669;
}
);
note = Ocircumflex;
unicode = 212;
},
{
glyphname = Otilde;
kernLeft = C;
kernRight = O;
layers = (
{
hints = (
{
horizontal = 1;
place = (774,83);
type = Stem;
},
{
horizontal = 1;
place = (705,83);
type = Stem;
},
{
horizontal = 1;
place = (618,57);
type = Stem;
},
{
horizontal = 1;
place = (-18,57);
type = Stem;
},
{
place = (520,155);
type = Stem;
},
{
place = (46,154);
type = Stem;
}
);
layerId = m01;
shapes = (
{
closed = 1;
nodes = (
(532,-18,o),
(675,178,o),
(675,402,cs),
(675,570,o),
(573,675,o),
(422,675,cs),
(189,675,o),
(46,474,o),
(46,258,cs),
(46,72,o),
(154,-18,o),
(298,-18,cs)
);
},
{
closed = 1;
nodes = (
(233,39,o),
(200,104,o),
(200,228,cs),
(200,442,o),
(299,618,o),
(412,618,cs),
(491,618,o),
(520,555,o),
(520,434,cs),
(520,221,o),
(423,39,o),
(310,39,cs)
);
},
{
closed = 1;
nodes = (
(282,704,l),
(304,754,o),
(325,774,o),
(355,774,cs),
(383,774,o),
(401,753,o),
(420,737,cs),
(441,721,o),
(464,705,o),
(498,705,cs),
(557,705,o),
(603,743,o),
(631,841,c),
(592,858,l),
(569,806,o),
(548,788,o),
(521,788,cs),
(494,788,o),
(477,807,o),
(458,823,cs),
(437,841,o),
(417,857,o),
(377,857,cs),
(322,857,o),
(270,813,o),
(243,721,c)
);
}
);
width = 669;
}
);
note = Otilde;
unicode = 213;
},
{
glyphname = Odieresis;
kernLeft = C;
kernRight = O;
layers = (
{
hints = (
{
horizontal = 1;
place = (716,131);
type = Stem;
},
{
horizontal = 1;
place = (618,57);
type = Stem;
},
{
horizontal = 1;
place = (-18,57);
type = Stem;
},
{
place = (520,155);
type = Stem;
},
{
place = (475,133);
type = Stem;
},
{
place = (243,133);
type = Stem;
},
{
place = (46,154);
type = Stem;
}
);
layerId = m01;
shapes = (
{
closed = 1;
nodes = (
(532,-18,o),
(675,178,o),
(675,402,cs),
(675,570,o),
(573,675,o),
(422,675,cs),
(189,675,o),
(46,474,o),
(46,258,cs),
(46,72,o),
(154,-18,o),
(298,-18,cs)
);
},
{
closed = 1;
nodes = (
(233,39,o),
(200,104,o),
(200,228,cs),
(200,442,o),
(299,618,o),
(412,618,cs),
(491,618,o),
(520,555,o),
(520,434,cs),
(520,221,o),
(423,39,o),
(310,39,cs)
);
},
{
closed = 1;
nodes = (
(341,716,o),
(376,743,o),
(376,790,cs),
(376,825,o),
(350,847,o),
(316,847,cs),
(281,847,o),
(243,822,o),
(243,774,cs),
(243,737,o),
(274,716,o),
(304,716,cs)
);
},
{
closed = 1;
nodes = (
(573,716,o),
(608,743,o),
(608,790,cs),
(608,825,o),
(582,847,o),
(548,847,cs),
(513,847,o),
(475,822,o),
(475,774,cs),
(475,737,o),
(506,716,o),
(536,716,cs)
);
}
);
width = 669;
}
);
note = Odieresis;
unicode = 214;
},
{
glyphname = Omacron;
kernLeft = C;
kernRight = O;
layers = (
{
hints = (
{
horizontal = 1;
place = (732,81);
type = Stem;
},
{
horizontal = 1;
place = (618,57);
type = Stem;
},
{
horizontal = 1;
place = (-18,57);
type = Stem;
},
{
place = (520,155);
type = Stem;
},
{
place = (46,154);
type = Stem;
}
);
layerId = m01;
shapes = (
{
closed = 1;
nodes = (
(532,-18,o),
(675,178,o),
(675,402,cs),
(675,570,o),
(573,675,o),
(422,675,cs),
(189,675,o),
(46,474,o),
(46,258,cs),
(46,72,o),
(154,-18,o),
(298,-18,cs)
);
},
{
closed = 1;
nodes = (
(233,39,o),
(200,104,o),
(200,228,cs),
(200,442,o),
(299,618,o),
(412,618,cs),
(491,618,o),
(520,555,o),
(520,434,cs),
(520,221,o),
(423,39,o),
(310,39,cs)
);
},
{
closed = 1;
nodes = (
(271,732,l),
(592,732,l),
(608,813,l),
(287,813,l)
);
}
);
width = 669;
}
);
note = Omacron;
unicode = 332;
},
{
glyphname = Ohungarumlaut;
kernLeft = C;
kernRight = O;
layers = (
{
hints = (
{
horizontal = 1;
place = (618,57);
type = Stem;
},
{
horizontal = 1;
place = (-18,57);
type = Stem;
},
{
place = (520,155);
type = Stem;
},
{
place = (46,154);
type = Stem;
}
);
layerId = m01;
shapes = (
{
closed = 1;
nodes = (
(532,-18,o),
(675,178,o),
(675,402,cs),
(675,570,o),
(573,675,o),
(422,675,cs),
(189,675,o),
(46,474,o),
(46,258,cs),
(46,72,o),
(154,-18,o),
(298,-18,cs)
);
},
{
closed = 1;
nodes = (
(233,39,o),
(200,104,o),
(200,228,cs),
(200,442,o),
(299,618,o),
(412,618,cs),
(491,618,o),
(520,555,o),
(520,434,cs),
(520,221,o),
(423,39,o),
(310,39,cs)
);
},
{
closed = 1;
nodes = (
(309,725,l),
(344,699,l),
(463,803,ls),
(484,821,o),
(494,836,o),
(494,857,cs),
(494,880,o),
(473,893,o),
(449,893,cs),
(426,893,o),
(406,880,o),
(389,853,cs)
);
},
{
closed = 1;
nodes = (
(495,725,l),
(530,699,l),
(650,803,ls),
(670,821,o),
(680,836,o),
(680,857,cs),
(680,880,o),
(659,893,o),
(635,893,cs),
(612,893,o),
(592,880,o),
(575,853,cs)
);
}
);
width = 669;
}
);
note = Ohungarumlaut;
unicode = 336;
},
{
glyphname = Oslash;
kernLeft = C;
kernRight = O;
layers = (
{
anchors = (
{
name = top;
pos = (423,685);
}
);
hints = (
{
horizontal = 1;
place = (618,57);
type = Stem;
},
{
horizontal = 1;
place = (-18,57);
type = Stem;
},
{
place = (528,147);
type = Stem;
},
{
place = (46,146);
type = Stem;
}
);
layerId = m01;
shapes = (
{
closed = 1;
nodes = (
(696,645,l),
(647,691,l),
(582,623,l),
(540,657,o),
(485,675,o),
(422,675,cs),
(189,675,o),
(46,474,o),
(46,258,cs),
(46,192,o),
(59,139,o),
(83,97,c),
(3,12,l),
(53,-34,l),
(126,43,l),
(170,2,o),
(230,-18,o),
(298,-18,cs),
(532,-18,o),
(675,178,o),
(675,402,cs),
(675,470,o),
(658,528,o),
(628,573,c)
);
},
{
closed = 1;
nodes = (
(192,441,o),
(294,618,o),
(413,618,cs),
(465,618,o),
(496,596,o),
(513,550,c),
(192,211,l),
(192,216,o),
(192,222,o),
(192,227,cs)
);
},
{
closed = 1;
nodes = (
(254,39,o),
(219,66,o),
(203,125,c),
(527,467,l),
(528,457,o),
(528,447,o),
(528,436,cs),
(528,223,o),
(427,39,o),
(309,39,cs)
);
}
);
width = 669;
}
);
note = Oslash;
unicode = 216;
},
{
glyphname = OE;
kernLeft = C;
kernRight = E;
layers = (
{
anchors = (
{
name = top;
pos = (588,685);
}
);
hints = (
{
horizontal = 1;
place = (618,58);
type = Stem;
},
{
horizontal = 1;
place = (601,56);
type = Stem;
},
{
horizontal = 1;
place = (485,172);
type = Stem;
},
{
horizontal = 1;
place = (308,58);
type = Stem;
},
{
horizontal = 1;
place = (0,172);
type = Stem;
},
{
horizontal = 1;
place = (0,56);
type = Stem;
},
{
horizontal = 1;
place = (-19,58);
type = Stem;
},
{
place = (46,156);
type = Stem;
}
);
layerId = m01;
shapes = (
{
closed = 1;
nodes = (
(202,457,o),
(312,618,o),
(456,618,cs),
(468,618,o),
(479,618,o),
(488,617,c),
(473,527,o),
(458,437,o),
(441,347,cs),
(383,41,l),
(372,40,o),
(362,39,o),
(354,39,cs),
(273,39,o),
(202,109,o),
(202,244,cs)
);
},
{
closed = 1;
nodes = (
(818,0,l),
(857,172,l),
(779,172,l),
(737,56,l),
(538,56,l),
(552,140,o),
(567,224,o),
(583,308,c),
(696,308,l),
(693,225,l),
(748,225,l),
(789,447,l),
(734,447,l),
(706,366,l),
(594,366,l),
(639,601,l),
(802,601,l),
(800,485,l),
(879,485,l),
(904,657,l),
(580,657,l),
(533,670,o),
(498,676,o),
(459,676,cs),
(213,676,o),
(46,471,o),
(46,263,cs),
(46,69,o),
(164,-19,o),
(328,-19,cs),
(379,-19,o),
(411,-12,o),
(453,0,c)
);
}
);
width = 886;
}
);
note = OE;
unicode = 338;
},
{
glyphname = Racute;
kernLeft = B;
kernRight = R;
layers = (
{
hints = (
{
horizontal = 1;
place = (599,58);
type = Stem;
},
{
horizontal = 1;
place = (302,57.5);
type = Stem;
},
{
horizontal = 1;
place = (0,58.5);
type = Stem;
},
{
horizontal = 1;
place = (0,58);
type = Stem;
},
{
horizontal = 1;
place = (-14,21);
target = up;
type = BottomGhost;
},
{
place = (484,147);
type = Stem;
}
);
layerId = m01;
shapes = (
{
closed = 1;
nodes = (
(108,603,l),
(186,595,l),
(172,512,o),
(157,429,o),
(142,347,cs),
(88,62,l),
(9,54,l),
(-2,0,l),
(307,0,l),
(318,54,l),
(240,63,l),
(253,142,o),
(268,222,o),
(283,302,c),
(301,302,ls),
(358,302,o),
(377,275,o),
(391,206,cs),
(416,90,l),
(429,12,o),
(469,-14,o),
(550,-14,cs),
(586,-14,o),
(604,-11,o),
(647,0,c),
(657,54,l),
(579,63,l),
(553,163,ls),
(532,252,o),
(521,303,o),
(434,328,c),
(578,354,o),
(631,432,o),
(631,505,cs),
(631,597,o),
(564,657,o),
(432,657,cs),
(119,657,l)
);
},
{
closed = 1;
nodes = (
(382,599,ls),
(447,599,o),
(484,567,o),
(484,509,cs),
(484,432,o),
(443,362,o),
(332,360,cs),
(294,359,l),
(339,599,l)
);
},
{
closed = 1;
nodes = (
(385,698,l),
(440,717,o),
(495,738,o),
(550,758,cs),
(601,777,o),
(611,803,o),
(611,826,cs),
(611,851,o),
(592,876,o),
(560,876,cs),
(532,876,o),
(514,868,o),
(480,839,cs),
(441,804,o),
(402,767,o),
(364,731,c)
);
}
);
width = 667;
}
);
note = Racute;
unicode = 340;
},
{
glyphname = Rcaron;
kernLeft = B;
kernRight = R;
layers = (
{
hints = (
{
horizontal = 1;
place = (599,58);
type = Stem;
},
{
horizontal = 1;
place = (302,57.5);
type = Stem;
},
{
horizontal = 1;
place = (0,58.5);
type = Stem;
},
{
horizontal = 1;
place = (0,58);
type = Stem;
},
{
horizontal = 1;
place = (-14,21);
target = up;
type = BottomGhost;
},
{
place = (484,147);
type = Stem;
}
);
layerId = m01;
shapes = (
{
closed = 1;
nodes = (
(108,603,l),
(186,595,l),
(172,512,o),
(157,429,o),
(142,347,cs),
(88,62,l),
(9,54,l),
(-2,0,l),
(307,0,l),
(318,54,l),
(240,63,l),
(253,142,o),
(268,222,o),
(283,302,c),
(301,302,ls),
(358,302,o),
(377,275,o),
(391,206,cs),
(416,90,l),
(429,12,o),
(469,-14,o),
(550,-14,cs),
(586,-14,o),
(604,-11,o),
(647,0,c),
(657,54,l),
(579,63,l),
(553,163,ls),
(532,252,o),
(521,303,o),
(434,328,c),
(578,354,o),
(631,432,o),
(631,505,cs),
(631,597,o),
(564,657,o),
(432,657,cs),
(119,657,l)
);
},
{
closed = 1;
nodes = (
(382,599,ls),
(447,599,o),
(484,567,o),
(484,509,cs),
(484,432,o),
(443,362,o),
(332,360,cs),
(294,359,l),
(339,599,l)
);
},
{
closed = 1;
nodes = (
(282,886,l),
(249,861,l),
(360,705,l),
(440,705,l),
(589,860,l),
(565,889,l),
(412,786,l)
);
}
);
width = 667;
}
);
note = Rcaron;
unicode = 344;
},
{
glyphname = uni0156;
kernLeft = B;
kernRight = R;
layers = (
{
hints = (
{
horizontal = 1;
place = (599,58);
type = Stem;
},
{
horizontal = 1;
place = (302,57.5);
type = Stem;
},
{
horizontal = 1;
place = (0,58.5);
type = Stem;
},
{
horizontal = 1;
place = (0,58);
type = Stem;
},
{
horizontal = 1;
place = (-14,21);
target = up;
type = BottomGhost;
},
{
place = (484,147);
type = Stem;
},
{
place = (264,132);
type = Stem;
}
);
layerId = m01;
shapes = (
{
closed = 1;
nodes = (
(108,603,l),
(186,595,l),
(172,512,o),
(157,429,o),
(142,347,cs),
(88,62,l),
(9,54,l),
(-2,0,l),
(307,0,l),
(318,54,l),
(240,63,l),
(253,142,o),
(268,222,o),
(283,302,c),
(301,302,ls),
(358,302,o),
(377,275,o),
(391,206,cs),
(416,90,l),
(429,12,o),
(469,-14,o),
(550,-14,cs),
(586,-14,o),
(604,-11,o),
(647,0,c),
(657,54,l),
(579,63,l),
(553,163,ls),
(532,252,o),
(521,303,o),
(434,328,c),
(578,354,o),
(631,432,o),
(631,505,cs),
(631,597,o),
(564,657,o),
(432,657,cs),
(119,657,l)
);
},
{
closed = 1;
nodes = (
(382,599,ls),
(447,599,o),
(484,567,o),
(484,509,cs),
(484,432,o),
(443,362,o),
(332,360,cs),
(294,359,l),
(339,599,l)
);
},
{
closed = 1;
nodes = (
(269,-266,l),
(347,-227,o),
(396,-182,o),
(396,-121,cs),
(396,-99,o),
(393,-88,o),
(385,-72,c),
(365,-56,o),
(348,-51,o),
(329,-51,cs),
(293,-51,o),
(264,-78,o),
(264,-117,cs),
(264,-143,o),
(280,-163,o),
(307,-187,c),
(292,-203,o),
(273,-216,o),
(248,-231,c)
);
}
);
width = 667;
}
);
note = uni0156;
unicode = 342;
},
{
glyphname = Sacute;
kernLeft = S;
kernRight = S;
layers = (
{
hints = (
{
horizontal = 1;
place = (616,60);
type = Stem;
},
{
horizontal = 1;
place = (-19,60);
type = Stem;
},
{
place = (326,147);
type = Stem;
},
{
place = (97,138);
type = Stem;
}
);
layerId = m01;
shapes = (
{
closed = 1;
nodes = (
(23,32,l),
(72,0,o),
(143,-19,o),
(215,-19,cs),
(365,-19,o),
(473,60,o),
(473,189,cs),
(473,265,o),
(437,324,o),
(332,396,cs),
(256,448,o),
(235,481,o),
(235,521,cs),
(235,580,o),
(286,616,o),
(356,616,cs),
(376,616,o),
(394,613,o),
(412,607,c),
(420,484,l),
(507,484,l),
(524,625,l),
(478,657,o),
(406,676,o),
(338,676,cs),
(197,676,o),
(97,596,o),
(97,475,cs),
(97,406,o),
(126,340,o),
(233,265,cs),
(312,209,o),
(326,174,o),
(326,137,cs),
(326,75,o),
(281,41,o),
(207,41,cs),
(186,41,o),
(160,45,o),
(136,51,c),
(124,181,l),
(39,181,l)
);
},
{
closed = 1;
nodes = (
(309,705,l),
(364,724,o),
(419,745,o),
(474,765,cs),
(525,784,o),
(535,810,o),
(535,833,cs),
(535,858,o),
(516,883,o),
(484,883,cs),
(456,883,o),
(438,875,o),
(404,846,cs),
(365,811,o),
(326,774,o),
(288,738,c)
);
}
);
width = 500;
}
);
note = Sacute;
unicode = 346;
},
{
glyphname = Scaron;
kernLeft = S;
kernRight = S;
layers = (
{
hints = (
{
horizontal = 1;
place = (616,60);
type = Stem;
},
{
horizontal = 1;
place = (-19,60);
type = Stem;
},
{
place = (326,147);
type = Stem;
},
{
place = (97,138);
type = Stem;
}
);
layerId = m01;
shapes = (
{
closed = 1;
nodes = (
(23,32,l),
(72,0,o),
(143,-19,o),
(215,-19,cs),
(365,-19,o),
(473,60,o),
(473,189,cs),
(473,265,o),
(437,324,o),
(332,396,cs),
(256,448,o),
(235,481,o),
(235,521,cs),
(235,580,o),
(286,616,o),
(356,616,cs),
(376,616,o),
(394,613,o),
(412,607,c),
(420,484,l),
(507,484,l),
(524,625,l),
(478,657,o),
(406,676,o),
(338,676,cs),
(197,676,o),
(97,596,o),
(97,475,cs),
(97,406,o),
(126,340,o),
(233,265,cs),
(312,209,o),
(326,174,o),
(326,137,cs),
(326,75,o),
(281,41,o),
(207,41,cs),
(186,41,o),
(160,45,o),
(136,51,c),
(124,181,l),
(39,181,l)
);
},
{
closed = 1;
nodes = (
(236,886,l),
(203,861,l),
(314,705,l),
(394,705,l),
(543,860,l),
(519,889,l),
(366,786,l)
);
}
);
width = 500;
}
);
note = Scaron;
unicode = 352;
},
{
glyphname = uni015E;
kernLeft = S;
kernRight = S;
layers = (
{
hints = (
{
horizontal = 1;
place = (616,60);
type = Stem;
},
{
horizontal = 1;
place = (-18,59);
type = Stem;
},
{
horizontal = 1;
place = (-232,48);
type = Stem;
},
{
place = (326,147);
type = Stem;
},
{
place = (224,78);
type = Stem;
},
{
place = (97,138);
type = Stem;
}
);
layerId = m01;
shapes = (
{
closed = 1;
nodes = (
(23,32,l),
(67,3,o),
(128,-15,o),
(191,-18,c),
(156,-90,l),
(197,-98,o),
(224,-114,o),
(224,-143,cs),
(224,-168,o),
(202,-184,o),
(171,-184,cs),
(152,-184,o),
(132,-179,o),
(113,-170,c),
(95,-208,l),
(115,-222,o),
(149,-232,o),
(187,-232,cs),
(263,-232,o),
(302,-193,o),
(302,-150,cs),
(302,-107,o),
(275,-82,o),
(212,-62,c),
(233,-19,l),
(373,-13,o),
(473,65,o),
(473,189,cs),
(473,265,o),
(437,324,o),
(332,396,cs),
(256,448,o),
(235,481,o),
(235,521,cs),
(235,580,o),
(286,616,o),
(356,616,cs),
(376,616,o),
(394,613,o),
(412,607,c),
(420,484,l),
(507,484,l),
(524,625,l),
(478,657,o),
(406,676,o),
(338,676,cs),
(197,676,o),
(97,596,o),
(97,475,cs),
(97,406,o),
(126,340,o),
(233,265,cs),
(312,209,o),
(326,174,o),
(326,137,cs),
(326,75,o),
(281,41,o),
(207,41,cs),
(186,41,o),
(160,45,o),
(136,51,c),
(124,181,l),
(39,181,l)
);
}
);
width = 500;
}
);
note = uni015E;
unicode = 350;
},
{
glyphname = uni0218;
kernLeft = S;
kernRight = S;
layers = (
{
hints = (
{
horizontal = 1;
place = (616,60);
type = Stem;
},
{
horizontal = 1;
place = (-19,60);
type = Stem;
},
{
place = (326,147);
type = Stem;
},
{
place = (129,132);
type = Stem;
},
{
place = (97,138);
type = Stem;
}
);
layerId = m01;
shapes = (
{
closed = 1;
nodes = (
(23,32,l),
(72,0,o),
(143,-19,o),
(215,-19,cs),
(365,-19,o),
(473,60,o),
(473,189,cs),
(473,265,o),
(437,324,o),
(332,396,cs),
(256,448,o),
(235,481,o),
(235,521,cs),
(235,580,o),
(286,616,o),
(356,616,cs),
(376,616,o),
(394,613,o),
(412,607,c),
(420,484,l),
(507,484,l),
(524,625,l),
(478,657,o),
(406,676,o),
(338,676,cs),
(197,676,o),
(97,596,o),
(97,475,cs),
(97,406,o),
(126,340,o),
(233,265,cs),
(312,209,o),
(326,174,o),
(326,137,cs),
(326,75,o),
(281,41,o),
(207,41,cs),
(186,41,o),
(160,45,o),
(136,51,c),
(124,181,l),
(39,181,l)
);
},
{
closed = 1;
nodes = (
(134,-266,l),
(212,-227,o),
(261,-182,o),
(261,-121,cs),
(261,-99,o),
(258,-88,o),
(250,-72,c),
(230,-56,o),
(213,-51,o),
(194,-51,cs),
(158,-51,o),
(129,-78,o),
(129,-117,cs),
(129,-143,o),
(145,-163,o),
(172,-187,c),
(157,-203,o),
(138,-216,o),
(113,-231,c)
);
}
);
width = 500;
}
);
note = uni0218;
unicode = 536;
},
{
glyphname = Tcaron;
kernLeft = T;
kernRight = T;
layers = (
{
hints = (
{
horizontal = 1;
place = (601,56);
type = Stem;
},
{
horizontal = 1;
place = (471,186);
type = Stem;
},
{
horizontal = 1;
place = (0,58.5);
type = Stem;
},
{
place = (72,601);
type = Stem;
}
);
layerId = m01;
shapes = (
{
closed = 1;
nodes = (
(72,471,l),
(151,471,l),
(194,601,l),
(305,601,l),
(290,516,o),
(275,431,o),
(259,347,cs),
(205,63,l),
(117,54,l),
(106,0,l),
(434,0,l),
(445,54,l),
(358,63,l),
(372,145,o),
(387,228,o),
(402,311,cs),
(457,601,l),
(568,601,l),
(561,471,l),
(639,471,l),
(673,657,l),
(110,657,l)
);
},
{
closed = 1;
nodes = (
(275,886,l),
(242,861,l),
(353,705,l),
(433,705,l),
(582,860,l),
(558,889,l),
(405,786,l)
);
}
);
width = 608;
}
);
note = Tcaron;
unicode = 356;
},
{
glyphname = uni0162;
kernLeft = T;
kernRight = T;
layers = (
{
hints = (
{
horizontal = 1;
place = (601,56);
type = Stem;
},
{
horizontal = 1;
place = (471,186);
type = Stem;
},
{
horizontal = 1;
place = (0,58.5);
type = Stem;
},
{
horizontal = 1;
place = (-232,48);
type = Stem;
},
{
place = (277,78);
type = Stem;
}
);
layerId = m01;
shapes = (
{
closed = 1;
nodes = (
(72,471,l),
(151,471,l),
(194,601,l),
(305,601,l),
(290,516,o),
(275,431,o),
(259,347,cs),
(205,63,l),
(117,54,l),
(106,0,l),
(254,0,l),
(209,-90,l),
(250,-98,o),
(277,-114,o),
(277,-143,cs),
(277,-168,o),
(255,-184,o),
(224,-184,cs),
(205,-184,o),
(185,-179,o),
(166,-170,c),
(148,-208,l),
(168,-222,o),
(202,-232,o),
(240,-232,cs),
(316,-232,o),
(355,-193,o),
(355,-150,cs),
(355,-107,o),
(328,-82,o),
(265,-62,c),
(295,0,l),
(434,0,l),
(445,54,l),
(358,63,l),
(372,145,o),
(387,228,o),
(402,311,cs),
(457,601,l),
(568,601,l),
(561,471,l),
(639,471,l),
(673,657,l),
(110,657,l)
);
}
);
width = 608;
}
);
note = uni0162;
unicode = 354;
},
{
glyphname = uni021A;
kernLeft = T;
kernRight = T;
layers = (
{
hints = (
{
horizontal = 1;
place = (601,56);
type = Stem;
},
{
horizontal = 1;
place = (471,186);
type = Stem;
},
{
horizontal = 1;
place = (0,58.5);
type = Stem;
},
{
place = (186,132);
type = Stem;
}
);
layerId = m01;
shapes = (
{
closed = 1;
nodes = (
(72,471,l),
(151,471,l),
(194,601,l),
(305,601,l),
(290,516,o),
(275,431,o),
(259,347,cs),
(205,63,l),
(117,54,l),
(106,0,l),
(434,0,l),
(445,54,l),
(358,63,l),
(372,145,o),
(387,228,o),
(402,311,cs),
(457,601,l),
(568,601,l),
(561,471,l),
(639,471,l),
(673,657,l),
(110,657,l)
);
},
{
closed = 1;
nodes = (
(191,-266,l),
(269,-227,o),
(318,-182,o),
(318,-121,cs),
(318,-99,o),
(315,-88,o),
(307,-72,c),
(287,-56,o),
(270,-51,o),
(251,-51,cs),
(215,-51,o),
(186,-78,o),
(186,-117,cs),
(186,-143,o),
(202,-163,o),
(229,-187,c),
(214,-203,o),
(195,-216,o),
(170,-231,c)
);
}
);
width = 608;
}
);
note = uni021A;
unicode = 538;
},
{
glyphname = Ugrave;
kernLeft = U;
kernRight = U;
layers = (
{
hints = (
{
horizontal = 1;
place = (599.5,57.5);
type = Stem;
},
{
horizontal = 1;
place = (599,58);
type = Stem;
},
{
horizontal = 1;
place = (-19,86);
type = Stem;
},
{
place = (97,160);
type = Stem;
}
);
layerId = m01;
shapes = (
{
closed = 1;
nodes = (
(521,603,l),
(608,596,l),
(546,268,ls),
(518,121,o),
(464,67,o),
(376,67,cs),
(298,67,o),
(257,112,o),
(257,188,cs),
(257,220,o),
(261,249,o),
(268,281,cs),
(327,595,l),
(404,603,l),
(414,657,l),
(102,657,l),
(92,603,l),
(164,595,l),
(151,516,o),
(136,436,o),
(122,357,cs),
(107,271,ls),
(101,239,o),
(97,209,o),
(97,182,cs),
(97,47,o),
(184,-19,o),
(327,-19,cs),
(474,-19,o),
(574,65,o),
(611,264,cs),
(673,596,l),
(753,603,l),
(763,657,l),
(531,657,l)
);
},
{
closed = 1;
nodes = (
(535,734,l),
(499,771,o),
(461,808,o),
(426,840,cs),
(393,870,o),
(375,880,o),
(351,880,cs),
(319,880,o),
(297,855,o),
(297,829,cs),
(297,810,o),
(306,784,o),
(355,762,cs),
(407,739,o),
(461,719,o),
(512,700,c)
);
}
);
width = 687;
}
);
note = Ugrave;
unicode = 217;
},
{
glyphname = Uacute;
kernLeft = U;
kernRight = U;
layers = (
{
hints = (
{
horizontal = 1;
place = (599.5,57.5);
type = Stem;
},
{
horizontal = 1;
place = (599,58);
type = Stem;
},
{
horizontal = 1;
place = (-19,86);
type = Stem;
},
{
place = (97,160);
type = Stem;
}
);
layerId = m01;
shapes = (
{
closed = 1;
nodes = (
(521,603,l),
(608,596,l),
(546,268,ls),
(518,121,o),
(464,67,o),
(376,67,cs),
(298,67,o),
(257,112,o),
(257,188,cs),
(257,220,o),
(261,249,o),
(268,281,cs),
(327,595,l),
(404,603,l),
(414,657,l),
(102,657,l),
(92,603,l),
(164,595,l),
(151,516,o),
(136,436,o),
(122,357,cs),
(107,271,ls),
(101,239,o),
(97,209,o),
(97,182,cs),
(97,47,o),
(184,-19,o),
(327,-19,cs),
(474,-19,o),
(574,65,o),
(611,264,cs),
(673,596,l),
(753,603,l),
(763,657,l),
(531,657,l)
);
},
{
closed = 1;
nodes = (
(442,698,l),
(497,717,o),
(552,738,o),
(607,758,cs),
(658,777,o),
(668,803,o),
(668,826,cs),
(668,851,o),
(649,876,o),
(617,876,cs),
(589,876,o),
(571,868,o),
(537,839,cs),
(498,804,o),
(459,767,o),
(421,731,c)
);
}
);
width = 687;
}
);
note = Uacute;
unicode = 218;
},
{
glyphname = Ucircumflex;
kernLeft = U;
kernRight = U;
layers = (
{
hints = (
{
horizontal = 1;
place = (599.5,57.5);
type = Stem;
},
{
horizontal = 1;
place = (599,58);
type = Stem;
},
{
horizontal = 1;
place = (-19,86);
type = Stem;
},
{
place = (97,160);
type = Stem;
}
);
layerId = m01;
shapes = (
{
closed = 1;
nodes = (
(521,603,l),
(608,596,l),
(546,268,ls),
(518,121,o),
(464,67,o),
(376,67,cs),
(298,67,o),
(257,112,o),
(257,188,cs),
(257,220,o),
(261,249,o),
(268,281,cs),
(327,595,l),
(404,603,l),
(414,657,l),
(102,657,l),
(92,603,l),
(164,595,l),
(151,516,o),
(136,436,o),
(122,357,cs),
(107,271,ls),
(101,239,o),
(97,209,o),
(97,182,cs),
(97,47,o),
(184,-19,o),
(327,-19,cs),
(474,-19,o),
(574,65,o),
(611,264,cs),
(673,596,l),
(753,603,l),
(763,657,l),
(531,657,l)
);
},
{
closed = 1;
nodes = (
(538,873,l),
(475,873,l),
(313,720,l),
(332,691,l),
(493,785,l),
(625,691,l),
(652,718,l)
);
}
);
width = 687;
}
);
note = Ucircumflex;
unicode = 219;
},
{
glyphname = Udieresis;
kernLeft = U;
kernRight = U;
layers = (
{
hints = (
{
horizontal = 1;
place = (716,131);
type = Stem;
},
{
horizontal = 1;
place = (599.5,57.5);
type = Stem;
},
{
horizontal = 1;
place = (599,58);
type = Stem;
},
{
horizontal = 1;
place = (-19,86);
type = Stem;
},
{
place = (538,133);
type = Stem;
},
{
place = (306,133);
type = Stem;
},
{
place = (97,160);
type = Stem;
}
);
layerId = m01;
shapes = (
{
closed = 1;
nodes = (
(521,603,l),
(608,596,l),
(546,268,ls),
(518,121,o),
(464,67,o),
(376,67,cs),
(298,67,o),
(257,112,o),
(257,188,cs),
(257,220,o),
(261,249,o),
(268,281,cs),
(327,595,l),
(404,603,l),
(414,657,l),
(102,657,l),
(92,603,l),
(164,595,l),
(151,516,o),
(136,436,o),
(122,357,cs),
(107,271,ls),
(101,239,o),
(97,209,o),
(97,182,cs),
(97,47,o),
(184,-19,o),
(327,-19,cs),
(474,-19,o),
(574,65,o),
(611,264,cs),
(673,596,l),
(753,603,l),
(763,657,l),
(531,657,l)
);
},
{
closed = 1;
nodes = (
(404,716,o),
(439,743,o),
(439,790,cs),
(439,825,o),
(413,847,o),
(379,847,cs),
(344,847,o),
(306,822,o),
(306,774,cs),
(306,737,o),
(337,716,o),
(367,716,cs)
);
},
{
closed = 1;
nodes = (
(636,716,o),
(671,743,o),
(671,790,cs),
(671,825,o),
(645,847,o),
(611,847,cs),
(576,847,o),
(538,822,o),
(538,774,cs),
(538,737,o),
(569,716,o),
(599,716,cs)
);
}
);
width = 687;
}
);
note = Udieresis;
unicode = 220;
},
{
glyphname = Umacron;
kernLeft = U;
kernRight = U;
layers = (
{
hints = (
{
horizontal = 1;
place = (732,81);
type = Stem;
},
{
horizontal = 1;
place = (599.5,57.5);
type = Stem;
},
{
horizontal = 1;
place = (599,58);
type = Stem;
},
{
horizontal = 1;
place = (-19,86);
type = Stem;
},
{
place = (97,160);
type = Stem;
}
);
layerId = m01;
shapes = (
{
closed = 1;
nodes = (
(521,603,l),
(608,596,l),
(546,268,ls),
(518,121,o),
(464,67,o),
(376,67,cs),
(298,67,o),
(257,112,o),
(257,188,cs),
(257,220,o),
(261,249,o),
(268,281,cs),
(327,595,l),
(404,603,l),
(414,657,l),
(102,657,l),
(92,603,l),
(164,595,l),
(151,516,o),
(136,436,o),
(122,357,cs),
(107,271,ls),
(101,239,o),
(97,209,o),
(97,182,cs),
(97,47,o),
(184,-19,o),
(327,-19,cs),
(474,-19,o),
(574,65,o),
(611,264,cs),
(673,596,l),
(753,603,l),
(763,657,l),
(531,657,l)
);
},
{
closed = 1;
nodes = (
(330,732,l),
(651,732,l),
(667,813,l),
(346,813,l)
);
}
);
width = 687;
}
);
note = Umacron;
unicode = 362;
},
{
glyphname = Uring;
kernLeft = U;
kernRight = U;
layers = (
{
hints = (
{
horizontal = 1;
place = (851,45);
type = Stem;
},
{
horizontal = 1;
place = (698,45);
type = Stem;
},
{
horizontal = 1;
place = (599.5,57.5);
type = Stem;
},
{
horizontal = 1;
place = (599,58);
type = Stem;
},
{
horizontal = 1;
place = (-19,86);
type = Stem;
},
{
place = (541,52);
type = Stem;
},
{
place = (385,53);
type = Stem;
},
{
place = (97,160);
type = Stem;
}
);
layerId = m01;
shapes = (
{
closed = 1;
nodes = (
(521,603,l),
(608,596,l),
(546,268,ls),
(518,121,o),
(464,67,o),
(376,67,cs),
(298,67,o),
(257,112,o),
(257,188,cs),
(257,220,o),
(261,249,o),
(268,281,cs),
(327,595,l),
(404,603,l),
(414,657,l),
(102,657,l),
(92,603,l),
(164,595,l),
(151,516,o),
(136,436,o),
(122,357,cs),
(107,271,ls),
(101,239,o),
(97,209,o),
(97,182,cs),
(97,47,o),
(184,-19,o),
(327,-19,cs),
(474,-19,o),
(574,65,o),
(611,264,cs),
(673,596,l),
(753,603,l),
(763,657,l),
(531,657,l)
);
},
{
closed = 1;
nodes = (
(454,743,o),
(438,764,o),
(438,790,cs),
(438,825,o),
(462,851,o),
(494,851,cs),
(524,851,o),
(541,831,o),
(541,804,cs),
(541,767,o),
(517,743,o),
(485,743,cs)
);
},
{
closed = 1;
nodes = (
(541,698,o),
(593,737,o),
(593,809,cs),
(593,862,o),
(553,896,o),
(497,896,cs),
(439,896,o),
(385,855,o),
(385,786,cs),
(385,729,o),
(432,698,o),
(482,698,cs)
);
}
);
width = 687;
}
);
note = Uring;
unicode = 366;
},
{
glyphname = Uhungarumlaut;
kernLeft = U;
kernRight = U;
layers = (
{
hints = (
{
horizontal = 1;
place = (599.5,57.5);
type = Stem;
},
{
horizontal = 1;
place = (599,58);
type = Stem;
},
{
horizontal = 1;
place = (-19,86);
type = Stem;
},
{
place = (97,160);
type = Stem;
}
);
layerId = m01;
shapes = (
{
closed = 1;
nodes = (
(521,603,l),
(608,596,l),
(546,268,ls),
(518,121,o),
(464,67,o),
(376,67,cs),
(298,67,o),
(257,112,o),
(257,188,cs),
(257,220,o),
(261,249,o),
(268,281,cs),
(327,595,l),
(404,603,l),
(414,657,l),
(102,657,l),
(92,603,l),
(164,595,l),
(151,516,o),
(136,436,o),
(122,357,cs),
(107,271,ls),
(101,239,o),
(97,209,o),
(97,182,cs),
(97,47,o),
(184,-19,o),
(327,-19,cs),
(474,-19,o),
(574,65,o),
(611,264,cs),
(673,596,l),
(753,603,l),
(763,657,l),
(531,657,l)
);
},
{
closed = 1;
nodes = (
(360,725,l),
(395,699,l),
(514,803,ls),
(535,821,o),
(545,836,o),
(545,857,cs),
(545,880,o),
(524,893,o),
(500,893,cs),
(477,893,o),
(457,880,o),
(440,853,cs)
);
},
{
closed = 1;
nodes = (
(546,725,l),
(581,699,l),
(701,803,ls),
(721,821,o),
(731,836,o),
(731,857,cs),
(731,880,o),
(710,893,o),
(686,893,cs),
(663,893,o),
(643,880,o),
(626,853,cs)
);
}
);
width = 687;
}
);
note = Uhungarumlaut;
unicode = 368;
},
{
glyphname = Uogonek;
kernLeft = U;
kernRight = U;
layers = (
{
anchors = (
{
name = top;
pos = (480,685);
}
);
hints = (
{
horizontal = 1;
place = (599.5,57.5);
type = Stem;
},
{
horizontal = 1;
place = (599,58);
type = Stem;
},
{
horizontal = 1;
place = (-19,86);
type = Stem;
},
{
horizontal = 1;
place = (-234,64);
type = Stem;
},
{
place = (308,94);
type = Stem;
},
{
place = (97,160);
type = Stem;
}
);
layerId = m01;
shapes = (
{
closed = 1;
nodes = (
(521,603,l),
(608,596,l),
(546,268,ls),
(518,121,o),
(464,67,o),
(376,67,cs),
(298,67,o),
(257,112,o),
(257,188,cs),
(257,220,o),
(261,249,o),
(268,281,cs),
(327,595,l),
(404,603,l),
(414,657,l),
(102,657,l),
(92,603,l),
(164,595,l),
(151,516,o),
(136,436,o),
(122,357,cs),
(107,271,ls),
(101,239,o),
(97,209,o),
(97,182,cs),
(97,47,o),
(184,-19,o),
(327,-19,cs),
(356,-19,o),
(383,-15,o),
(408,-8,c),
(350,-60,o),
(308,-107,o),
(308,-158,cs),
(308,-204,o),
(340,-234,o),
(397,-234,cs),
(453,-234,o),
(492,-207,o),
(520,-179,c),
(504,-152,l),
(486,-163,o),
(466,-170,o),
(447,-170,cs),
(421,-170,o),
(402,-154,o),
(402,-121,cs),
(402,-75,o),
(439,-20,o),
(498,36,cs),
(551,86,o),
(590,151,o),
(611,264,cs),
(673,596,l),
(753,603,l),
(763,657,l),
(531,657,l)
);
}
);
width = 687;
}
);
note = Uogonek;
unicode = 370;
},
{
glyphname = Yacute;
kernLeft = Y;
kernRight = Y;
layers = (
{
hints = (
{
horizontal = 1;
place = (599.5,57.5);
type = Stem;
},
{
horizontal = 1;
place = (598.5,58.5);
type = Stem;
},
{
horizontal = 1;
place = (0,58.5);
type = Stem;
},
{
place = (61,617);
type = Stem;
}
);
layerId = m01;
shapes = (
{
closed = 1;
nodes = (
(463,603,l),
(532,592,l),
(367,336,l),
(293,594,l),
(369,603,l),
(380,657,l),
(71,657,l),
(61,603,l),
(125,596,l),
(235,264,l),
(197,63,l),
(108,54,l),
(98,0,l),
(426,0,l),
(436,54,l),
(349,63,l),
(361,135,o),
(374,207,o),
(388,279,c),
(595,591,l),
(667,603,l),
(678,657,l),
(474,657,l)
);
},
{
closed = 1;
nodes = (
(372,698,l),
(427,717,o),
(482,738,o),
(537,758,cs),
(588,777,o),
(598,803,o),
(598,826,cs),
(598,851,o),
(579,876,o),
(547,876,cs),
(519,876,o),
(501,868,o),
(467,839,cs),
(428,804,o),
(389,767,o),
(351,731,c)
);
}
);
width = 575;
}
);
note = Yacute;
unicode = 221;
},
{
glyphname = Ydieresis;
kernLeft = Y;
kernRight = Y;
layers = (
{
hints = (
{
horizontal = 1;
place = (716,131);
type = Stem;
},
{
horizontal = 1;
place = (599.5,57.5);
type = Stem;
},
{
horizontal = 1;
place = (598.5,58.5);
type = Stem;
},
{
horizontal = 1;
place = (0,58.5);
type = Stem;
},
{
place = (493,133);
type = Stem;
},
{
place = (261,133);
type = Stem;
}
);
layerId = m01;
shapes = (
{
closed = 1;
nodes = (
(463,603,l),
(532,592,l),
(367,336,l),
(293,594,l),
(369,603,l),
(380,657,l),
(71,657,l),
(61,603,l),
(125,596,l),
(235,264,l),
(197,63,l),
(108,54,l),
(98,0,l),
(426,0,l),
(436,54,l),
(349,63,l),
(361,135,o),
(374,207,o),
(388,279,c),
(595,591,l),
(667,603,l),
(678,657,l),
(474,657,l)
);
},
{
closed = 1;
nodes = (
(359,716,o),
(394,743,o),
(394,790,cs),
(394,825,o),
(368,847,o),
(334,847,cs),
(299,847,o),
(261,822,o),
(261,774,cs),
(261,737,o),
(292,716,o),
(322,716,cs)
);
},
{
closed = 1;
nodes = (
(591,716,o),
(626,743,o),
(626,790,cs),
(626,825,o),
(600,847,o),
(566,847,cs),
(531,847,o),
(493,822,o),
(493,774,cs),
(493,737,o),
(524,716,o),
(554,716,cs)
);
}
);
width = 575;
}
);
note = Ydieresis;
unicode = 376;
},
{
glyphname = Zacute;
kernLeft = Z;
kernRight = Z;
layers = (
{
hints = (
{
horizontal = 1;
place = (600,57);
type = Stem;
},
{
horizontal = 1;
place = (471,186);
type = Stem;
},
{
horizontal = 1;
place = (0,186);
type = Stem;
},
{
horizontal = 1;
place = (0,57);
type = Stem;
},
{
place = (-6,604);
type = Stem;
}
);
layerId = m01;
shapes = (
{
closed = 1;
nodes = (
(71,471,l),
(149,471,l),
(198,600,l),
(413,600,l),
(3,46,l),
(-6,0,l),
(493,0,l),
(534,186,l),
(454,186,l),
(405,57,l),
(179,57,l),
(589,611,l),
(598,657,l),
(112,657,l)
);
},
{
closed = 1;
nodes = (
(334,698,l),
(389,717,o),
(444,738,o),
(499,758,cs),
(550,777,o),
(560,803,o),
(560,826,cs),
(560,851,o),
(541,876,o),
(509,876,cs),
(481,876,o),
(463,868,o),
(429,839,cs),
(390,804,o),
(351,767,o),
(313,731,c)
);
}
);
width = 544;
}
);
note = Zacute;
unicode = 377;
},
{
glyphname = Zcaron;
kernLeft = Z;
kernRight = Z;
layers = (
{
hints = (
{
horizontal = 1;
place = (600,57);
type = Stem;
},
{
horizontal = 1;
place = (471,186);
type = Stem;
},
{
horizontal = 1;
place = (0,186);
type = Stem;
},
{
horizontal = 1;
place = (0,57);
type = Stem;
},
{
place = (-6,604);
type = Stem;
}
);
layerId = m01;
shapes = (
{
closed = 1;
nodes = (
(71,471,l),
(149,471,l),
(198,600,l),
(413,600,l),
(3,46,l),
(-6,0,l),
(493,0,l),
(534,186,l),
(454,186,l),
(405,57,l),
(179,57,l),
(589,611,l),
(598,657,l),
(112,657,l)
);
},
{
closed = 1;
nodes = (
(257,886,l),
(224,861,l),
(335,705,l),
(415,705,l),
(564,860,l),
(540,889,l),
(387,786,l)
);
}
);
width = 544;
}
);
note = Zcaron;
unicode = 381;
},
{
glyphname = Zdotaccent;
kernLeft = Z;
kernRight = Z;
layers = (
{
hints = (
{
horizontal = 1;
place = (714,148);
type = Stem;
},
{
horizontal = 1;
place = (600,57);
type = Stem;
},
{
horizontal = 1;
place = (471,186);
type = Stem;
},
{
horizontal = 1;
place = (0,186);
type = Stem;
},
{
horizontal = 1;
place = (0,57);
type = Stem;
},
{
place = (319,141);
type = Stem;
}
);
layerId = m01;
shapes = (
{
closed = 1;
nodes = (
(71,471,l),
(149,471,l),
(198,600,l),
(413,600,l),
(3,46,l),
(-6,0,l),
(493,0,l),
(534,186,l),
(454,186,l),
(405,57,l),
(179,57,l),
(589,611,l),
(598,657,l),
(112,657,l)
);
},
{
closed = 1;
nodes = (
(422,714,o),
(460,749,o),
(460,795,cs),
(460,834,o),
(435,862,o),
(397,862,cs),
(356,862,o),
(319,827,o),
(319,780,cs),
(319,738,o),
(345,714,o),
(382,714,cs)
);
}
);
width = 544;
}
);
note = Zdotaccent;
unicode = 379;
},
{
glyphname = Eth;
kernLeft = B;
kernRight = D;
layers = (
{
hints = (
{
horizontal = 1;
place = (601,56);
type = Stem;
},
{
horizontal = 1;
place = (599,58);
type = Stem;
},
{
horizontal = 1;
place = (308,58);
type = Stem;
},
{
horizontal = 1;
place = (0,58.5);
type = Stem;
},
{
horizontal = 1;
place = (0,56);
type = Stem;
},
{
place = (532,159);
type = Stem;
}
);
layerId = m01;
shapes = (
{
closed = 1;
nodes = (
(108,603,l),
(186,595,l),
(173,519,o),
(159,442,o),
(145,366,c),
(57,366,l),
(46,308,l),
(135,308,l),
(88,63,l),
(9,54,l),
(-2,0,l),
(287,0,ls),
(511,0,o),
(690,146,o),
(691,378,cs),
(691,535,o),
(586,657,o),
(387,657,cs),
(119,657,l)
);
},
{
closed = 1;
nodes = (
(408,308,l),
(419,366,l),
(295,366,l),
(339,601,l),
(341,601,ls),
(469,601,o),
(532,524,o),
(532,390,cs),
(532,206,o),
(434,56,o),
(274,56,cs),
(238,56,l),
(253,140,o),
(268,224,o),
(284,308,c)
);
}
);
width = 689;
}
);
note = Eth;
unicode = 208;
},
{
glyphname = Thorn;
kernLeft = B;
kernRight = Thorn;
layers = (
{
hints = (
{
horizontal = 1;
place = (599,58);
type = Stem;
},
{
horizontal = 1;
place = (598.5,58.5);
type = Stem;
},
{
horizontal = 1;
place = (478,58);
type = Stem;
},
{
horizontal = 1;
place = (137,56);
type = Stem;
},
{
horizontal = 1;
place = (0,58.5);
type = Stem;
},
{
horizontal = 1;
place = (0,58);
type = Stem;
},
{
place = (457,149);
type = Stem;
}
);
layerId = m01;
shapes = (
{
closed = 1;
nodes = (
(316,478,l),
(346,478,ls),
(420,478,o),
(457,435,o),
(457,360,cs),
(457,254,o),
(396,193,o),
(298,193,cs),
(263,193,l),
(270,232,o),
(277,272,o),
(285,311,cs)
);
},
{
closed = 1;
nodes = (
(108,603,l),
(186,595,l),
(172,512,o),
(157,429,o),
(142,347,cs),
(88,62,l),
(9,54,l),
(-2,0,l),
(307,0,l),
(318,54,l),
(240,63,l),
(244,87,o),
(248,112,o),
(253,137,c),
(291,137,ls),
(505,137,o),
(606,237,o),
(606,351,cs),
(606,465,o),
(536,536,o),
(360,536,cs),
(327,536,l),
(338,594,l),
(418,603,l),
(429,657,l),
(119,657,l)
);
}
);
width = 594;
}
);
note = Thorn;
unicode = 222;
},
{
glyphname = agrave;
kernLeft = a;
kernRight = a;
layers = (
{
hints = (
{
horizontal = 1;
place = (489,-20);
target = down;
type = TopGhost;
},
{
horizontal = 1;
place = (425,74);
type = Stem;
},
{
horizontal = 1;
place = (-15,102);
type = Stem;
},
{
horizontal = 1;
place = (-15,91);
type = Stem;
},
{
horizontal = 1;
place = (-15,21);
target = up;
type = BottomGhost;
},
{
place = (326,140);
type = Stem;
},
{
place = (46,145);
type = Stem;
}
);
layerId = m01;
shapes = (
{
closed = 1;
nodes = (
(191,247,o),
(223,348,o),
(270,391,cs),
(295,414,o),
(318,425,o),
(340,425,cs),
(358,425,o),
(376,420,o),
(392,411,c),
(336,154,ls),
(335,148,o),
(334,143,o),
(333,137,c),
(301,106,o),
(272,87,o),
(246,87,cs),
(212,87,o),
(191,113,o),
(191,176,cs)
);
},
{
closed = 1;
nodes = (
(484,-15,o),
(551,55,o),
(587,118,c),
(556,139,l),
(525,99,o),
(503,76,o),
(484,76,cs),
(473,76,o),
(466,83,o),
(466,96,cs),
(466,107,o),
(469,121,o),
(474,139,cs),
(554,489,l),
(537,501,l),
(464,467,l),
(441,487,o),
(414,499,o),
(384,499,cs),
(237,499,o),
(46,303,o),
(46,124,cs),
(46,21,o),
(97,-15,o),
(152,-15,cs),
(208,-15,o),
(272,27,o),
(326,87,c),
(326,84,o),
(326,80,o),
(326,76,cs),
(326,14,o),
(360,-15,o),
(409,-15,cs)
);
},
{
closed = 1;
nodes = (
(420,557,l),
(403,608,o),
(388,659,o),
(370,709,cs),
(351,768,o),
(324,783,o),
(294,783,cs),
(265,783,o),
(234,761,o),
(234,727,cs),
(234,696,o),
(252,669,o),
(283,640,cs),
(318,605,o),
(354,573,o),
(390,538,c)
);
}
);
width = 569;
}
);
note = agrave;
unicode = 224;
},
{
glyphname = aacute;
kernLeft = a;
kernRight = a;
layers = (
{
hints = (
{
horizontal = 1;
place = (489,-20);
target = down;
type = TopGhost;
},
{
horizontal = 1;
place = (425,74);
type = Stem;
},
{
horizontal = 1;
place = (-15,102);
type = Stem;
},
{
horizontal = 1;
place = (-15,91);
type = Stem;
},
{
horizontal = 1;
place = (-15,21);
target = up;
type = BottomGhost;
},
{
place = (326,140);
type = Stem;
},
{
place = (46,145);
type = Stem;
}
);
layerId = m01;
shapes = (
{
closed = 1;
nodes = (
(191,247,o),
(223,348,o),
(270,391,cs),
(295,414,o),
(318,425,o),
(340,425,cs),
(358,425,o),
(376,420,o),
(392,411,c),
(336,154,ls),
(335,148,o),
(334,143,o),
(333,137,c),
(301,106,o),
(272,87,o),
(246,87,cs),
(212,87,o),
(191,113,o),
(191,176,cs)
);
},
{
closed = 1;
nodes = (
(484,-15,o),
(551,55,o),
(587,118,c),
(556,139,l),
(525,99,o),
(503,76,o),
(484,76,cs),
(473,76,o),
(466,83,o),
(466,96,cs),
(466,107,o),
(469,121,o),
(474,139,cs),
(554,489,l),
(537,501,l),
(464,467,l),
(441,487,o),
(414,499,o),
(384,499,cs),
(237,499,o),
(46,303,o),
(46,124,cs),
(46,21,o),
(97,-15,o),
(152,-15,cs),
(208,-15,o),
(272,27,o),
(326,87,c),
(326,84,o),
(326,80,o),
(326,76,cs),
(326,14,o),
(360,-15,o),
(409,-15,cs)
);
},
{
closed = 1;
nodes = (
(387,538,l),
(422,572,o),
(458,605,o),
(493,640,cs),
(525,669,o),
(542,696,o),
(542,726,cs),
(542,761,o),
(512,783,o),
(482,783,cs),
(452,783,o),
(426,768,o),
(406,709,cs),
(388,659,o),
(372,608,o),
(355,558,c)
);
}
);
width = 569;
}
);
note = aacute;
unicode = 225;
},
{
glyphname = acircumflex;
kernLeft = a;
kernRight = a;
layers = (
{
hints = (
{
horizontal = 1;
place = (489,-20);
target = down;
type = TopGhost;
},
{
horizontal = 1;
place = (425,74);
type = Stem;
},
{
horizontal = 1;
place = (-15,102);
type = Stem;
},
{
horizontal = 1;
place = (-15,91);
type = Stem;
},
{
horizontal = 1;
place = (-15,21);
target = up;
type = BottomGhost;
},
{
place = (326,140);
type = Stem;
},
{
place = (46,145);
type = Stem;
}
);
layerId = m01;
shapes = (
{
closed = 1;
nodes = (
(191,247,o),
(223,348,o),
(270,391,cs),
(295,414,o),
(318,425,o),
(340,425,cs),
(358,425,o),
(376,420,o),
(392,411,c),
(336,154,ls),
(335,148,o),
(334,143,o),
(333,137,c),
(301,106,o),
(272,87,o),
(246,87,cs),
(212,87,o),
(191,113,o),
(191,176,cs)
);
},
{
closed = 1;
nodes = (
(484,-15,o),
(551,55,o),
(587,118,c),
(556,139,l),
(525,99,o),
(503,76,o),
(484,76,cs),
(473,76,o),
(466,83,o),
(466,96,cs),
(466,107,o),
(469,121,o),
(474,139,cs),
(554,489,l),
(537,501,l),
(464,467,l),
(441,487,o),
(414,499,o),
(384,499,cs),
(237,499,o),
(46,303,o),
(46,124,cs),
(46,21,o),
(97,-15,o),
(152,-15,cs),
(208,-15,o),
(272,27,o),
(326,87,c),
(326,84,o),
(326,80,o),
(326,76,cs),
(326,14,o),
(360,-15,o),
(409,-15,cs)
);
},
{
closed = 1;
nodes = (
(516,545,l),
(550,571,l),
(445,753,l),
(382,753,l),
(217,576,l),
(246,543,l),
(398,654,l)
);
}
);
width = 569;
}
);
note = acircumflex;
unicode = 226;
},
{
glyphname = atilde;
kernLeft = a;
kernRight = a;
layers = (
{
hints = (
{
horizontal = 1;
place = (711,-20);
target = down;
type = TopGhost;
},
{
horizontal = 1;
place = (489,-20);
target = down;
type = TopGhost;
},
{
horizontal = 1;
place = (638,89);
type = Stem;
},
{
horizontal = 1;
place = (571,89);
type = Stem;
},
{
horizontal = 1;
place = (425,74);
type = Stem;
},
{
horizontal = 1;
place = (-15,102);
type = Stem;
},
{
horizontal = 1;
place = (-15,91);
type = Stem;
},
{
horizontal = 1;
place = (-15,21);
target = up;
type = BottomGhost;
},
{
place = (326,140);
type = Stem;
},
{
place = (46,145);
type = Stem;
}
);
layerId = m01;
shapes = (
{
closed = 1;
nodes = (
(191,247,o),
(223,348,o),
(270,391,cs),
(295,414,o),
(318,425,o),
(340,425,cs),
(358,425,o),
(376,420,o),
(392,411,c),
(336,154,ls),
(335,148,o),
(334,143,o),
(333,137,c),
(301,106,o),
(272,87,o),
(246,87,cs),
(212,87,o),
(191,113,o),
(191,176,cs)
);
},
{
closed = 1;
nodes = (
(484,-15,o),
(551,55,o),
(587,118,c),
(556,139,l),
(525,99,o),
(503,76,o),
(484,76,cs),
(473,76,o),
(466,83,o),
(466,96,cs),
(466,107,o),
(469,121,o),
(474,139,cs),
(554,489,l),
(537,501,l),
(464,467,l),
(441,487,o),
(414,499,o),
(384,499,cs),
(237,499,o),
(46,303,o),
(46,124,cs),
(46,21,o),
(97,-15,o),
(152,-15,cs),
(208,-15,o),
(272,27,o),
(326,87,c),
(326,84,o),
(326,80,o),
(326,76,cs),
(326,14,o),
(360,-15,o),
(409,-15,cs)
);
},
{
closed = 1;
nodes = (
(249,571,l),
(267,614,o),
(290,638,o),
(317,638,cs),
(346,638,o),
(365,618,o),
(384,601,cs),
(402,585,o),
(427,571,o),
(462,571,cs),
(517,571,o),
(564,611,o),
(589,711,c),
(551,728,l),
(532,685,o),
(510,660,o),
(484,660,cs),
(458,660,o),
(439,679,o),
(420,695,cs),
(400,713,o),
(380,727,o),
(340,727,cs),
(288,727,o),
(236,682,o),
(211,588,c)
);
}
);
width = 569;
}
);
note = atilde;
unicode = 227;
},
{
glyphname = adieresis;
kernLeft = a;
kernRight = a;
layers = (
{
hints = (
{
horizontal = 1;
place = (489,-20);
target = down;
type = TopGhost;
},
{
horizontal = 1;
place = (594,143);
type = Stem;
},
{
horizontal = 1;
place = (425,74);
type = Stem;
},
{
horizontal = 1;
place = (-15,102);
type = Stem;
},
{
horizontal = 1;
place = (-15,91);
type = Stem;
},
{
horizontal = 1;
place = (-15,21);
target = up;
type = BottomGhost;
},
{
place = (442,143);
type = Stem;
},
{
place = (326,140);
type = Stem;
},
{
place = (219,144);
type = Stem;
},
{
place = (46,145);
type = Stem;
}
);
layerId = m01;
shapes = (
{
closed = 1;
nodes = (
(191,247,o),
(223,348,o),
(270,391,cs),
(295,414,o),
(318,425,o),
(340,425,cs),
(358,425,o),
(376,420,o),
(392,411,c),
(336,154,ls),
(335,148,o),
(334,143,o),
(333,137,c),
(301,106,o),
(272,87,o),
(246,87,cs),
(212,87,o),
(191,113,o),
(191,176,cs)
);
},
{
closed = 1;
nodes = (
(484,-15,o),
(551,55,o),
(587,118,c),
(556,139,l),
(525,99,o),
(503,76,o),
(484,76,cs),
(473,76,o),
(466,83,o),
(466,96,cs),
(466,107,o),
(469,121,o),
(474,139,cs),
(554,489,l),
(537,501,l),
(464,467,l),
(441,487,o),
(414,499,o),
(384,499,cs),
(237,499,o),
(46,303,o),
(46,124,cs),
(46,21,o),
(97,-15,o),
(152,-15,cs),
(208,-15,o),
(272,27,o),
(326,87,c),
(326,84,o),
(326,80,o),
(326,76,cs),
(326,14,o),
(360,-15,o),
(409,-15,cs)
);
},
{
closed = 1;
nodes = (
(325,594,o),
(363,624,o),
(363,675,cs),
(363,713,o),
(334,737,o),
(298,737,cs),
(259,737,o),
(219,708,o),
(219,657,cs),
(219,617,o),
(250,594,o),
(285,594,cs)
);
},
{
closed = 1;
nodes = (
(547,594,o),
(585,624,o),
(585,675,cs),
(585,713,o),
(556,737,o),
(520,737,cs),
(481,737,o),
(442,708,o),
(442,657,cs),
(442,617,o),
(473,594,o),
(507,594,cs)
);
}
);
width = 569;
}
);
note = adieresis;
unicode = 228;
},
{
glyphname = amacron;
kernLeft = a;
kernRight = a;
layers = (
{
hints = (
{
horizontal = 1;
place = (489,-20);
target = down;
type = TopGhost;
},
{
horizontal = 1;
place = (599,81);
type = Stem;
},
{
horizontal = 1;
place = (425,74);
type = Stem;
},
{
horizontal = 1;
place = (-15,102);
type = Stem;
},
{
horizontal = 1;
place = (-15,91);
type = Stem;
},
{
horizontal = 1;
place = (-15,21);
target = up;
type = BottomGhost;
},
{
place = (326,140);
type = Stem;
},
{
place = (46,145);
type = Stem;
}
);
layerId = m01;
shapes = (
{
closed = 1;
nodes = (
(191,247,o),
(223,348,o),
(270,391,cs),
(295,414,o),
(318,425,o),
(340,425,cs),
(358,425,o),
(376,420,o),
(392,411,c),
(336,154,ls),
(335,148,o),
(334,143,o),
(333,137,c),
(301,106,o),
(272,87,o),
(246,87,cs),
(212,87,o),
(191,113,o),
(191,176,cs)
);
},
{
closed = 1;
nodes = (
(484,-15,o),
(551,55,o),
(587,118,c),
(556,139,l),
(525,99,o),
(503,76,o),
(484,76,cs),
(473,76,o),
(466,83,o),
(466,96,cs),
(466,107,o),
(469,121,o),
(474,139,cs),
(554,489,l),
(537,501,l),
(464,467,l),
(441,487,o),
(414,499,o),
(384,499,cs),
(237,499,o),
(46,303,o),
(46,124,cs),
(46,21,o),
(97,-15,o),
(152,-15,cs),
(208,-15,o),
(272,27,o),
(326,87,c),
(326,84,o),
(326,80,o),
(326,76,cs),
(326,14,o),
(360,-15,o),
(409,-15,cs)
);
},
{
closed = 1;
nodes = (
(234,599,l),
(540,599,l),
(557,680,l),
(251,680,l)
);
}
);
width = 569;
}
);
note = amacron;
unicode = 257;
},
{
glyphname = abreve;
kernLeft = a;
kernRight = a;
layers = (
{
hints = (
{
horizontal = 1;
place = (731,-20);
target = down;
type = TopGhost;
},
{
horizontal = 1;
place = (719,-20);
target = down;
type = TopGhost;
},
{
horizontal = 1;
place = (718,-20);
target = down;
type = TopGhost;
},
{
horizontal = 1;
place = (489,-20);
target = down;
type = TopGhost;
},
{
horizontal = 1;
place = (563,90);
type = Stem;
},
{
horizontal = 1;
place = (425,74);
type = Stem;
},
{
horizontal = 1;
place = (-15,102);
type = Stem;
},
{
horizontal = 1;
place = (-15,91);
type = Stem;
},
{
horizontal = 1;
place = (-15,21);
target = up;
type = BottomGhost;
},
{
place = (326,140);
type = Stem;
},
{
place = (46,145);
type = Stem;
}
);
layerId = m01;
shapes = (
{
closed = 1;
nodes = (
(191,247,o),
(223,348,o),
(270,391,cs),
(295,414,o),
(318,425,o),
(340,425,cs),
(358,425,o),
(376,420,o),
(392,411,c),
(336,154,ls),
(335,148,o),
(334,143,o),
(333,137,c),
(301,106,o),
(272,87,o),
(246,87,cs),
(212,87,o),
(191,113,o),
(191,176,cs)
);
},
{
closed = 1;
nodes = (
(484,-15,o),
(551,55,o),
(587,118,c),
(556,139,l),
(525,99,o),
(503,76,o),
(484,76,cs),
(473,76,o),
(466,83,o),
(466,96,cs),
(466,107,o),
(469,121,o),
(474,139,cs),
(554,489,l),
(537,501,l),
(464,467,l),
(441,487,o),
(414,499,o),
(384,499,cs),
(237,499,o),
(46,303,o),
(46,124,cs),
(46,21,o),
(97,-15,o),
(152,-15,cs),
(208,-15,o),
(272,27,o),
(326,87,c),
(326,84,o),
(326,80,o),
(326,76,cs),
(326,14,o),
(360,-15,o),
(409,-15,cs)
);
},
{
closed = 1;
nodes = (
(501,563,o),
(554,651,o),
(571,719,c),
(530,731,l),
(502,680,o),
(457,653,o),
(398,653,cs),
(343,653,o),
(308,683,o),
(290,731,c),
(247,718,l),
(247,630,o),
(293,563,o),
(393,563,cs)
);
}
);
width = 569;
}
);
note = abreve;
unicode = 259;
},
{
glyphname = aring;
kernLeft = a;
kernRight = a;
layers = (
{
hints = (
{
horizontal = 1;
place = (489,-20);
target = down;
type = TopGhost;
},
{
horizontal = 1;
place = (732,50);
type = Stem;
},
{
horizontal = 1;
place = (553,50);
type = Stem;
},
{
horizontal = 1;
place = (425,74);
type = Stem;
},
{
horizontal = 1;
place = (-15,102);
type = Stem;
},
{
horizontal = 1;
place = (-15,91);
type = Stem;
},
{
horizontal = 1;
place = (-15,21);
target = up;
type = BottomGhost;
},
{
place = (469,61);
type = Stem;
},
{
place = (326,140);
type = Stem;
},
{
place = (287,62);
type = Stem;
},
{
place = (46,145);
type = Stem;
}
);
layerId = m01;
shapes = (
{
closed = 1;
nodes = (
(191,247,o),
(223,348,o),
(270,391,cs),
(295,414,o),
(318,425,o),
(340,425,cs),
(358,425,o),
(376,420,o),
(392,411,c),
(336,154,ls),
(335,148,o),
(334,143,o),
(333,137,c),
(301,106,o),
(272,87,o),
(246,87,cs),
(212,87,o),
(191,113,o),
(191,176,cs)
);
},
{
closed = 1;
nodes = (
(484,-15,o),
(551,55,o),
(587,118,c),
(556,139,l),
(525,99,o),
(503,76,o),
(484,76,cs),
(473,76,o),
(466,83,o),
(466,96,cs),
(466,107,o),
(469,121,o),
(474,139,cs),
(554,489,l),
(537,501,l),
(464,467,l),
(441,487,o),
(414,499,o),
(384,499,cs),
(237,499,o),
(46,303,o),
(46,124,cs),
(46,21,o),
(97,-15,o),
(152,-15,cs),
(208,-15,o),
(272,27,o),
(326,87,c),
(326,84,o),
(326,80,o),
(326,76,cs),
(326,14,o),
(360,-15,o),
(409,-15,cs)
);
},
{
closed = 1;
nodes = (
(368,603,o),
(349,629,o),
(349,659,cs),
(349,696,o),
(375,732,o),
(415,732,cs),
(452,732,o),
(469,704,o),
(469,676,cs),
(469,635,o),
(440,603,o),
(401,603,cs)
);
},
{
closed = 1;
nodes = (
(467,553,o),
(530,598,o),
(530,681,cs),
(530,744,o),
(481,782,o),
(418,782,cs),
(351,782,o),
(287,734,o),
(287,654,cs),
(287,593,o),
(336,553,o),
(401,553,cs)
);
}
);
width = 569;
}
);
note = aring;
unicode = 229;
},
{
glyphname = aogonek;
kernLeft = a;
kernRight = a;
layers = (
{
anchors = (
{
name = top;
pos = (384,516);
}
);
hints = (
{
horizontal = 1;
place = (489,-20);
target = down;
type = TopGhost;
},
{
horizontal = 1;
place = (425,74);
type = Stem;
},
{
horizontal = 1;
place = (-15,102);
type = Stem;
},
{
horizontal = 1;
place = (-234,64);
type = Stem;
},
{
horizontal = 1;
place = (-14,21);
target = up;
type = BottomGhost;
},
{
horizontal = 1;
place = (-15,21);
target = up;
type = BottomGhost;
},
{
place = (333,94);
type = Stem;
},
{
place = (326,140);
type = Stem;
},
{
place = (46,145);
type = Stem;
}
);
layerId = m01;
shapes = (
{
closed = 1;
nodes = (
(191,247,o),
(223,348,o),
(270,391,cs),
(295,414,o),
(318,425,o),
(340,425,cs),
(358,425,o),
(376,420,o),
(392,411,c),
(336,154,ls),
(335,148,o),
(334,143,o),
(333,137,c),
(301,106,o),
(272,87,o),
(246,87,cs),
(212,87,o),
(191,113,o),
(191,176,cs)
);
},
{
closed = 1;
nodes = (
(333,-204,o),
(364,-234,o),
(422,-234,cs),
(477,-234,o),
(517,-207,o),
(544,-179,c),
(528,-152,l),
(511,-163,o),
(491,-170,o),
(472,-170,cs),
(445,-170,o),
(427,-154,o),
(427,-121,cs),
(427,-79,o),
(453,-34,o),
(508,21,cs),
(539,52,o),
(567,85,o),
(587,118,c),
(556,139,l),
(525,99,o),
(503,76,o),
(484,76,cs),
(473,76,o),
(466,83,o),
(466,96,cs),
(466,107,o),
(469,121,o),
(474,139,cs),
(554,489,l),
(537,501,l),
(464,467,l),
(441,487,o),
(414,499,o),
(384,499,cs),
(237,499,o),
(46,303,o),
(46,124,cs),
(46,21,o),
(97,-15,o),
(152,-15,cs),
(208,-15,o),
(272,27,o),
(326,87,c),
(326,84,o),
(326,80,o),
(326,76,cs),
(326,14,o),
(360,-15,o),
(409,-15,cs),
(415,-15,o),
(421,-15,o),
(426,-14,c),
(373,-63,o),
(333,-108,o),
(333,-158,cs)
);
}
);
width = 569;
}
);
note = aogonek;
unicode = 261;
},
{
glyphname = ae;
kernLeft = a;
kernRight = e;
layers = (
{
anchors = (
{
name = bottom;
pos = (347,-22);
},
{
name = top;
pos = (496,516);
}
);
hints = (
{
horizontal = 1;
place = (444,55);
type = Stem;
},
{
horizontal = 1;
place = (425,74);
type = Stem;
},
{
horizontal = 1;
place = (-15,103);
type = Stem;
},
{
horizontal = 1;
place = (-15,102);
type = Stem;
},
{
place = (655,116);
type = Stem;
},
{
place = (336,143);
type = Stem;
},
{
place = (336,141);
type = Stem;
},
{
place = (46,145);
type = Stem;
}
);
layerId = m01;
shapes = (
{
closed = 1;
nodes = (
(191,247,o),
(223,348,o),
(270,391,cs),
(295,414,o),
(318,425,o),
(340,425,cs),
(362,425,o),
(393,414,o),
(417,396,c),
(366,337,o),
(336,257,o),
(336,173,cs),
(336,162,o),
(337,151,o),
(338,141,c),
(306,109,o),
(275,87,o),
(246,87,cs),
(212,87,o),
(191,113,o),
(191,176,cs)
);
},
{
closed = 1;
nodes = (
(638,444,o),
(655,428,o),
(655,395,cs),
(655,340,o),
(613,270,o),
(477,223,c),
(483,341,o),
(563,444,o),
(618,444,cs)
);
},
{
closed = 1;
nodes = (
(619,-15,o),
(699,64,o),
(740,141,c),
(712,161,l),
(681,122,o),
(635,88,o),
(577,88,cs),
(522,88,o),
(486,118,o),
(479,182,c),
(677,231,o),
(771,307,o),
(771,391,cs),
(771,455,o),
(722,499,o),
(632,499,cs),
(577,499,o),
(527,483,o),
(484,455,c),
(457,481,o),
(420,499,o),
(384,499,cs),
(237,499,o),
(46,303,o),
(46,124,cs),
(46,21,o),
(97,-15,o),
(152,-15,cs),
(215,-15,o),
(290,32,o),
(347,100,c),
(370,27,o),
(431,-15,o),
(511,-15,cs)
);
}
);
width = 757;
}
);
note = ae;
unicode = 230;
},
{
glyphname = ccedilla;
kernLeft = c;
kernRight = c;
layers = (
{
hints = (
{
horizontal = 1;
place = (446,53);
type = Stem;
},
{
horizontal = 1;
place = (340,159);
type = Stem;
},
{
horizontal = 1;
place = (-232,48);
type = Stem;
},
{
horizontal = 1;
place = (-14,21);
target = up;
type = BottomGhost;
},
{
place = (232,78);
type = Stem;
},
{
place = (50,143);
type = Stem;
}
);
layerId = m01;
shapes = (
{
closed = 1;
nodes = (
(164,-90,l),
(205,-98,o),
(232,-114,o),
(232,-143,cs),
(232,-168,o),
(210,-184,o),
(179,-184,cs),
(160,-184,o),
(140,-179,o),
(121,-170,c),
(103,-208,l),
(123,-222,o),
(157,-232,o),
(195,-232,cs),
(271,-232,o),
(310,-193,o),
(310,-150,cs),
(310,-107,o),
(283,-82,o),
(220,-62,c),
(243,-14,l),
(338,-5,o),
(415,66,o),
(454,141,c),
(427,161,l),
(389,115,o),
(341,88,o),
(299,88,cs),
(235,88,o),
(193,124,o),
(193,204,cs),
(193,294,o),
(232,394,o),
(313,446,c),
(344,394,ls),
(360,366,o),
(379,340,o),
(413,340,cs),
(451,340,o),
(482,368,o),
(483,405,c),
(467,463,o),
(416,499,o),
(343,499,cs),
(177,499,o),
(50,346,o),
(50,175,cs),
(50,65,o),
(111,-4,o),
(202,-14,c)
);
}
);
width = 468;
}
);
note = ccedilla;
unicode = 231;
},
{
glyphname = cacute;
kernLeft = c;
kernRight = c;
layers = (
{
hints = (
{
horizontal = 1;
place = (446,53);
type = Stem;
},
{
horizontal = 1;
place = (340,159);
type = Stem;
},
{
horizontal = 1;
place = (-15,103);
type = Stem;
},
{
place = (50,143);
type = Stem;
}
);
layerId = m01;
shapes = (
{
closed = 1;
nodes = (
(327,-15,o),
(412,61,o),
(454,141,c),
(427,161,l),
(389,115,o),
(341,88,o),
(299,88,cs),
(235,88,o),
(193,124,o),
(193,204,cs),
(193,294,o),
(232,394,o),
(313,446,c),
(344,394,ls),
(360,366,o),
(379,340,o),
(413,340,cs),
(451,340,o),
(482,368,o),
(483,405,c),
(467,463,o),
(416,499,o),
(343,499,cs),
(177,499,o),
(50,346,o),
(50,175,cs),
(50,57,o),
(121,-15,o),
(223,-15,cs)
);
},
{
closed = 1;
nodes = (
(365,538,l),
(400,572,o),
(436,605,o),
(471,640,cs),
(503,669,o),
(520,696,o),
(520,726,cs),
(520,761,o),
(490,783,o),
(460,783,cs),
(430,783,o),
(404,768,o),
(384,709,cs),
(366,659,o),
(350,608,o),
(333,558,c)
);
}
);
width = 468;
}
);
note = cacute;
unicode = 263;
},
{
glyphname = ccaron;
kernLeft = c;
kernRight = c;
layers = (
{
hints = (
{
horizontal = 1;
place = (446,53);
type = Stem;
},
{
horizontal = 1;
place = (340,159);
type = Stem;
},
{
horizontal = 1;
place = (-15,103);
type = Stem;
},
{
place = (50,143);
type = Stem;
}
);
layerId = m01;
shapes = (
{
closed = 1;
nodes = (
(327,-15,o),
(412,61,o),
(454,141,c),
(427,161,l),
(389,115,o),
(341,88,o),
(299,88,cs),
(235,88,o),
(193,124,o),
(193,204,cs),
(193,294,o),
(232,394,o),
(313,446,c),
(344,394,ls),
(360,366,o),
(379,340,o),
(413,340,cs),
(451,340,o),
(482,368,o),
(483,405,c),
(467,463,o),
(416,499,o),
(343,499,cs),
(177,499,o),
(50,346,o),
(50,175,cs),
(50,57,o),
(121,-15,o),
(223,-15,cs)
);
},
{
closed = 1;
nodes = (
(262,768,l),
(225,743,l),
(311,557,l),
(385,557,l),
(542,737,l),
(510,769,l),
(364,656,l)
);
}
);
width = 468;
}
);
note = ccaron;
unicode = 269;
},
{
glyphname = dcaron;
kernLeft = a;
kernRight = dcaron;
layers = (
{
hints = (
{
horizontal = 1;
place = (719,-20);
target = down;
type = TopGhost;
},
{
horizontal = 1;
place = (495,-20);
target = down;
type = TopGhost;
},
{
horizontal = 1;
place = (425,74);
type = Stem;
},
{
horizontal = 1;
place = (-15,102);
type = Stem;
},
{
horizontal = 1;
place = (-15,91);
type = Stem;
},
{
horizontal = 1;
place = (-15,21);
target = up;
type = BottomGhost;
},
{
place = (329,140);
type = Stem;
},
{
place = (47,144);
type = Stem;
}
);
layerId = m01;
shapes = (
{
closed = 1;
nodes = (
(705,743,o),
(692,741,o),
(672,732,c),
(626,506,l),
(673,502,l),
(718,582,ls),
(745,629,o),
(770,672,o),
(770,707,cs),
(770,725,o),
(757,743,o),
(723,743,cs)
);
},
{
closed = 1;
nodes = (
(191,244,o),
(222,348,o),
(268,393,cs),
(285,410,o),
(313,425,o),
(338,425,cs),
(361,425,o),
(377,420,o),
(393,411,c),
(339,152,ls),
(338,148,o),
(337,143,o),
(336,139,c),
(304,107,o),
(275,87,o),
(247,87,cs),
(213,87,o),
(191,113,o),
(191,177,cs)
);
},
{
closed = 1;
nodes = (
(597,707,l),
(581,719,l),
(369,656,l),
(363,618,l),
(439,610,l),
(416,495,l),
(405,498,o),
(394,499,o),
(383,499,cs),
(233,499,o),
(47,303,o),
(47,127,cs),
(47,21,o),
(96,-15,o),
(151,-15,cs),
(208,-15,o),
(276,27,o),
(330,89,c),
(329,82,o),
(329,74,o),
(329,68,cs),
(329,21,o),
(357,-15,o),
(405,-15,cs),
(480,-15,o),
(550,47,o),
(589,118,c),
(559,138,l),
(528,97,o),
(502,76,o),
(486,76,cs),
(476,76,o),
(469,83,o),
(469,96,cs),
(469,107,o),
(471,119,o),
(476,140,cs)
);
}
);
width = 616;
}
);
note = dcaron;
unicode = 271;
},
{
glyphname = dcroat;
kernLeft = a;
kernRight = d;
layers = (
{
hints = (
{
horizontal = 1;
place = (719,-20);
target = down;
type = TopGhost;
},
{
horizontal = 1;
place = (522,43);
type = Stem;
},
{
horizontal = 1;
place = (402,74);
type = Stem;
},
{
horizontal = 1;
place = (-15,102);
type = Stem;
},
{
horizontal = 1;
place = (-15,91);
type = Stem;
},
{
place = (329,140);
type = Stem;
},
{
place = (47,144);
type = Stem;
}
);
layerId = m01;
shapes = (
{
closed = 1;
nodes = (
(191,238,o),
(223,328,o),
(265,370,cs),
(282,388,o),
(310,402,o),
(335,402,cs),
(357,402,o),
(373,397,o),
(389,389,c),
(339,152,ls),
(338,148,o),
(337,143,o),
(336,139,c),
(304,107,o),
(275,87,o),
(247,87,cs),
(213,87,o),
(191,113,o),
(191,177,cs)
);
},
{
closed = 1;
nodes = (
(558,522,l),
(645,522,l),
(654,565,l),
(567,565,l),
(597,707,l),
(581,719,l),
(369,656,l),
(363,618,l),
(440,612,l),
(430,565,l),
(295,565,l),
(286,522,l),
(421,522,l),
(411,472,l),
(401,475,o),
(391,476,o),
(380,476,cs),
(232,476,o),
(47,292,o),
(47,127,cs),
(47,21,o),
(96,-15,o),
(151,-15,cs),
(208,-15,o),
(276,27,o),
(330,89,c),
(329,82,o),
(329,74,o),
(329,68,cs),
(329,21,o),
(357,-15,o),
(405,-15,cs),
(480,-15,o),
(550,47,o),
(589,118,c),
(559,138,l),
(528,97,o),
(502,76,o),
(486,76,cs),
(476,76,o),
(469,83,o),
(469,96,cs),
(469,107,o),
(471,119,o),
(476,140,cs)
);
}
);
width = 572;
}
);
note = dcroat;
unicode = 273;
},
{
glyphname = egrave;
kernLeft = c;
kernRight = e;
layers = (
{
hints = (
{
horizontal = 1;
place = (444,55);
type = Stem;
},
{
horizontal = 1;
place = (-15,103);
type = Stem;
},
{
place = (369,116);
type = Stem;
},
{
place = (50,143);
type = Stem;
},
{
place = (50,141);
type = Stem;
}
);
layerId = m01;
shapes = (
{
closed = 1;
nodes = (
(352,444,o),
(369,428,o),
(369,395,cs),
(369,340,o),
(327,270,o),
(191,223,c),
(197,341,o),
(277,444,o),
(332,444,cs)
);
},
{
closed = 1;
nodes = (
(333,-15,o),
(413,64,o),
(454,141,c),
(426,161,l),
(395,122,o),
(349,88,o),
(291,88,cs),
(236,88,o),
(200,118,o),
(193,182,c),
(391,231,o),
(485,307,o),
(485,391,cs),
(485,455,o),
(436,499,o),
(346,499,cs),
(177,499,o),
(50,346,o),
(50,173,cs),
(50,56,o),
(121,-15,o),
(225,-15,cs)
);
},
{
closed = 1;
nodes = (
(387,557,l),
(370,608,o),
(355,659,o),
(337,709,cs),
(318,768,o),
(291,783,o),
(261,783,cs),
(232,783,o),
(201,761,o),
(201,727,cs),
(201,696,o),
(219,669,o),
(250,640,cs),
(285,605,o),
(321,573,o),
(357,538,c)
);
}
);
width = 471;
}
);
note = egrave;
unicode = 232;
},
{
glyphname = eacute;
kernLeft = c;
kernRight = e;
layers = (
{
hints = (
{
horizontal = 1;
place = (444,55);
type = Stem;
},
{
horizontal = 1;
place = (-15,103);
type = Stem;
},
{
place = (369,116);
type = Stem;
},
{
place = (50,143);
type = Stem;
},
{
place = (50,141);
type = Stem;
}
);
layerId = m01;
shapes = (
{
closed = 1;
nodes = (
(352,444,o),
(369,428,o),
(369,395,cs),
(369,340,o),
(327,270,o),
(191,223,c),
(197,341,o),
(277,444,o),
(332,444,cs)
);
},
{
closed = 1;
nodes = (
(333,-15,o),
(413,64,o),
(454,141,c),
(426,161,l),
(395,122,o),
(349,88,o),
(291,88,cs),
(236,88,o),
(200,118,o),
(193,182,c),
(391,231,o),
(485,307,o),
(485,391,cs),
(485,455,o),
(436,499,o),
(346,499,cs),
(177,499,o),
(50,346,o),
(50,173,cs),
(50,56,o),
(121,-15,o),
(225,-15,cs)
);
},
{
closed = 1;
nodes = (
(360,538,l),
(395,572,o),
(431,605,o),
(466,640,cs),
(498,669,o),
(515,696,o),
(515,726,cs),
(515,761,o),
(485,783,o),
(455,783,cs),
(425,783,o),
(399,768,o),
(379,709,cs),
(361,659,o),
(345,608,o),
(328,558,c)
);
}
);
width = 471;
}
);
note = eacute;
unicode = 233;
},
{
glyphname = ecircumflex;
kernLeft = c;
kernRight = e;
layers = (
{
hints = (
{
horizontal = 1;
place = (444,55);
type = Stem;
},
{
horizontal = 1;
place = (-15,103);
type = Stem;
},
{
place = (369,116);
type = Stem;
},
{
place = (50,143);
type = Stem;
},
{
place = (50,141);
type = Stem;
}
);
layerId = m01;
shapes = (
{
closed = 1;
nodes = (
(352,444,o),
(369,428,o),
(369,395,cs),
(369,340,o),
(327,270,o),
(191,223,c),
(197,341,o),
(277,444,o),
(332,444,cs)
);
},
{
closed = 1;
nodes = (
(333,-15,o),
(413,64,o),
(454,141,c),
(426,161,l),
(395,122,o),
(349,88,o),
(291,88,cs),
(236,88,o),
(200,118,o),
(193,182,c),
(391,231,o),
(485,307,o),
(485,391,cs),
(485,455,o),
(436,499,o),
(346,499,cs),
(177,499,o),
(50,346,o),
(50,173,cs),
(50,56,o),
(121,-15,o),
(225,-15,cs)
);
},
{
closed = 1;
nodes = (
(481,545,l),
(515,571,l),
(410,753,l),
(347,753,l),
(182,576,l),
(211,543,l),
(363,654,l)
);
}
);
width = 471;
}
);
note = ecircumflex;
unicode = 234;
},
{
glyphname = ecaron;
kernLeft = c;
kernRight = e;
layers = (
{
hints = (
{
horizontal = 1;
place = (444,55);
type = Stem;
},
{
horizontal = 1;
place = (-15,103);
type = Stem;
},
{
place = (369,116);
type = Stem;
},
{
place = (50,143);
type = Stem;
},
{
place = (50,141);
type = Stem;
}
);
layerId = m01;
shapes = (
{
closed = 1;
nodes = (
(352,444,o),
(369,428,o),
(369,395,cs),
(369,340,o),
(327,270,o),
(191,223,c),
(197,341,o),
(277,444,o),
(332,444,cs)
);
},
{
closed = 1;
nodes = (
(333,-15,o),
(413,64,o),
(454,141,c),
(426,161,l),
(395,122,o),
(349,88,o),
(291,88,cs),
(236,88,o),
(200,118,o),
(193,182,c),
(391,231,o),
(485,307,o),
(485,391,cs),
(485,455,o),
(436,499,o),
(346,499,cs),
(177,499,o),
(50,346,o),
(50,173,cs),
(50,56,o),
(121,-15,o),
(225,-15,cs)
);
},
{
closed = 1;
nodes = (
(262,768,l),
(225,743,l),
(311,557,l),
(385,557,l),
(542,737,l),
(510,769,l),
(364,656,l)
);
}
);
width = 471;
}
);
note = ecaron;
unicode = 283;
},
{
glyphname = edieresis;
kernLeft = c;
kernRight = e;
layers = (
{
hints = (
{
horizontal = 1;
place = (594,143);
type = Stem;
},
{
horizontal = 1;
place = (444,55);
type = Stem;
},
{
horizontal = 1;
place = (-15,103);
type = Stem;
},
{
place = (407,143);
type = Stem;
},
{
place = (369,116);
type = Stem;
},
{
place = (184,144);
type = Stem;
},
{
place = (50,143);
type = Stem;
},
{
place = (50,141);
type = Stem;
}
);
layerId = m01;
shapes = (
{
closed = 1;
nodes = (
(352,444,o),
(369,428,o),
(369,395,cs),
(369,340,o),
(327,270,o),
(191,223,c),
(197,341,o),
(277,444,o),
(332,444,cs)
);
},
{
closed = 1;
nodes = (
(333,-15,o),
(413,64,o),
(454,141,c),
(426,161,l),
(395,122,o),
(349,88,o),
(291,88,cs),
(236,88,o),
(200,118,o),
(193,182,c),
(391,231,o),
(485,307,o),
(485,391,cs),
(485,455,o),
(436,499,o),
(346,499,cs),
(177,499,o),
(50,346,o),
(50,173,cs),
(50,56,o),
(121,-15,o),
(225,-15,cs)
);
},
{
closed = 1;
nodes = (
(290,594,o),
(328,624,o),
(328,675,cs),
(328,713,o),
(299,737,o),
(263,737,cs),
(224,737,o),
(184,708,o),
(184,657,cs),
(184,617,o),
(215,594,o),
(250,594,cs)
);
},
{
closed = 1;
nodes = (
(512,594,o),
(550,624,o),
(550,675,cs),
(550,713,o),
(521,737,o),
(485,737,cs),
(446,737,o),
(407,708,o),
(407,657,cs),
(407,617,o),
(438,594,o),
(472,594,cs)
);
}
);
width = 471;
}
);
note = edieresis;
unicode = 235;
},
{
glyphname = emacron;
kernLeft = c;
kernRight = e;
layers = (
{
hints = (
{
horizontal = 1;
place = (599,81);
type = Stem;
},
{
horizontal = 1;
place = (444,55);
type = Stem;
},
{
horizontal = 1;
place = (-15,103);
type = Stem;
},
{
place = (369,116);
type = Stem;
},
{
place = (50,143);
type = Stem;
},
{
place = (50,141);
type = Stem;
}
);
layerId = m01;
shapes = (
{
closed = 1;
nodes = (
(352,444,o),
(369,428,o),
(369,395,cs),
(369,340,o),
(327,270,o),
(191,223,c),
(197,341,o),
(277,444,o),
(332,444,cs)
);
},
{
closed = 1;
nodes = (
(333,-15,o),
(413,64,o),
(454,141,c),
(426,161,l),
(395,122,o),
(349,88,o),
(291,88,cs),
(236,88,o),
(200,118,o),
(193,182,c),
(391,231,o),
(485,307,o),
(485,391,cs),
(485,455,o),
(436,499,o),
(346,499,cs),
(177,499,o),
(50,346,o),
(50,173,cs),
(50,56,o),
(121,-15,o),
(225,-15,cs)
);
},
{
closed = 1;
nodes = (
(193,599,l),
(499,599,l),
(516,680,l),
(210,680,l)
);
}
);
width = 471;
}
);
note = emacron;
unicode = 275;
},
{
glyphname = edotaccent;
kernLeft = c;
kernRight = e;
layers = (
{
hints = (
{
horizontal = 1;
place = (444,55);
type = Stem;
},
{
horizontal = 1;
place = (-15,103);
type = Stem;
},
{
place = (369,116);
type = Stem;
},
{
place = (294,147);
type = Stem;
},
{
place = (50,143);
type = Stem;
},
{
place = (50,141);
type = Stem;
}
);
layerId = m01;
shapes = (
{
closed = 1;
nodes = (
(352,444,o),
(369,428,o),
(369,395,cs),
(369,340,o),
(327,270,o),
(191,223,c),
(197,341,o),
(277,444,o),
(332,444,cs)
);
},
{
closed = 1;
nodes = (
(333,-15,o),
(413,64,o),
(454,141,c),
(426,161,l),
(395,122,o),
(349,88,o),
(291,88,cs),
(236,88,o),
(200,118,o),
(193,182,c),
(391,231,o),
(485,307,o),
(485,391,cs),
(485,455,o),
(436,499,o),
(346,499,cs),
(177,499,o),
(50,346,o),
(50,173,cs),
(50,56,o),
(121,-15,o),
(225,-15,cs)
);
},
{
closed = 1;
nodes = (
(402,594,o),
(441,631,o),
(441,679,cs),
(441,721,o),
(415,748,o),
(375,748,cs),
(333,748,o),
(294,712,o),
(294,661,cs),
(294,618,o),
(322,594,o),
(358,594,cs)
);
}
);
width = 471;
}
);
note = edotaccent;
unicode = 279;
},
{
glyphname = eogonek;
kernLeft = c;
kernRight = e;
layers = (
{
anchors = (
{
name = top;
pos = (358,516);
}
);
hints = (
{
horizontal = 1;
place = (444,55);
type = Stem;
},
{
horizontal = 1;
place = (-15,103);
type = Stem;
},
{
horizontal = 1;
place = (-234,64);
type = Stem;
},
{
horizontal = 1;
place = (-8,21);
target = up;
type = BottomGhost;
},
{
place = (369,116);
type = Stem;
},
{
place = (178,93);
type = Stem;
},
{
place = (50,143);
type = Stem;
},
{
place = (50,141);
type = Stem;
}
);
layerId = m01;
shapes = (
{
closed = 1;
nodes = (
(352,444,o),
(369,428,o),
(369,395,cs),
(369,340,o),
(327,270,o),
(191,223,c),
(197,341,o),
(277,444,o),
(332,444,cs)
);
},
{
closed = 1;
nodes = (
(322,-234,o),
(361,-207,o),
(389,-179,c),
(373,-152,l),
(355,-163,o),
(336,-170,o),
(316,-170,cs),
(290,-170,o),
(271,-154,o),
(271,-121,cs),
(271,-77,o),
(299,-30,o),
(361,27,cs),
(399,63,o),
(430,101,o),
(454,141,c),
(426,161,l),
(395,122,o),
(349,88,o),
(291,88,cs),
(236,88,o),
(200,118,o),
(193,182,c),
(391,231,o),
(485,307,o),
(485,391,cs),
(485,455,o),
(436,499,o),
(346,499,cs),
(177,499,o),
(50,346,o),
(50,173,cs),
(50,56,o),
(121,-15,o),
(225,-15,cs),
(243,-15,o),
(261,-13,o),
(277,-8,c),
(219,-61,o),
(178,-107,o),
(178,-158,cs),
(178,-204,o),
(209,-234,o),
(267,-234,cs)
);
}
);
width = 471;
}
);
note = eogonek;
unicode = 281;
},
{
glyphname = gbreve;
kernLeft = g;
kernRight = g;
lastChange = "2024-07-16 19:45:42 +0000";
layers = (
{
hints = (
{
horizontal = 1;
origin = (0,13);
target = (0,6);
type = Stem;
},
{
origin = (0,10);
target = (0,2);
type = Stem;
}
);
layerId = m01;
shapes = (
{
closed = 1;
nodes = (
(464,563,o),
(517,651,o),
(534,719,c),
(493,731,l),
(465,680,o),
(420,653,o),
(361,653,cs),
(306,653,o),
(271,683,o),
(253,731,c),
(210,718,l),
(210,630,o),
(256,563,o),
(356,563,cs)
);
},
{
ref = g;
}
);
width = 554;
}
);
note = gbreve;
unicode = 287;
},
{
glyphname = gdotaccent;
kernLeft = g;
kernRight = g;
lastChange = "2024-07-16 19:45:34 +0000";
layers = (
{
hints = (
{
horizontal = 1;
origin = (0,11);
target = (0,5);
type = Stem;
},
{
origin = (0,8);
target = (0,2);
type = Stem;
}
);
layerId = m01;
shapes = (
{
closed = 1;
nodes = (
(402,594,o),
(441,631,o),
(441,679,cs),
(441,721,o),
(415,748,o),
(375,748,cs),
(333,748,o),
(294,712,o),
(294,661,cs),
(294,618,o),
(322,594,o),
(358,594,cs)
);
},
{
ref = g;
}
);
width = 554;
}
);
note = gdotaccent;
unicode = 289;
},
{
glyphname = uni0123;
kernLeft = g;
kernRight = g;
lastChange = "2024-07-16 19:45:28 +0000";
layers = (
{
hints = (
{
origin = (0,3);
target = (0,12);
type = Stem;
}
);
layerId = m01;
shapes = (
{
closed = 1;
nodes = (
(421,780,l),
(344,741,o),
(294,696,o),
(294,635,cs),
(294,613,o),
(298,602,o),
(306,586,c),
(326,570,o),
(342,566,o),
(361,566,cs),
(397,566,o),
(427,592,o),
(427,631,cs),
(427,657,o),
(411,677,o),
(383,701,c),
(399,718,o),
(418,730,o),
(443,746,c)
);
},
{
ref = g;
}
);
width = 554;
}
);
note = uni0123;
unicode = 291;
},
{
glyphname = igrave;
kernLeft = i;
kernRight = i;
layers = (
{
hints = (
{
horizontal = 1;
place = (500,-20);
target = down;
type = TopGhost;
},
{
horizontal = 1;
place = (-15,91);
type = Stem;
},
{
horizontal = 1;
place = (-15,21);
target = up;
type = BottomGhost;
},
{
place = (68,147);
type = Stem;
}
);
layerId = m01;
shapes = (
{
closed = 1;
nodes = (
(68,8,o),
(98,-15,o),
(145,-15,cs),
(231,-15,o),
(294,50,o),
(334,118,c),
(304,138,l),
(271,96,o),
(249,76,o),
(232,76,cs),
(222,76,o),
(215,83,o),
(215,96,cs),
(215,107,o),
(217,121,o),
(222,139,cs),
(297,486,l),
(281,500,l),
(68,436,l),
(62,398,l),
(133,391,l),
(82,150,ls),
(76,120,o),
(68,78,o),
(68,51,cs)
);
},
{
closed = 1;
nodes = (
(252,557,l),
(235,608,o),
(220,659,o),
(202,709,cs),
(183,768,o),
(156,783,o),
(126,783,cs),
(97,783,o),
(66,761,o),
(66,727,cs),
(66,696,o),
(84,669,o),
(115,640,cs),
(150,605,o),
(186,573,o),
(222,538,c)
);
}
);
width = 319;
}
);
note = igrave;
unicode = 236;
},
{
glyphname = iacute;
kernLeft = i;
kernRight = i;
layers = (
{
hints = (
{
horizontal = 1;
place = (500,-20);
target = down;
type = TopGhost;
},
{
horizontal = 1;
place = (-15,91);
type = Stem;
},
{
horizontal = 1;
place = (-15,21);
target = up;
type = BottomGhost;
},
{
place = (68,147);
type = Stem;
}
);
layerId = m01;
shapes = (
{
closed = 1;
nodes = (
(68,8,o),
(98,-15,o),
(145,-15,cs),
(231,-15,o),
(294,50,o),
(334,118,c),
(304,138,l),
(271,96,o),
(249,76,o),
(232,76,cs),
(222,76,o),
(215,83,o),
(215,96,cs),
(215,107,o),
(217,121,o),
(222,139,cs),
(297,486,l),
(281,500,l),
(68,436,l),
(62,398,l),
(133,391,l),
(82,150,ls),
(76,120,o),
(68,78,o),
(68,51,cs)
);
},
{
closed = 1;
nodes = (
(248,538,l),
(283,572,o),
(319,605,o),
(354,640,cs),
(386,669,o),
(403,696,o),
(403,726,cs),
(403,761,o),
(373,783,o),
(343,783,cs),
(313,783,o),
(287,768,o),
(267,709,cs),
(249,659,o),
(233,608,o),
(216,558,c)
);
}
);
width = 319;
}
);
note = iacute;
unicode = 237;
},
{
glyphname = icircumflex;
kernLeft = icircumflex;
kernRight = icircumflex;
layers = (
{
hints = (
{
horizontal = 1;
place = (500,-20);
target = down;
type = TopGhost;
},
{
horizontal = 1;
place = (-15,91);
type = Stem;
},
{
horizontal = 1;
place = (-15,21);
target = up;
type = BottomGhost;
},
{
place = (68,147);
type = Stem;
}
);
layerId = m01;
shapes = (
{
closed = 1;
nodes = (
(68,8,o),
(98,-15,o),
(145,-15,cs),
(231,-15,o),
(294,50,o),
(334,118,c),
(304,138,l),
(271,96,o),
(249,76,o),
(232,76,cs),
(222,76,o),
(215,83,o),
(215,96,cs),
(215,107,o),
(217,121,o),
(222,139,cs),
(297,486,l),
(281,500,l),
(68,436,l),
(62,398,l),
(133,391,l),
(82,150,ls),
(76,120,o),
(68,78,o),
(68,51,cs)
);
},
{
closed = 1;
nodes = (
(369,545,l),
(403,571,l),
(298,753,l),
(235,753,l),
(70,576,l),
(99,543,l),
(251,654,l)
);
}
);
width = 319;
}
);
note = icircumflex;
unicode = 238;
},
{
glyphname = idieresis;
kernLeft = icircumflex;
kernRight = icircumflex;
layers = (
{
hints = (
{
horizontal = 1;
place = (500,-20);
target = down;
type = TopGhost;
},
{
horizontal = 1;
place = (594,143);
type = Stem;
},
{
horizontal = 1;
place = (-15,91);
type = Stem;
},
{
horizontal = 1;
place = (-15,21);
target = up;
type = BottomGhost;
},
{
place = (306,143);
type = Stem;
},
{
place = (83,144);
type = Stem;
},
{
place = (68,147);
type = Stem;
}
);
layerId = m01;
shapes = (
{
closed = 1;
nodes = (
(68,8,o),
(98,-15,o),
(145,-15,cs),
(231,-15,o),
(294,50,o),
(334,118,c),
(304,138,l),
(271,96,o),
(249,76,o),
(232,76,cs),
(222,76,o),
(215,83,o),
(215,96,cs),
(215,107,o),
(217,121,o),
(222,139,cs),
(297,486,l),
(281,500,l),
(68,436,l),
(62,398,l),
(133,391,l),
(82,150,ls),
(76,120,o),
(68,78,o),
(68,51,cs)
);
},
{
closed = 1;
nodes = (
(189,594,o),
(227,624,o),
(227,675,cs),
(227,713,o),
(198,737,o),
(162,737,cs),
(123,737,o),
(83,708,o),
(83,657,cs),
(83,617,o),
(114,594,o),
(149,594,cs)
);
},
{
closed = 1;
nodes = (
(411,594,o),
(449,624,o),
(449,675,cs),
(449,713,o),
(420,737,o),
(384,737,cs),
(345,737,o),
(306,708,o),
(306,657,cs),
(306,617,o),
(337,594,o),
(371,594,cs)
);
}
);
width = 319;
}
);
note = idieresis;
unicode = 239;
},
{
glyphname = imacron;
kernLeft = icircumflex;
kernRight = icircumflex;
layers = (
{
hints = (
{
horizontal = 1;
place = (500,-20);
target = down;
type = TopGhost;
},
{
horizontal = 1;
place = (599,81);
type = Stem;
},
{
horizontal = 1;
place = (-15,91);
type = Stem;
},
{
horizontal = 1;
place = (-15,21);
target = up;
type = BottomGhost;
},
{
place = (68,147);
type = Stem;
}
);
layerId = m01;
shapes = (
{
closed = 1;
nodes = (
(68,8,o),
(98,-15,o),
(145,-15,cs),
(231,-15,o),
(294,50,o),
(334,118,c),
(304,138,l),
(271,96,o),
(249,76,o),
(232,76,cs),
(222,76,o),
(215,83,o),
(215,96,cs),
(215,107,o),
(217,121,o),
(222,139,cs),
(297,486,l),
(281,500,l),
(68,436,l),
(62,398,l),
(133,391,l),
(82,150,ls),
(76,120,o),
(68,78,o),
(68,51,cs)
);
},
{
closed = 1;
nodes = (
(84,599,l),
(390,599,l),
(407,680,l),
(101,680,l)
);
}
);
width = 319;
}
);
note = imacron;
unicode = 299;
},
{
glyphname = iogonek;
kernLeft = i;
kernRight = i;
layers = (
{
hints = (
{
horizontal = 1;
place = (500,-20);
target = down;
type = TopGhost;
},
{
horizontal = 1;
place = (593,156);
type = Stem;
},
{
horizontal = 1;
place = (-234,64);
type = Stem;
},
{
horizontal = 1;
place = (-12,21);
target = up;
type = BottomGhost;
},
{
horizontal = 1;
place = (-15,21);
target = up;
type = BottomGhost;
},
{
place = (176,159);
type = Stem;
},
{
place = (81,94);
type = Stem;
}
);
layerId = m01;
shapes = (
{
closed = 1;
nodes = (
(294,593,o),
(335,630,o),
(335,679,cs),
(335,720,o),
(304,749,o),
(262,749,cs),
(217,749,o),
(176,714,o),
(176,664,cs),
(176,620,o),
(211,593,o),
(249,593,cs)
);
},
{
closed = 1;
nodes = (
(68,8,o),
(98,-15,o),
(145,-15,cs),
(155,-15,o),
(166,-14,o),
(177,-12,c),
(121,-62,o),
(81,-108,o),
(81,-158,cs),
(81,-204,o),
(112,-234,o),
(170,-234,cs),
(225,-234,o),
(265,-207,o),
(292,-179,c),
(276,-152,l),
(258,-163,o),
(239,-170,o),
(219,-170,cs),
(193,-170,o),
(175,-154,o),
(175,-121,cs),
(175,-78,o),
(201,-34,o),
(257,23,cs),
(286,52,o),
(313,83,o),
(334,118,c),
(304,138,l),
(271,96,o),
(249,76,o),
(232,76,cs),
(222,76,o),
(215,83,o),
(215,96,cs),
(215,107,o),
(217,121,o),
(222,139,cs),
(297,486,l),
(281,500,l),
(68,436,l),
(62,398,l),
(132,391,l),
(82,150,ls),
(76,120,o),
(68,78,o),
(68,51,cs)
);
}
);
width = 319;
}
);
note = iogonek;
unicode = 303;
},
{
glyphname = i.trk;
kernLeft = i;
kernRight = i;
layers = (
{
hints = (
{
horizontal = 1;
place = (500,-20);
target = down;
type = TopGhost;
},
{
horizontal = 1;
place = (593,156);
type = Stem;
},
{
horizontal = 1;
place = (-15,91);
type = Stem;
},
{
horizontal = 1;
place = (-15,21);
target = up;
type = BottomGhost;
},
{
place = (176,159);
type = Stem;
},
{
place = (68,147);
type = Stem;
}
);
layerId = m01;
shapes = (
{
closed = 1;
nodes = (
(68,8,o),
(98,-15,o),
(145,-15,cs),
(231,-15,o),
(294,50,o),
(334,118,c),
(304,138,l),
(271,96,o),
(249,76,o),
(232,76,cs),
(222,76,o),
(215,83,o),
(215,96,cs),
(215,107,o),
(217,121,o),
(222,139,cs),
(297,486,l),
(281,500,l),
(68,436,l),
(62,398,l),
(133,391,l),
(82,150,ls),
(76,120,o),
(68,78,o),
(68,51,cs)
);
},
{
closed = 1;
nodes = (
(294,593,o),
(335,630,o),
(335,679,cs),
(335,720,o),
(304,749,o),
(262,749,cs),
(217,749,o),
(176,714,o),
(176,664,cs),
(176,620,o),
(211,593,o),
(249,593,cs)
);
}
);
width = 319;
}
);
note = i.trk;
},
{
glyphname = dotlessi;
kernLeft = m;
kernRight = i;
layers = (
{
anchors = (
{
name = bottom;
pos = (149,-22);
},
{
name = ogonek;
pos = (196,0);
},
{
name = top;
pos = (223,516);
}
);
hints = (
{
horizontal = 1;
place = (500,-20);
target = down;
type = TopGhost;
},
{
horizontal = 1;
place = (-15,91);
type = Stem;
},
{
horizontal = 1;
place = (-15,21);
target = up;
type = BottomGhost;
},
{
place = (68,147);
type = Stem;
}
);
layerId = m01;
shapes = (
{
closed = 1;
nodes = (
(68,8,o),
(98,-15,o),
(145,-15,cs),
(231,-15,o),
(294,50,o),
(334,118,c),
(304,138,l),
(271,96,o),
(249,76,o),
(232,76,cs),
(222,76,o),
(215,83,o),
(215,96,cs),
(215,107,o),
(217,121,o),
(222,139,cs),
(297,486,l),
(281,500,l),
(68,436,l),
(62,398,l),
(133,391,l),
(82,150,ls),
(76,120,o),
(68,78,o),
(68,51,cs)
);
}
);
width = 319;
}
);
note = dotlessi;
unicode = 305;
},
{
glyphname = uni0237;
kernLeft = j;
kernRight = j;
layers = (
{
anchors = (
{
name = top;
pos = (223,516);
}
);
hints = (
{
horizontal = 1;
place = (500,-20);
target = down;
type = TopGhost;
},
{
place = (-64,357);
type = Stem;
}
);
layerId = m01;
shapes = (
{
closed = 1;
nodes = (
(-58,-236,l),
(20,-232,o),
(79,-200,o),
(118,-154,cs),
(161,-107,o),
(188,-41,o),
(210,63,cs),
(293,485,l),
(276,500,l),
(68,436,l),
(62,398,l),
(133,391,l),
(69,51,ls),
(49,-56,o),
(33,-113,o),
(10,-147,cs),
(-10,-177,o),
(-33,-191,o),
(-64,-203,c)
);
}
);
width = 291;
}
);
note = uni0237;
unicode = 567;
},
{
glyphname = uni0137;
kernLeft = b;
kernRight = k;
layers = (
{
hints = (
{
horizontal = 1;
place = (719,-20);
target = down;
type = TopGhost;
},
{
horizontal = 1;
place = (493,-20);
target = down;
type = TopGhost;
},
{
horizontal = 1;
place = (243,22.5);
type = Stem;
},
{
horizontal = 1;
place = (-15,51);
type = Stem;
},
{
horizontal = 1;
place = (-8,21);
target = up;
type = BottomGhost;
},
{
horizontal = 1;
place = (-15,21);
target = up;
type = BottomGhost;
},
{
horizontal = 1;
place = (-231,21);
target = up;
type = BottomGhost;
},
{
place = (161,132);
type = Stem;
}
);
layerId = m01;
shapes = (
{
closed = 1;
nodes = (
(38,4,l),
(52,-8,l),
(182,0,l),
(194,72,o),
(205,129,o),
(224,215,cs),
(230,243,l),
(248,233,o),
(256,216,o),
(271,171,cs),
(301,83,ls),
(327,5,o),
(370,-15,o),
(434,-15,cs),
(469,-15,o),
(500,-10,o),
(529,0,c),
(534,34,l),
(505,38,ls),
(481,42,o),
(467,55,o),
(451,91,cs),
(421,164,ls),
(395,224,o),
(350,257,o),
(285,264,cs),
(243,267,l),
(453,339,l),
(519,358,o),
(547,381,o),
(547,420,cs),
(547,458,o),
(520,487,o),
(480,493,c),
(240,290,l),
(328,707,l),
(315,719,l),
(101,656,l),
(96,618,l),
(164,611,l),
(154,549,o),
(140,487,o),
(127,425,cs)
);
},
{
closed = 1;
nodes = (
(166,-266,l),
(244,-227,o),
(293,-182,o),
(293,-121,cs),
(293,-99,o),
(290,-88,o),
(282,-72,c),
(262,-56,o),
(245,-51,o),
(226,-51,cs),
(190,-51,o),
(161,-78,o),
(161,-117,cs),
(161,-143,o),
(177,-163,o),
(204,-187,c),
(189,-203,o),
(170,-216,o),
(145,-231,c)
);
}
);
width = 528;
}
);
note = uni0137;
unicode = 311;
},
{
glyphname = lacute;
kernLeft = b;
kernRight = d;
layers = (
{
hints = (
{
horizontal = 1;
place = (719,-20);
target = down;
type = TopGhost;
},
{
horizontal = 1;
place = (-15,91);
type = Stem;
},
{
horizontal = 1;
place = (-15,21);
target = up;
type = BottomGhost;
},
{
place = (59,146);
type = Stem;
}
);
layerId = m01;
shapes = (
{
closed = 1;
nodes = (
(222,-15,o),
(285,51,o),
(324,118,c),
(294,138,l),
(261,96,o),
(239,76,o),
(223,76,cs),
(213,76,o),
(205,83,o),
(205,97,cs),
(205,107,o),
(207,121,o),
(212,140,cs),
(332,707,l),
(317,719,l),
(104,656,l),
(99,618,l),
(166,611,l),
(156,549,o),
(143,486,o),
(130,425,cs),
(78,174,ls),
(65,115,o),
(59,80,o),
(59,53,cs),
(59,9,o),
(88,-15,o),
(136,-15,cs)
);
},
{
closed = 1;
nodes = (
(233,737,l),
(288,756,o),
(343,777,o),
(398,797,cs),
(449,816,o),
(459,842,o),
(459,865,cs),
(459,890,o),
(440,915,o),
(408,915,cs),
(380,915,o),
(362,907,o),
(328,878,cs),
(289,843,o),
(250,806,o),
(212,770,c)
);
}
);
width = 307;
}
);
note = lacute;
unicode = 314;
},
{
glyphname = lcaron;
kernLeft = b;
kernRight = dcaron;
layers = (
{
hints = (
{
horizontal = 1;
place = (719,-20);
target = down;
type = TopGhost;
},
{
horizontal = 1;
place = (-15,91);
type = Stem;
},
{
horizontal = 1;
place = (-15,21);
target = up;
type = BottomGhost;
},
{
place = (59,444);
type = Stem;
},
{
place = (59,146);
type = Stem;
}
);
layerId = m01;
shapes = (
{
closed = 1;
nodes = (
(438,743,o),
(425,741,o),
(405,732,c),
(359,506,l),
(406,502,l),
(451,582,ls),
(478,629,o),
(503,672,o),
(503,707,cs),
(503,725,o),
(490,743,o),
(456,743,cs)
);
},
{
closed = 1;
nodes = (
(222,-15,o),
(285,51,o),
(324,118,c),
(294,138,l),
(261,96,o),
(239,76,o),
(223,76,cs),
(213,76,o),
(205,83,o),
(205,97,cs),
(205,107,o),
(207,121,o),
(212,140,cs),
(332,707,l),
(317,719,l),
(104,656,l),
(99,618,l),
(166,611,l),
(156,549,o),
(143,486,o),
(130,425,cs),
(78,174,ls),
(65,115,o),
(59,80,o),
(59,53,cs),
(59,9,o),
(88,-15,o),
(136,-15,cs)
);
}
);
width = 349;
}
);
note = lcaron;
unicode = 318;
},
{
glyphname = uni013C;
kernLeft = b;
kernRight = d;
layers = (
{
hints = (
{
horizontal = 1;
place = (719,-20);
target = down;
type = TopGhost;
},
{
horizontal = 1;
place = (-15,91);
type = Stem;
},
{
horizontal = 1;
place = (-15,21);
target = up;
type = BottomGhost;
},
{
horizontal = 1;
place = (-231,21);
target = up;
type = BottomGhost;
},
{
place = (59,146);
type = Stem;
},
{
place = (43,132);
type = Stem;
}
);
layerId = m01;
shapes = (
{
closed = 1;
nodes = (
(222,-15,o),
(285,51,o),
(324,118,c),
(294,138,l),
(261,96,o),
(239,76,o),
(223,76,cs),
(213,76,o),
(205,83,o),
(205,97,cs),
(205,107,o),
(207,121,o),
(212,140,cs),
(332,707,l),
(317,719,l),
(104,656,l),
(99,618,l),
(166,611,l),
(156,549,o),
(143,486,o),
(130,425,cs),
(78,174,ls),
(65,115,o),
(59,80,o),
(59,53,cs),
(59,9,o),
(88,-15,o),
(136,-15,cs)
);
},
{
closed = 1;
nodes = (
(48,-266,l),
(126,-227,o),
(175,-182,o),
(175,-121,cs),
(175,-99,o),
(172,-88,o),
(164,-72,c),
(144,-56,o),
(127,-51,o),
(108,-51,cs),
(72,-51,o),
(43,-78,o),
(43,-117,cs),
(43,-143,o),
(59,-163,o),
(86,-187,c),
(71,-203,o),
(52,-216,o),
(27,-231,c)
);
}
);
width = 307;
}
);
note = uni013C;
unicode = 316;
},
{
glyphname = ldot;
kernLeft = b;
layers = (
{
hints = (
{
horizontal = 1;
place = (719,-20);
target = down;
type = TopGhost;
},
{
horizontal = 1;
place = (273,174);
type = Stem;
},
{
horizontal = 1;
place = (-15,91);
type = Stem;
},
{
horizontal = 1;
place = (-15,21);
target = up;
type = BottomGhost;
},
{
place = (291,179);
type = Stem;
},
{
place = (59,146);
type = Stem;
}
);
layerId = m01;
shapes = (
{
closed = 1;
nodes = (
(222,-15,o),
(285,51,o),
(324,118,c),
(294,138,l),
(261,96,o),
(239,76,o),
(223,76,cs),
(213,76,o),
(205,83,o),
(205,97,cs),
(205,107,o),
(207,121,o),
(212,140,cs),
(332,707,l),
(317,719,l),
(104,656,l),
(99,618,l),
(166,611,l),
(156,549,o),
(143,486,o),
(130,425,cs),
(78,174,ls),
(65,115,o),
(59,80,o),
(59,53,cs),
(59,9,o),
(88,-15,o),
(136,-15,cs)
);
},
{
closed = 1;
nodes = (
(425,273,o),
(470,313,o),
(470,367,cs),
(470,411,o),
(437,447,o),
(389,447,cs),
(337,447,o),
(291,405,o),
(291,351,cs),
(291,309,o),
(325,273,o),
(373,273,cs)
);
}
);
width = 385;
}
);
note = ldot;
unicode = 320;
},
{
glyphname = lslash;
kernLeft = b;
kernRight = d;
layers = (
{
hints = (
{
horizontal = 1;
place = (719,-20);
target = down;
type = TopGhost;
},
{
horizontal = 1;
place = (-15,91);
type = Stem;
},
{
horizontal = 1;
place = (-15,21);
target = up;
type = BottomGhost;
},
{
place = (59,146);
type = Stem;
}
);
layerId = m01;
shapes = (
{
closed = 1;
nodes = (
(222,-15,o),
(285,51,o),
(324,118,c),
(294,138,l),
(261,96,o),
(239,76,o),
(223,76,cs),
(213,76,o),
(205,83,o),
(205,97,cs),
(205,107,o),
(207,121,o),
(212,140,cs),
(260,366,l),
(346,409,l),
(361,483,l),
(275,440,l),
(332,707,l),
(317,719,l),
(104,656,l),
(99,618,l),
(166,611,l),
(156,549,o),
(143,486,o),
(130,425,cs),
(120,376,l),
(39,335,l),
(24,261,l),
(104,302,l),
(78,174,ls),
(65,115,o),
(59,80,o),
(59,53,cs),
(59,9,o),
(88,-15,o),
(136,-15,cs)
);
}
);
width = 307;
}
);
note = lslash;
unicode = 322;
},
{
glyphname = nacute;
kernLeft = m;
kernRight = h;
layers = (
{
hints = (
{
horizontal = 1;
place = (500,-20);
target = down;
type = TopGhost;
},
{
horizontal = 1;
place = (499,-20);
target = down;
type = TopGhost;
},
{
horizontal = 1;
place = (-15,91);
type = Stem;
},
{
horizontal = 1;
place = (-8,21);
target = up;
type = BottomGhost;
},
{
horizontal = 1;
place = (-15,21);
target = up;
type = BottomGhost;
},
{
place = (405,150);
type = Stem;
},
{
place = (51,555);
type = Stem;
}
);
layerId = m01;
shapes = (
{
closed = 1;
nodes = (
(195,0,l),
(209,72,o),
(222,143,o),
(237,214,cs),
(263,335,l),
(310,377,o),
(350,396,o),
(379,396,cs),
(394,396,o),
(405,387,o),
(405,365,cs),
(405,349,o),
(400,322,o),
(392,291,cs),
(355,141,ls),
(347,111,o),
(338,78,o),
(338,48,cs),
(338,8,o),
(365,-15,o),
(413,-15,cs),
(498,-15,o),
(567,51,o),
(606,118,c),
(576,138,l),
(544,97,o),
(519,76,o),
(502,76,cs),
(492,76,o),
(486,83,o),
(486,96,cs),
(486,106,o),
(490,120,o),
(495,139,cs),
(542,328,ls),
(550,359,o),
(555,388,o),
(555,415,cs),
(555,471,o),
(522,499,o),
(479,499,cs),
(415,499,o),
(344,459,o),
(275,392,c),
(293,484,l),
(274,500,l),
(68,436,l),
(62,398,l),
(132,391,l),
(51,4,l),
(65,-8,l)
);
},
{
closed = 1;
nodes = (
(372,538,l),
(407,572,o),
(443,605,o),
(478,640,cs),
(510,669,o),
(527,696,o),
(527,726,cs),
(527,761,o),
(497,783,o),
(467,783,cs),
(437,783,o),
(411,768,o),
(391,709,cs),
(373,659,o),
(357,608,o),
(340,558,c)
);
}
);
width = 592;
}
);
note = nacute;
unicode = 324;
},
{
glyphname = ncaron;
kernLeft = m;
kernRight = h;
layers = (
{
hints = (
{
horizontal = 1;
place = (500,-20);
target = down;
type = TopGhost;
},
{
horizontal = 1;
place = (499,-20);
target = down;
type = TopGhost;
},
{
horizontal = 1;
place = (-15,91);
type = Stem;
},
{
horizontal = 1;
place = (-8,21);
target = up;
type = BottomGhost;
},
{
horizontal = 1;
place = (-15,21);
target = up;
type = BottomGhost;
},
{
place = (405,150);
type = Stem;
},
{
place = (51,555);
type = Stem;
}
);
layerId = m01;
shapes = (
{
closed = 1;
nodes = (
(195,0,l),
(209,72,o),
(222,143,o),
(237,214,cs),
(263,335,l),
(310,377,o),
(350,396,o),
(379,396,cs),
(394,396,o),
(405,387,o),
(405,365,cs),
(405,349,o),
(400,322,o),
(392,291,cs),
(355,141,ls),
(347,111,o),
(338,78,o),
(338,48,cs),
(338,8,o),
(365,-15,o),
(413,-15,cs),
(498,-15,o),
(567,51,o),
(606,118,c),
(576,138,l),
(544,97,o),
(519,76,o),
(502,76,cs),
(492,76,o),
(486,83,o),
(486,96,cs),
(486,106,o),
(490,120,o),
(495,139,cs),
(542,328,ls),
(550,359,o),
(555,388,o),
(555,415,cs),
(555,471,o),
(522,499,o),
(479,499,cs),
(415,499,o),
(344,459,o),
(275,392,c),
(293,484,l),
(274,500,l),
(68,436,l),
(62,398,l),
(132,391,l),
(51,4,l),
(65,-8,l)
);
},
{
closed = 1;
nodes = (
(287,768,l),
(250,743,l),
(336,557,l),
(410,557,l),
(567,737,l),
(535,769,l),
(389,656,l)
);
}
);
width = 592;
}
);
note = ncaron;
unicode = 328;
},
{
glyphname = ntilde;
kernLeft = m;
kernRight = h;
layers = (
{
hints = (
{
horizontal = 1;
place = (711,-20);
target = down;
type = TopGhost;
},
{
horizontal = 1;
place = (500,-20);
target = down;
type = TopGhost;
},
{
horizontal = 1;
place = (499,-20);
target = down;
type = TopGhost;
},
{
horizontal = 1;
place = (638,89);
type = Stem;
},
{
horizontal = 1;
place = (571,89);
type = Stem;
},
{
horizontal = 1;
place = (-15,91);
type = Stem;
},
{
horizontal = 1;
place = (-8,21);
target = up;
type = BottomGhost;
},
{
horizontal = 1;
place = (-15,21);
target = up;
type = BottomGhost;
},
{
place = (405,150);
type = Stem;
},
{
place = (51,555);
type = Stem;
}
);
layerId = m01;
shapes = (
{
closed = 1;
nodes = (
(195,0,l),
(209,72,o),
(222,143,o),
(237,214,cs),
(263,335,l),
(310,377,o),
(350,396,o),
(379,396,cs),
(394,396,o),
(405,387,o),
(405,365,cs),
(405,349,o),
(400,322,o),
(392,291,cs),
(355,141,ls),
(347,111,o),
(338,78,o),
(338,48,cs),
(338,8,o),
(365,-15,o),
(413,-15,cs),
(498,-15,o),
(567,51,o),
(606,118,c),
(576,138,l),
(544,97,o),
(519,76,o),
(502,76,cs),
(492,76,o),
(486,83,o),
(486,96,cs),
(486,106,o),
(490,120,o),
(495,139,cs),
(542,328,ls),
(550,359,o),
(555,388,o),
(555,415,cs),
(555,471,o),
(522,499,o),
(479,499,cs),
(415,499,o),
(344,459,o),
(275,392,c),
(293,484,l),
(274,500,l),
(68,436,l),
(62,398,l),
(132,391,l),
(51,4,l),
(65,-8,l)
);
},
{
closed = 1;
nodes = (
(231,571,l),
(249,614,o),
(272,638,o),
(299,638,cs),
(328,638,o),
(347,618,o),
(366,601,cs),
(384,585,o),
(409,571,o),
(444,571,cs),
(499,571,o),
(546,611,o),
(571,711,c),
(533,728,l),
(514,685,o),
(492,660,o),
(466,660,cs),
(440,660,o),
(421,679,o),
(402,695,cs),
(382,713,o),
(362,727,o),
(322,727,cs),
(270,727,o),
(218,682,o),
(193,588,c)
);
}
);
width = 592;
}
);
note = ntilde;
unicode = 241;
},
{
glyphname = uni0146;
kernLeft = m;
kernRight = h;
layers = (
{
hints = (
{
horizontal = 1;
place = (500,-20);
target = down;
type = TopGhost;
},
{
horizontal = 1;
place = (499,-20);
target = down;
type = TopGhost;
},
{
horizontal = 1;
place = (-15,91);
type = Stem;
},
{
horizontal = 1;
place = (-8,21);
target = up;
type = BottomGhost;
},
{
horizontal = 1;
place = (-15,21);
target = up;
type = BottomGhost;
},
{
horizontal = 1;
place = (-228,21);
target = up;
type = BottomGhost;
},
{
place = (405,150);
type = Stem;
},
{
place = (176,132);
type = Stem;
}
);
layerId = m01;
shapes = (
{
closed = 1;
nodes = (
(195,0,l),
(209,72,o),
(222,143,o),
(237,214,cs),
(263,335,l),
(310,377,o),
(350,396,o),
(379,396,cs),
(394,396,o),
(405,387,o),
(405,365,cs),
(405,349,o),
(400,322,o),
(392,291,cs),
(355,141,ls),
(347,111,o),
(338,78,o),
(338,48,cs),
(338,8,o),
(365,-15,o),
(413,-15,cs),
(498,-15,o),
(567,51,o),
(606,118,c),
(576,138,l),
(544,97,o),
(519,76,o),
(502,76,cs),
(492,76,o),
(486,83,o),
(486,96,cs),
(486,106,o),
(490,120,o),
(495,139,cs),
(542,328,ls),
(550,359,o),
(555,388,o),
(555,415,cs),
(555,471,o),
(522,499,o),
(479,499,cs),
(415,499,o),
(344,459,o),
(275,392,c),
(293,484,l),
(274,500,l),
(68,436,l),
(62,398,l),
(132,391,l),
(51,4,l),
(65,-8,l)
);
},
{
closed = 1;
nodes = (
(181,-263,l),
(259,-224,o),
(308,-179,o),
(308,-118,cs),
(308,-96,o),
(305,-85,o),
(297,-69,c),
(277,-53,o),
(260,-48,o),
(241,-48,cs),
(205,-48,o),
(176,-75,o),
(176,-114,cs),
(176,-140,o),
(192,-160,o),
(219,-184,c),
(204,-200,o),
(185,-213,o),
(160,-228,c)
);
}
);
width = 592;
}
);
note = uni0146;
unicode = 326;
},
{
glyphname = uni1E45;
kernLeft = m;
kernRight = h;
layers = (
{
hints = (
{
horizontal = 1;
place = (500,-20);
target = down;
type = TopGhost;
},
{
horizontal = 1;
place = (499,-20);
target = down;
type = TopGhost;
},
{
horizontal = 1;
place = (-15,91);
type = Stem;
},
{
horizontal = 1;
place = (-8,21);
target = up;
type = BottomGhost;
},
{
horizontal = 1;
place = (-15,21);
target = up;
type = BottomGhost;
},
{
place = (405,150);
type = Stem;
},
{
place = (313,147);
type = Stem;
}
);
layerId = m01;
shapes = (
{
closed = 1;
nodes = (
(195,0,l),
(209,72,o),
(222,143,o),
(237,214,cs),
(263,335,l),
(310,377,o),
(350,396,o),
(379,396,cs),
(394,396,o),
(405,387,o),
(405,365,cs),
(405,349,o),
(400,322,o),
(392,291,cs),
(355,141,ls),
(347,111,o),
(338,78,o),
(338,48,cs),
(338,8,o),
(365,-15,o),
(413,-15,cs),
(498,-15,o),
(567,51,o),
(606,118,c),
(576,138,l),
(544,97,o),
(519,76,o),
(502,76,cs),
(492,76,o),
(486,83,o),
(486,96,cs),
(486,106,o),
(490,120,o),
(495,139,cs),
(542,328,ls),
(550,359,o),
(555,388,o),
(555,415,cs),
(555,471,o),
(522,499,o),
(479,499,cs),
(415,499,o),
(344,459,o),
(275,392,c),
(293,484,l),
(274,500,l),
(68,436,l),
(62,398,l),
(132,391,l),
(51,4,l),
(65,-8,l)
);
},
{
closed = 1;
nodes = (
(421,594,o),
(460,631,o),
(460,679,cs),
(460,721,o),
(434,748,o),
(394,748,cs),
(352,748,o),
(313,712,o),
(313,661,cs),
(313,618,o),
(341,594,o),
(377,594,cs)
);
}
);
width = 592;
}
);
note = uni1E45;
unicode = 7749;
},
{
glyphname = ograve;
kernLeft = c;
kernRight = o;
layers = (
{
hints = (
{
horizontal = 1;
place = (444,55);
type = Stem;
},
{
horizontal = 1;
place = (-15,54);
type = Stem;
},
{
place = (386,145);
type = Stem;
},
{
place = (47,145);
type = Stem;
}
);
layerId = m01;
shapes = (
{
closed = 1;
nodes = (
(407,-15,o),
(531,141,o),
(531,308,cs),
(531,439,o),
(448,499,o),
(339,499,cs),
(172,499,o),
(47,343,o),
(47,176,cs),
(47,45,o),
(132,-15,o),
(241,-15,cs)
);
},
{
closed = 1;
nodes = (
(218,39,o),
(192,64,o),
(192,149,cs),
(192,285,o),
(247,444,o),
(326,444,cs),
(362,444,o),
(386,419,o),
(386,338,cs),
(386,198,o),
(331,39,o),
(253,39,cs)
);
},
{
closed = 1;
nodes = (
(372,557,l),
(355,608,o),
(340,659,o),
(322,709,cs),
(303,768,o),
(276,783,o),
(246,783,cs),
(217,783,o),
(186,761,o),
(186,727,cs),
(186,696,o),
(204,669,o),
(235,640,cs),
(270,605,o),
(306,573,o),
(342,538,c)
);
}
);
width = 533;
}
);
note = ograve;
unicode = 242;
},
{
glyphname = oacute;
kernLeft = c;
kernRight = o;
layers = (
{
hints = (
{
horizontal = 1;
place = (444,55);
type = Stem;
},
{
horizontal = 1;
place = (-15,54);
type = Stem;
},
{
place = (386,145);
type = Stem;
},
{
place = (47,145);
type = Stem;
}
);
layerId = m01;
shapes = (
{
closed = 1;
nodes = (
(407,-15,o),
(531,141,o),
(531,308,cs),
(531,439,o),
(448,499,o),
(339,499,cs),
(172,499,o),
(47,343,o),
(47,176,cs),
(47,45,o),
(132,-15,o),
(241,-15,cs)
);
},
{
closed = 1;
nodes = (
(218,39,o),
(192,64,o),
(192,149,cs),
(192,285,o),
(247,444,o),
(326,444,cs),
(362,444,o),
(386,419,o),
(386,338,cs),
(386,198,o),
(331,39,o),
(253,39,cs)
);
},
{
closed = 1;
nodes = (
(353,538,l),
(388,572,o),
(424,605,o),
(459,640,cs),
(491,669,o),
(508,696,o),
(508,726,cs),
(508,761,o),
(478,783,o),
(448,783,cs),
(418,783,o),
(392,768,o),
(372,709,cs),
(354,659,o),
(338,608,o),
(321,558,c)
);
}
);
width = 533;
}
);
note = oacute;
unicode = 243;
},
{
glyphname = ocircumflex;
kernLeft = c;
kernRight = o;
layers = (
{
hints = (
{
horizontal = 1;
place = (444,55);
type = Stem;
},
{
horizontal = 1;
place = (-15,54);
type = Stem;
},
{
place = (386,145);
type = Stem;
},
{
place = (47,145);
type = Stem;
}
);
layerId = m01;
shapes = (
{
closed = 1;
nodes = (
(218,39,o),
(192,64,o),
(192,149,cs),
(192,285,o),
(247,444,o),
(326,444,cs),
(362,444,o),
(386,419,o),
(386,338,cs),
(386,198,o),
(331,39,o),
(253,39,cs)
);
},
{
closed = 1;
nodes = (
(407,-15,o),
(531,141,o),
(531,308,cs),
(531,439,o),
(448,499,o),
(339,499,cs),
(172,499,o),
(47,343,o),
(47,176,cs),
(47,45,o),
(132,-15,o),
(241,-15,cs)
);
},
{
closed = 1;
nodes = (
(482,545,l),
(516,571,l),
(411,753,l),
(348,753,l),
(183,576,l),
(212,543,l),
(364,654,l)
);
}
);
width = 533;
}
);
note = ocircumflex;
unicode = 244;
},
{
glyphname = otilde;
kernLeft = c;
kernRight = o;
layers = (
{
hints = (
{
horizontal = 1;
place = (712,-20);
target = down;
type = TopGhost;
},
{
horizontal = 1;
place = (639,89);
type = Stem;
},
{
horizontal = 1;
place = (572,89);
type = Stem;
},
{
horizontal = 1;
place = (444,55);
type = Stem;
},
{
horizontal = 1;
place = (-15,54);
type = Stem;
},
{
place = (386,145);
type = Stem;
},
{
place = (47,145);
type = Stem;
}
);
layerId = m01;
shapes = (
{
closed = 1;
nodes = (
(407,-15,o),
(531,141,o),
(531,308,cs),
(531,439,o),
(448,499,o),
(339,499,cs),
(172,499,o),
(47,343,o),
(47,176,cs),
(47,45,o),
(132,-15,o),
(241,-15,cs)
);
},
{
closed = 1;
nodes = (
(218,39,o),
(192,64,o),
(192,149,cs),
(192,285,o),
(247,444,o),
(326,444,cs),
(362,444,o),
(386,419,o),
(386,338,cs),
(386,198,o),
(331,39,o),
(253,39,cs)
);
},
{
closed = 1;
nodes = (
(218,572,l),
(236,615,o),
(259,639,o),
(286,639,cs),
(315,639,o),
(334,619,o),
(353,602,cs),
(371,586,o),
(396,572,o),
(431,572,cs),
(486,572,o),
(533,612,o),
(558,712,c),
(520,729,l),
(501,686,o),
(479,661,o),
(453,661,cs),
(427,661,o),
(408,680,o),
(389,696,cs),
(369,714,o),
(349,728,o),
(309,728,cs),
(257,728,o),
(205,683,o),
(180,589,c)
);
}
);
width = 533;
}
);
note = otilde;
unicode = 245;
},
{
glyphname = odieresis;
kernLeft = c;
kernRight = o;
layers = (
{
hints = (
{
horizontal = 1;
place = (594,143);
type = Stem;
},
{
horizontal = 1;
place = (444,55);
type = Stem;
},
{
horizontal = 1;
place = (-15,54);
type = Stem;
},
{
place = (408,143);
type = Stem;
},
{
place = (386,145);
type = Stem;
},
{
place = (185,144);
type = Stem;
},
{
place = (47,145);
type = Stem;
}
);
layerId = m01;
shapes = (
{
closed = 1;
nodes = (
(407,-15,o),
(531,141,o),
(531,308,cs),
(531,439,o),
(448,499,o),
(339,499,cs),
(172,499,o),
(47,343,o),
(47,176,cs),
(47,45,o),
(132,-15,o),
(241,-15,cs)
);
},
{
closed = 1;
nodes = (
(218,39,o),
(192,64,o),
(192,149,cs),
(192,285,o),
(247,444,o),
(326,444,cs),
(362,444,o),
(386,419,o),
(386,338,cs),
(386,198,o),
(331,39,o),
(253,39,cs)
);
},
{
closed = 1;
nodes = (
(291,594,o),
(329,624,o),
(329,675,cs),
(329,713,o),
(300,737,o),
(264,737,cs),
(225,737,o),
(185,708,o),
(185,657,cs),
(185,617,o),
(216,594,o),
(251,594,cs)
);
},
{
closed = 1;
nodes = (
(513,594,o),
(551,624,o),
(551,675,cs),
(551,713,o),
(522,737,o),
(486,737,cs),
(447,737,o),
(408,708,o),
(408,657,cs),
(408,617,o),
(439,594,o),
(473,594,cs)
);
}
);
width = 533;
}
);
note = odieresis;
unicode = 246;
},
{
glyphname = omacron;
kernLeft = c;
kernRight = o;
layers = (
{
hints = (
{
horizontal = 1;
place = (599,81);
type = Stem;
},
{
horizontal = 1;
place = (444,55);
type = Stem;
},
{
horizontal = 1;
place = (-15,54);
type = Stem;
},
{
place = (386,145);
type = Stem;
},
{
place = (47,145);
type = Stem;
}
);
layerId = m01;
shapes = (
{
closed = 1;
nodes = (
(407,-15,o),
(531,141,o),
(531,308,cs),
(531,439,o),
(448,499,o),
(339,499,cs),
(172,499,o),
(47,343,o),
(47,176,cs),
(47,45,o),
(132,-15,o),
(241,-15,cs)
);
},
{
closed = 1;
nodes = (
(218,39,o),
(192,64,o),
(192,149,cs),
(192,285,o),
(247,444,o),
(326,444,cs),
(362,444,o),
(386,419,o),
(386,338,cs),
(386,198,o),
(331,39,o),
(253,39,cs)
);
},
{
closed = 1;
nodes = (
(193,599,l),
(499,599,l),
(516,680,l),
(210,680,l)
);
}
);
width = 533;
}
);
note = omacron;
unicode = 333;
},
